<svg width="730" height="456" viewBox="0 0 730 456" fill="none" xmlns="http://www.w3.org/2000/svg">
<path d="M96.8211 234.314H636.115V234.039C687.805 232.091 729.259 189.457 729.259 137.314V96.8348C729.259 43.4295 685.83 0 632.438 0H6.69624V13.3925H632.438C678.447 13.3925 715.867 50.8256 715.867 96.8211V137.3C715.867 183.31 678.433 220.729 632.438 220.729H116.471V220.921H96.8211C43.4295 220.921 0 264.351 0 317.742V358.221C0 411.613 43.4295 455.042 96.8211 455.042H722.563V441.65H96.8211C50.8118 441.65 13.3925 404.217 13.3925 358.221V317.742C13.3925 271.733 50.8118 234.314 96.8211 234.314Z" fill="#9BA0A6"/>
</svg>
