<svg width="414" height="52" viewBox="0 0 414 52" fill="none" xmlns="http://www.w3.org/2000/svg">
<path d="M0.749756 40.7895C0.749756 40.7895 23.5269 30.9369 38.9827 28.6632C54.4385 26.3895 80.0628 17.6737 88.1974 12.7474C96.332 7.8211 110.974 1 117.889 1C124.803 1 129.277 3.2737 130.498 3.2737C131.718 3.2737 136.599 2.5158 136.599 2.5158C136.599 2.5158 139.853 5.9263 145.14 7.4421C150.428 8.9579 154.495 7.4421 162.223 10.4737C169.951 13.5053 198.015 24.4948 224.86 30.179C251.704 35.8632 252.111 33.5895 270.821 33.5895C289.53 33.5895 288.717 37.7579 302.546 40.7895C316.375 43.8211 321.256 40.0316 330.204 39.2737C339.152 38.5158 365.996 44.9579 371.691 47.2316C371.691 47.2316 400.274 52.1001 413.537 51.2994" stroke="white" stroke-miterlimit="10"/>
</svg>
