<svg width="521" height="58" viewBox="0 0 521 58" fill="none" xmlns="http://www.w3.org/2000/svg">
<path d="M1 12.204C1 12.204 28.8951 4.62514 43.5375 6.89874C58.1799 9.17234 61.4338 0.0776435 66.7213 1.21454C72.0088 2.35144 99.6667 15.9934 109.428 20.9198C119.19 25.8462 128.545 19.404 134.646 20.9198C140.747 22.4356 168.405 17.5093 176.133 17.5093C183.86 17.5093 196.062 20.1509 205.417 22.809C214.772 25.4671 217.619 28.8777 217.619 28.8777C217.619 28.8777 224.534 27.7409 226.161 28.8777C227.788 30.0145 229.821 33.4251 229.821 33.4251C229.821 33.4251 238.769 33.804 242.023 33.4251C245.277 33.0462 250.565 34.5619 252.192 35.3198C253.819 36.0777 263.58 37.5935 266.427 39.1093C269.275 40.6251 272.528 42.8988 272.528 42.8988C272.528 42.8988 284.73 45.1725 286.357 48.2041C287.984 51.2357 292.458 50.0988 292.458 50.0988C292.458 50.0988 311.575 41.0041 314.829 38.3514C318.082 35.6987 322.963 30.3935 324.59 30.0146C326.217 29.6357 338.826 31.5304 338.826 31.5304C338.826 31.5304 348.181 26.983 357.942 28.4988C367.704 30.0146 379.092 28.1199 379.092 28.1199L387.227 31.1515C389.261 31.9094 407.157 27.362 411.631 30.3936C416.105 33.4252 414.072 36.0778 423.426 37.5936C432.781 39.1094 440.103 36.8357 444.983 39.1094C449.864 41.3831 457.592 42.141 461.253 42.141C464.913 42.141 473.455 51.9936 480.776 53.8884C488.097 55.7832 495.825 56.92 501.926 56.92C508.027 56.92 516.162 54.2674 519.822 56.92H520.537" stroke="white" stroke-miterlimit="10"/>
</svg>
