<svg width="112" height="210" viewBox="0 0 112 210" fill="none" xmlns="http://www.w3.org/2000/svg">
<path d="M63.1082 209.137H48.4556C48.4556 209.137 48.4556 206.105 48.5937 201.203C50.9624 178.274 53.9624 156.274 48.9624 133.274C53.9624 133.274 60.9624 132.274 61.9624 133.274C67.9624 155.274 63.9624 178.274 63.1082 201.255C63.1082 206.105 63.1082 209.137 63.1082 209.137Z" fill="#896A53"/>
<path d="M63.1082 209.137H48.4556C48.4556 209.137 48.4556 206.105 48.5937 201.203C50.9624 178.274 53.9624 156.274 48.9624 133.274C53.9624 133.274 60.9624 132.274 61.9624 133.274C67.9624 155.274 63.9624 178.274 63.1082 201.255C63.1082 206.105 63.1082 209.137 63.1082 209.137Z" fill="#896A53"/>
<path d="M58.0556 209.137H48.4556C48.4556 209.137 48.4556 206.105 48.5937 201.203C50.9624 178.274 53.9624 156.274 48.9624 133.274C51.9624 133.274 56.9624 132.274 56.9624 133.274C62.9624 156.274 59.9624 178.274 58.0587 201.253C58.0556 206.105 58.0556 209.137 58.0556 209.137Z" fill="#6B4128"/>
<path d="M105.85 83.6256C106.881 86.3736 107.753 89.1576 108.463 91.9666C109.184 94.8166 109.744 97.6906 110.153 100.635C113.113 118.255 112.124 137.706 100.262 153.268C89.3888 166.884 70.6069 164.939 54.4302 165.799C51.381 165.926 48.3024 165.939 45.2867 165.774C38.5191 165.322 32.8256 163.099 27.9228 159.692C26.2885 158.557 24.7421 157.29 23.273 155.914C19.5376 151.362 16.4272 146.428 13.8858 141.224C11.3444 136.019 9.37214 130.543 8.13864 124.974C6.95124 119.647 6.30774 114.314 6.07064 108.983C5.83344 103.651 6.00254 98.3196 6.48534 92.9956C9.32004 67.6803 17.228 43.3657 28.3407 20.4814C29.3198 18.6879 30.3392 16.9126 31.4293 15.2007C36.9979 6.40774 46.8829 -2.34556 57.7564 0.572243C73.5724 4.46254 79.5038 20.0239 87.3608 32.9099C88.4198 34.5409 89.4618 36.1711 90.4918 37.7873C91.5218 39.4035 92.5388 41.0057 93.5478 42.5805C94.5598 44.302 95.3978 46.0738 96.0948 47.8909C96.5648 49.1065 96.9728 50.3421 97.3518 51.6064C97.8518 53.7661 98.4898 55.957 99.1398 58.1937C99.7898 60.4304 100.458 62.716 101.077 65.0942C104.216 69.6255 101.25 75.4606 104.714 80.1986C105.094 81.3266 105.473 82.4676 105.85 83.6256Z" fill="#21958C"/>
<path d="M81.8639 102.376C82.4009 105.923 82.4009 108.681 83.3799 112.638C83.5879 114.407 83.7219 116.179 83.7829 117.947C84.0859 126.784 82.5699 135.506 79.5569 143.445C78.9259 145.001 78.1459 146.539 77.1909 148.055C75.2249 150.88 72.9636 153.513 70.421 155.874C67.8784 158.235 65.0546 160.323 61.9641 162.058C59.7277 163.25 57.409 164.308 55.0331 165.209C43.1536 169.714 29.844 170.317 18.0343 164.265C16.3057 163.232 14.7214 162.011 13.3298 160.679C10.5804 157.102 8.45655 153.27 6.81365 149.262C3.43945 141.854 1.73136 134.027 1.13636 126.085C0.987657 124.099 0.908756 122.107 0.897156 120.115C0.490756 103.955 5.94936 89.5737 10.2067 74.9277C11.6258 70.0462 12.9114 65.1351 13.8018 60.1191C16.7636 39.0255 32.5136 -3.72451 52.7636 12.0255C59.5136 16.5255 59.5136 36.7755 64.376 51.4355C65.415 53.5314 66.3792 55.6306 67.3142 57.741C69.1843 61.9617 70.957 66.2295 72.7439 70.4645C73.4116 72.3332 74.0429 74.2127 74.6519 76.0947C77.0879 83.6237 79.1889 91.2017 80.9209 98.5427C81.2459 99.7807 81.5609 101.059 81.8639 102.376Z" fill="#22746C"/>
<path d="M81.7369 102.406L81.5759 101.329L81.2139 101.063L81.7369 102.406Z" fill="#22746D"/>
<path d="M81.5219 97.1656L80.9619 95.3766C80.4069 96.6176 80.3049 95.1586 80.4079 98.1306C80.7699 99.0926 81.5929 101.203 81.8379 100.841C81.6299 100.136 81.0599 99.1666 80.9049 98.0836C81.2419 98.4806 81.4999 99.6236 81.9319 100.082C81.7629 98.3096 81.4649 99.0536 81.1309 97.1506L81.5219 97.1656Z" fill="#22746D"/>
<path d="M80.1919 95.2187C80.3719 95.3497 80.5539 95.4887 80.6599 95.4287C80.4789 95.2927 80.0879 94.4587 80.1919 95.2187Z" fill="#22746D"/>
<path d="M79.8328 94.1387C79.5728 92.9907 80.1348 94.0827 80.1498 93.9547L79.2998 92.7937L79.8328 94.1387Z" fill="#22746D"/>
<path d="M78.6288 89.4036C78.5628 89.2246 78.4988 89.0546 78.4378 88.8896C78.4048 89.0956 78.5148 89.2236 78.6288 89.4036Z" fill="#22746D"/>
<path d="M77.9309 87.1067C77.8819 87.6177 78.1479 88.1727 78.4379 88.8897C78.4419 88.8627 78.4459 88.8417 78.4509 88.8077C78.4219 88.1177 78.9629 88.6277 79.1479 89.7047C79.5259 90.7817 79.1329 90.7787 79.6249 91.6687L79.5779 90.2817C79.0689 88.5637 78.2639 87.7327 77.9309 87.1067Z" fill="#22746D"/>
<path d="M78.6289 89.4037C78.6959 89.5947 78.7609 89.7977 78.8199 90.0137C78.8079 89.7237 78.7209 89.5507 78.6289 89.4037Z" fill="#22746D"/>
<path d="M79.219 91.7876L79.448 92.3576L79.568 92.1736L79.219 91.7876Z" fill="#22746D"/>
<path d="M76.7948 83.2617C77.3758 83.3857 77.5428 86.0297 78.0118 86.2187C77.5608 84.7057 77.5678 83.3827 77.9408 83.6357L77.2878 81.9977C76.9318 81.4907 76.7708 82.3177 76.7948 83.2617Z" fill="#22746D"/>
<path d="M77.0648 79.5927C76.9898 79.4967 76.9218 79.3787 76.8618 79.2377C76.9388 79.4137 77.0118 79.5617 77.0648 79.5927Z" fill="#22746D"/>
<path d="M73.4443 71.4307L75.2588 75.1507C74.9778 74.8417 74.8708 75.0377 74.5148 74.1697C75.0348 75.9137 75.4248 76.0347 75.8258 77.4737C75.5048 78.0497 74.9848 74.9747 74.8368 75.9277C75.1758 76.9217 75.6728 78.4217 76.3148 79.1067L76.4888 80.8047L76.8358 80.1057C76.7798 79.4097 76.0328 78.9197 76.2598 78.4097C76.4148 78.1397 76.6598 78.7747 76.8528 79.2197C76.4228 78.2137 76.3888 76.2727 75.5908 74.1827C74.7858 71.9799 74.1748 72.7887 73.4443 71.4307Z" fill="#22746D"/>
<path d="M73.9429 71.076L74.0489 70.7411L73.8469 71.0207L73.9429 71.076Z" fill="#22746D"/>
<path d="M71.6108 67.1864L72.7579 69.0228C72.805 69.2514 72.7514 69.4076 72.7207 69.5854C72.8038 69.4652 73.2222 69.9149 73.2804 69.7947C73.3421 68.7127 72.112 67.4478 71.5857 66.4302C70.5998 63.5663 71.8786 66.4588 71.8382 65.2054C72.1601 65.9908 72.0663 66.0641 72.4965 67.157C72.2712 65.2477 70.8945 63.2883 70.3044 62.2491C70.3963 62.5869 70.2935 62.7261 70.5909 63.3129L69.9614 62.2402C70.1091 63.5606 70.4408 64.6001 71.6108 67.1864Z" fill="#22746D"/>
<path d="M73.0849 70.6952C72.7882 69.9589 72.6723 69.6917 72.7186 69.5967C72.6684 69.8387 72.7206 70.1061 73.0849 70.6952Z" fill="#22746D"/>
<path d="M70.0408 61.665C70.0651 61.799 70.1605 61.9954 70.3046 62.249C70.2664 62.1089 70.1963 61.9308 70.0408 61.665Z" fill="#22746D"/>
<path d="M69.9899 63.0003L69.4512 61.6084L69.4718 62.2374C69.5762 62.4184 69.8966 63.078 69.9899 63.0003Z" fill="#22746D"/>
<path d="M51.2083 9.61328C51.2551 9.83118 51.6578 10.2363 52.6494 10.8793C52.375 11.0306 51.1983 10.0577 50.4431 9.90278C51.7433 10.7801 50.27 10.1577 50.4952 10.562C51.2354 10.9705 51.7433 11.3144 52.3135 11.5943C52.8633 11.8913 53.4706 12.2031 54.0967 12.9045C53.9762 12.8944 53.9285 12.9907 54.009 13.2328C54.8005 13.9767 55.6673 15.2063 56.309 16.5373C56.9599 17.8653 57.4156 19.2702 57.6153 20.3255C58.0926 22.3322 58.5585 23.7874 59.1424 25.9814C60.5234 33.2934 61.7702 40.9412 63.681 48.6862L64.4847 49.6216C64.3465 50.0621 65.0574 51.4288 64.6673 51.2996C64.6019 50.8845 64.4221 50.4944 64.2594 50.003C64.2825 50.4348 64.3779 50.944 64.5267 51.4337C64.7298 51.9171 64.9905 52.4442 65.2581 52.9651C65.7959 54.0125 66.3853 55.0853 66.7463 56.0497C66.7307 55.8006 66.9899 55.3115 67.3227 55.8399C66.7419 55.922 68.3623 58.0416 67.9796 58.8644C68.6383 60.8194 68.4648 58.7412 69.2214 60.7436C69.6167 60.8208 68.5633 58.7907 68.6417 58.3328C69.1536 58.8444 69.2984 60.1639 69.5832 59.9379C69.2815 59.1309 68.8664 58.1725 68.3593 57.1219C67.8247 56.0802 67.2098 54.943 66.5618 53.7613C66.2371 53.1715 65.9054 52.5691 65.5707 51.9613L65.1087 51.1301L64.7384 50.1909C64.2475 48.9087 63.8027 47.6101 63.4426 46.3586L63.8797 46.8102C62.9794 44.2957 62.0999 40.0546 62.2168 37.8595C62.0138 38.4118 61.6593 33.954 61.0685 34.4611C61.1009 33.7685 61.0403 33.5719 60.9257 32.6117L60.6687 32.3946C60.4275 31.0367 60.7951 31.1991 60.486 29.6469C60.3889 30.7151 60.0953 29.6072 59.7739 29.1999C59.7611 27.3614 59.6225 25.2353 59.5142 23.5916C59.4511 23.7379 59.3774 23.9026 59.3764 24.4719C59.2386 23.3774 59.003 23.6225 58.8395 23.3594C58.5788 22.3327 58.9688 22.349 59.1652 22.3542C58.792 20.4136 57.845 19.7781 57.6011 18.3172L57.4861 18.8967C56.7523 17.0438 56.4569 15.2751 55.0112 13.4384C54.8266 12.8665 55.2029 13.1788 55.679 13.7728C56.1535 14.3645 56.6436 15.2394 56.931 15.6345C56.8064 15.1698 56.3444 14.2667 56.2685 13.9127C55.5771 13.1486 54.2027 11.8836 53.0216 11.413C54.2358 11.702 51.8806 10.0266 51.2083 9.61328Z" fill="#22746D"/>
<path d="M56.2681 13.9119C56.4787 14.138 56.6547 14.3265 56.7691 14.4311C56.6269 14.2422 56.49 14.0657 56.3236 13.751C56.2621 13.7507 56.2525 13.8168 56.2681 13.9119Z" fill="#22746D"/>
<path d="M51.2083 9.61257C51.208 9.59257 51.1876 9.56646 51.19 9.54786C50.9681 9.46176 51.0236 9.50437 51.2083 9.61257Z" fill="#22746D"/>
<path d="M57.6677 20.6059C57.6518 20.5205 57.6327 20.418 57.6154 20.3249C57.5831 20.2052 57.5544 20.0991 57.5205 19.9736L57.6677 20.6059Z" fill="#22746D"/>
<path d="M59.4182 21.8534C59.4314 22.3024 59.4595 22.9122 59.5138 23.5911C59.5971 23.3749 59.6755 23.2011 59.4182 21.8534Z" fill="#22746D"/>
<path d="M61.7312 35.1596C61.8571 35.5547 61.9033 35.3058 62.0509 35.5687C61.9107 34.7365 61.7638 34.4672 61.7312 35.1596Z" fill="#22746D"/>
<path d="M54.6144 11.7124C54.1304 11.2647 53.5357 10.9191 53.0718 10.6241L52.5049 10.3291L53.527 10.9336C53.8913 11.1796 54.2785 11.4013 54.6144 11.7124Z" fill="#22746D"/>
<path d="M26.8066 22.5191C27.3369 21.9796 27.858 21.2425 28.3583 20.4399C28.8984 19.6662 29.4132 18.8189 29.9879 18.125C31.889 15.4044 29.5735 17.2759 31.6259 14.827L31.8161 15.7286C32.8068 14.5063 34.2061 13.2243 35.6013 12.0404C37.0388 10.9029 38.509 9.92169 39.6881 9.16139C39.9424 9.15469 40.4932 9.04719 39.7709 9.45779C40.2468 9.23039 40.5567 9.11499 40.7689 8.95359C40.9829 8.79889 41.1103 8.63909 41.2661 8.48109C41.4244 8.33389 41.6017 8.14189 41.9445 8.04259C42.2862 7.94259 42.7839 7.86939 43.5335 7.85329C40.8313 8.60419 44.4518 8.18149 43.7038 8.73939C43.5693 8.74999 43.4364 8.79689 43.3036 8.82379C45.0434 8.64629 47.4473 8.91599 48.527 9.45889C48.6507 9.30499 47.7444 8.65739 49.2969 9.21209C48.6894 8.93859 49.018 8.83909 49.1461 8.68239C48.2757 8.49759 47.6662 8.22149 47.0754 8.14439C46.4927 8.05049 45.9918 7.97479 45.4602 8.00299C44.5137 7.70589 46.1348 7.95699 45.1736 7.66349L43.7529 7.82509C42.7078 7.79859 44.8244 7.53529 43.1939 7.56139C43.0107 7.73769 41.7114 7.95069 40.5134 8.30719L40.8403 8.13429C39.911 8.40919 38.6556 8.89099 39.2278 9.07499C38.8392 9.09419 38.4279 9.09519 38.0321 9.14279C38.131 9.19369 38.2284 9.24389 38.3307 9.30529C37.1781 9.85909 36.2987 10.1252 35.4341 10.611C34.9885 10.8363 34.5295 11.0924 34.0755 11.4832C33.6182 11.8689 33.0752 12.3038 32.5714 12.9657C33.1853 12.4709 32.7771 13.0907 32.5187 13.4232C33.5956 12.588 33.6102 12.1266 34.576 11.2334C34.8861 11.3339 33.4499 12.9988 34.7386 12.1178C33.983 12.5384 33.3719 13.0688 32.8841 13.5408C32.3843 14.0023 31.9111 14.323 31.4243 14.3766C30.0119 15.9061 29.8031 16.7207 28.4497 18.3078L28.3974 18.2002C28.5628 18.7843 27.2277 19.4627 26.8262 21.0322L27.4962 20.1642C27.6257 20.311 27.3478 20.7632 26.9856 21.4018C26.9684 21.2905 26.9686 21.2902 26.7647 21.4451C26.9 21.8002 25.8052 23.8363 25.7446 24.1325C26.2803 23.3282 26.6169 22.1434 27.1729 21.1392C27.0331 21.7339 27.3543 21.7248 26.8066 22.5191Z" fill="#22746D"/>
<path d="M41.4863 7.80176L40.8403 8.13406C41.11 8.03596 41.3533 7.92366 41.4863 7.80176Z" fill="#22746D"/>
<path d="M22.0975 30.3873C21.4927 31.5369 21.982 29.9521 21.345 30.9954C21.0227 32.2939 22.3956 29.8116 22.1891 31.1215C21.6777 31.7658 21.5113 33.0923 21.3095 33.5776C21.3537 32.9649 20.8173 33.102 20.6395 33.2879C20.5516 33.7899 19.9542 34.7566 19.6257 35.5471C20.6481 33.698 19.1368 37.2444 20.1064 35.5963C20.2873 35.8187 19.7911 37.7175 19.3316 38.3985C19.1737 38.28 19.4322 37.6879 19.6055 37.1905C19.4171 36.6596 18.9713 38.3657 18.5593 38.5402C18.4653 39.5657 17.894 41.578 17.5686 43.1651C17.2275 44.7481 17.116 45.8943 17.7462 45.1426C18.0795 44.539 18.0607 43.9328 18.2527 43.2264C17.4799 45.1339 17.8454 43.1147 17.7618 42.9025C18.1414 42.0993 18.3765 40.5849 18.5454 41.0011L18.3977 42.4219C19.8844 38.2113 21.992 32.4928 24.1804 27.8502C23.8535 28.5141 23.5103 29.1703 23.2087 29.8468C23.1103 29.5168 23.5514 28.5627 23.8213 27.7856L22.866 28.5408C23.185 27.9761 23.3864 27.3871 23.5331 27.5171C23.6787 26.7122 23.4019 26.9705 23.0299 27.317C23.677 25.7596 24.0229 25.6322 24.316 24.3174C22.6204 26.5976 23.5226 26.5668 21.8079 29.2971L22.0975 30.3873Z" fill="#22746D"/>
<path d="M24.5239 24.7882L24.4446 25.5082L24.8077 24.54L24.5239 24.7882Z" fill="#22746D"/>
<path d="M25.0545 26.2719C24.9368 26.2453 25.0814 25.862 24.9643 25.8368C24.2919 26.9389 24.5078 26.8762 25.0545 26.2719Z" fill="#22746D"/>
<path d="M17.9817 40.1493C17.8335 40.6877 17.6742 41.222 17.5405 41.7642C17.6798 41.4282 17.8275 41.0953 17.9783 40.7635C17.8574 40.7546 17.9421 40.3514 17.9817 40.1493Z" fill="#22746D"/>
<path d="M16.0739 51.7451C16.5636 49.5036 16.568 48.4772 17.5375 46.0527C17.5663 44.7329 16.7477 46.447 16.6012 45.8334C16.1638 47.0573 16.7851 47.0662 16.5391 48.3825C16.1097 48.7872 16.1135 50.2997 15.7395 51.5229C15.8939 51.3977 16.0294 51.4305 16.0739 51.7451Z" fill="#22746D"/>
<path d="M13.4318 59.3152C13.2785 60.361 13.2918 61.4224 12.9923 62.2212C12.8332 62.0711 12.8855 61.4402 13.0516 60.8327C12.5615 61.1421 12.9023 61.983 12.3927 63.0386C12.459 62.9503 12.6139 62.5591 12.6392 62.8894C11.9402 65.6269 12.6643 64.5251 11.5602 68.0342C11.5449 68.58 11.4082 69.0859 11.7038 69.0717C10.8268 70.999 11.1066 69.9834 10.1389 72.319C10.3242 72.2699 10.9067 71.5798 11.2414 71.6875C9.81191 74.9786 10.312 75.2006 9.31791 77.2726C9.37281 77.0246 9.37131 76.7036 9.59041 76.1346C9.03491 76.2766 9.13851 77.9846 8.67761 79.1596L8.30991 78.9236C8.03901 80.0536 7.71221 82.0636 6.99281 83.3746L6.88761 82.9946C6.32341 85.9326 5.18701 89.2246 4.65291 91.7206L4.03931 92.9666C3.41781 96.4306 5.10641 89.6446 5.03051 92.2896C4.18351 92.4546 4.78241 94.0936 3.99831 95.9406C3.46431 96.7746 4.34501 93.9516 3.74461 94.8696C4.01931 95.3986 3.58781 95.9266 3.43751 96.9866C3.12701 96.6736 2.87701 99.1356 2.61581 98.4026C2.54071 99.6686 2.52631 100.943 2.49151 102.204C2.15571 102.748 2.00901 103.824 1.91431 104.614C2.28191 102.639 2.36411 105.255 2.94101 103.074C3.35621 99.8316 4.55941 94.4646 5.90681 90.5836C5.53291 90.0106 6.6435 88.0536 6.4316 87.3126C6.6164 87.2676 6.84191 87.0086 7.02641 86.9626C7.67671 84.4006 6.57841 87.4756 6.58241 86.8066C6.84851 85.6726 7.41901 84.8706 7.56501 85.0286C8.14121 83.2246 7.49311 84.7806 7.50791 83.7766L8.4092 82.7576C9.9713 77.0476 11.9141 69.4584 13.5702 62.9136L13.1199 63.3366C13.968 60.3971 13.1992 58.1793 14.4776 55.6531L14.3665 54.6842C14.4328 55.2175 14.9912 54.2769 15.0669 55.1082C15.1104 54.2699 15.4235 53.438 15.5129 52.5814C15.3488 53.0641 15.1711 53.5447 15.0177 54.0312C14.9468 52.9235 15.4006 51.8122 15.7315 51.5279C15.9197 49.2342 14.8201 52.6998 14.4328 53.1413C14.4169 56.4155 13.1257 56.2039 12.9082 59.3128C12.8137 61.2264 13.2675 59.1739 13.4318 59.3152Z" fill="#22746D"/>
<path d="M15.0664 55.582C15.0797 55.3801 15.077 55.2249 15.0669 55.1084C15.0562 55.269 15.0556 55.4213 15.0664 55.582Z" fill="#22746D"/>
<path d="M1.91413 104.615C1.87273 104.849 1.82053 105.129 1.77563 105.504C1.81613 105.82 1.82513 105.328 1.91413 104.615Z" fill="#22746D"/>
<path d="M15.7395 51.5225C15.7395 51.5225 15.7373 51.522 15.7314 51.5281C15.7344 51.5346 15.7322 51.5445 15.7328 51.5517C15.7351 51.5416 15.7379 51.5294 15.7395 51.5225Z" fill="#22746D"/>
<path d="M15.2649 49.8311L15.0476 50.6555L15.2401 50.5501L15.2649 49.8311Z" fill="#22746D"/>
<path d="M0.358154 113.537L0.542854 113.559C0.490954 113.474 0.434754 113.437 0.358154 113.537Z" fill="#22746D"/>
<path d="M2.12963 137.98L2.02173 137.461C2.03033 137.627 2.07683 137.811 2.12963 137.98Z" fill="#22746D"/>
<path d="M44.5942 168.46C45.3764 168.279 46.2841 168.061 47.1226 167.783C47.9671 167.532 48.7416 167.231 49.2673 166.928L49.2042 167.138C50.0236 166.866 52.5481 165.76 50.768 165.961L50.406 166.244C48.5398 167.007 48.9271 166.343 47.3891 166.564C45.5936 167.056 44.642 167.923 42.9594 167.992C42.2306 168.099 42.3234 167.899 42.5187 167.735C40.8653 167.902 40.2555 168.437 39.0971 168.6C38.8301 167.913 37.5673 168.052 36.0306 168.196C34.499 168.334 32.6706 168.412 31.5004 167.815C29.934 167.716 27.9047 167.274 25.9111 166.988C27.0265 166.926 24.1009 166.473 24.6445 166.185C24.2687 166.467 22.9011 166.004 21.6365 165.385C20.3368 164.834 19.1576 164.167 18.7469 164.559C18.1556 164.215 17.8792 164.013 17.7319 163.899C17.5795 163.79 17.5511 163.784 17.5107 163.773C17.4374 163.741 17.2825 163.723 16.0819 162.712C16.1523 162.621 16.5781 162.93 16.7607 163.028C15.8821 162.153 14.9568 162.243 14.4825 161.215C13.5479 160.346 13.5296 160.36 13.4405 160.435C13.3599 160.517 13.3306 160.741 12.7683 160.226C11.3217 158.014 11.8783 158.527 11.4385 157.096C10.8959 157.167 10.264 155.715 9.4299 154.718C9.5537 155.01 10.3776 156.607 9.6252 155.687C8.8944 154.334 8.5511 153.821 8.1839 153.344C7.8235 152.864 7.4414 152.42 6.7853 151.127C6.6731 149.577 8.0022 153.736 7.3333 151.258C8.3132 152.805 8.9432 154.027 9.7566 154.678C9.1824 153.616 8.5559 152.434 7.9456 151.209C7.3405 149.985 6.7293 148.716 6.0937 147.549C5.6042 146.162 6.6159 148.147 6.2224 147.058C5.4727 144.562 4.2809 143.483 3.8941 141.395L4.2875 141.733C3.5316 140.615 3.1167 137.259 2.4715 134.923C2.3948 135.249 2.3433 135.472 2.187 135.172C2.8756 135.09 1.1915 131.892 1.4288 129.422C1.002 129.667 0.4887 127.356 0.3566 125.866C0.4569 125.334 0.647799 125.434 0.766399 125.432C0.645699 127.876 1.421 127.742 1.8302 129.607C1.3922 128.053 1.4312 125.42 1.0872 124.055L1.4588 124.576C1.4219 122.376 0.5897 122.682 0.8318 120.361L1.0977 120.583C0.8685 115.925 1.8298 110.557 1.8361 106.81C1.6791 106.452 0.8977 108.242 0.7271 108.325C0.6871 109.452 0.7215 110.346 0.7663 111.169C0.8398 111.995 0.9191 112.751 0.9431 113.602L0.5432 113.559C0.761 113.966 0.872099 116.013 1.1246 114.894C1.2834 116.278 0.7121 115.92 0.9135 117.516C0.4806 117.388 0.4699 116.43 0.1236 116.402C0.1672 116.869 0.228299 117.334 0.304699 117.797C0.140899 117.361 0.1658 118.639 0 118.212C0.4893 120.785 -0.1044 121.821 0.2118 124.488L0.2267 122.996C0.461 122.999 0.4709 123.85 0.5648 124.483C0.2814 125.229 0.29 125.656 0.2775 127.039C0.5636 128.203 1.0472 128.812 1.2379 130.388C0.7362 130.107 1.3667 133.039 1.0602 133.396C1.5356 133.661 1.7811 136.417 2.0897 136.581C2.3623 137.398 2.5857 138.546 2.3588 138.59C2.3174 138.469 2.2107 138.238 2.13 137.981L2.3215 138.816C2.2517 138.749 2.2218 138.786 2.1902 138.692C2.3653 139.438 2.6737 139.363 2.7236 140.365C2.6095 140.386 2.4679 139.876 2.3124 139.469C2.7589 141.467 3.9322 142.701 4.0994 144.414C4.3912 144.664 5.2401 146.844 5.5011 146.195C5.5705 146.838 5.1382 146.767 5.8555 148.314C6.6224 149.044 6.4598 150.107 7.224 151.185C6.1465 149.777 7.1055 151.226 6.1487 150.004C6.4448 151.139 7.6428 152.521 8.5309 154.333C8.543 154.556 8.4371 154.61 8.4537 154.841C8.9446 155.445 9.6521 156.029 9.751 156.823L9.946 156.599C10.5346 157.864 11.6768 159.409 12.3304 160.778L12.707 161.055C12.7801 161.125 12.8728 161.186 12.9624 161.235L13.1701 161.339L13.9952 161.724C14.6826 162.704 15.7815 163.567 16.9451 164.178C17.2343 164.332 17.5288 164.469 17.8324 164.601C18.1369 164.7 18.4369 164.785 18.7259 164.864C19.3041 165.019 19.8398 165.137 20.2973 165.22C21.0646 165.554 22.2025 166.114 22.1545 166.223C21.9578 166.189 21.6225 166.131 21.2296 166.062C22.3633 166.579 23.7436 167.309 24.5353 167.112C25.8012 167.336 25.355 167.656 26.2638 167.978C27.5958 168.01 29.4365 168.491 31.1064 168.781C32.7716 169.064 34.2439 169.208 34.6579 168.728C33.5976 168.684 31.6281 168.317 29.6478 168.039C30.1919 168.001 29.8166 167.757 30.5444 167.841C31.0392 167.901 31.4698 167.98 31.8709 168.059C32.2739 168.126 32.6476 168.189 33.0211 168.251C33.3951 168.316 33.7704 168.378 34.1777 168.422C34.5862 168.446 35.0268 168.453 35.528 168.429L35.2658 169.03C36.1312 169.229 36.988 169.255 37.8176 169.192C38.6486 169.156 39.4499 169.008 40.222 168.859C40.9962 168.731 41.7373 168.568 42.46 168.471C43.1846 168.39 43.8897 168.368 44.5942 168.46Z" fill="#22746D"/>
<path d="M19.2034 165.269C19.605 165.569 20.0067 165.893 20.4291 166.158L20.3846 165.858C19.9421 165.739 19.5258 165.511 19.2034 165.269Z" fill="#22746D"/>
<path d="M20.3845 165.858C20.6771 165.944 20.9666 166.012 21.2292 166.062C20.9328 165.938 20.6414 165.833 20.3774 165.783L20.3845 165.858Z" fill="#22746D"/>
<path d="M50.2754 167.102C50.5975 167.054 51.2153 166.899 51.8062 166.649C51.3809 166.698 50.5698 166.943 50.2754 167.102Z" fill="#22746D"/>
<path d="M51.8582 166.436L51.1275 166.562L51.0457 166.661L51.8582 166.436Z" fill="#22746D"/>
<path d="M80.9238 138.041C81.0258 137.262 81.0908 136.478 81.1648 135.701C81.4558 135.355 81.7928 132.743 81.9248 133.64C81.8098 132.205 82.6828 129.319 81.8808 130.316C81.4618 133.667 80.5138 137.599 79.1368 141.516C78.4878 143.49 77.6328 145.324 76.6078 147.113C75.5798 148.791 74.3168 150.497 73.1508 152.043L73.7778 150.925C72.6658 152.642 71.5811 153.553 70.6124 154.399C69.6312 155.244 68.7615 156.024 67.809 157.446L67.8199 156.772C66.3203 157.824 65.4546 159.557 63.5075 160.155L63.787 160.226C63.35 160.504 63.1266 160.531 62.6798 160.8L62.9058 160.774C61.8487 161.661 61.0958 162.015 59.8171 162.488C59.659 162.383 60.3536 162.148 60.7037 161.917C60.0798 162.049 59.285 162.832 58.3268 163.263C57.5136 163.472 58.2411 163.046 58.3118 162.935C55.533 164.441 53.9985 164.375 52.1322 165.812C51.9644 166.011 53.0004 165.817 51.9143 166.222C53.9866 165.817 55.497 164.939 57.1606 164.005L56.6723 164.208C57.7592 162.928 57.8052 163.933 59.8623 162.596C59.4213 163.152 58.4605 163.594 58.1355 163.914C60.9583 163.247 61.5673 161.806 63.5231 161.471L63.3534 161.6C63.7506 161.441 64.3145 160.927 64.8064 160.517C64.5818 160.554 64.0296 160.854 63.6346 161.016C64.1396 160.618 64.2325 160.163 64.3359 159.928C65.1121 159.803 65.0304 159.274 66.0456 158.742C66.5545 158.751 65.4396 159.528 65.1772 159.901L66.1777 158.936C67.1714 158.173 67.3657 158.454 67.9643 158.195C68.6478 157.344 67.3741 158.459 67.8409 157.663C68.4832 157.391 69.9064 156.298 71.2929 154.909C72.6861 153.526 74.0228 151.85 74.7638 150.688C74.1938 151.449 74.8108 151.157 74.0238 152.008C74.3578 151.739 75.1668 150.493 74.9868 150.336C75.4928 149.534 76.1288 148.657 76.7528 147.829C77.3398 146.958 77.9188 146.1 78.4128 145.368L77.9718 145.713C78.1348 144.973 78.6038 144.171 79.0868 143.222C79.5468 142.248 80.0718 141.128 80.3538 139.837L80.3328 139.89C80.5388 139.065 80.2068 138.214 80.7178 136.761C80.8898 137.254 80.6258 138.048 80.9238 138.041Z" fill="#22746D"/>
<path d="M82.282 128.915C82.356 129.21 82.422 129.505 82.485 129.801C82.701 128.882 82.419 127.671 82.188 127.845C82.176 128.47 81.931 129.271 82.096 129.41C82.159 129.31 82.275 129.335 82.282 128.915Z" fill="#22746D"/>
<path d="M82.126 111.595C81.977 111.263 81.879 111.375 81.759 111.245C81.859 111.72 81.972 112.207 82.098 112.697C82.141 112.886 82.13 112.777 82.142 112.908L82.174 113.267L82.239 113.989C82.322 114.953 82.404 115.908 82.481 116.794C82.659 118.566 82.563 120.076 82.449 120.805C82.329 122.042 82.83 122.276 82.854 123.852L82.486 124.538C82.645 125.398 82.023 127.927 82.651 127.079C82.703 126.981 82.486 126.317 82.633 125.602L82.81 125.735C82.828 125.177 82.865 124.621 82.867 124.064L83.069 124.61C83.523 122.342 82.483 122.978 82.734 120.2L83.204 120.223C83.227 119.281 83.16 118.574 83.143 117.895C83.09 117.218 83.072 116.57 83.151 115.734C83.151 115.734 82.916 115.736 83.035 116.044C83.033 116.363 82.876 116.778 82.72 116.569C82.139 113.778 83.032 116.984 83.074 115.001C82.948 114.403 82.815 113.671 82.691 112.888C82.676 112.78 82.665 112.737 82.64 112.682L82.547 112.383L82.367 111.774C82.251 111.365 82.15 110.949 82.059 110.54C81.696 108.9 81.568 107.377 81.679 106.684C81.524 107.866 81.036 106.177 80.916 104.834C81.011 104.203 81.243 105.231 81.405 105.433C81.387 104.8 81.446 104.278 81.298 103.657C81.138 104.505 80.737 104.003 80.374 102.602C80.552 105.734 81.482 108.31 82.126 111.595Z" fill="#22746D"/>
<path d="M81.5418 110.69C81.6218 111.03 81.6938 111.173 81.7588 111.245C81.6628 110.796 81.5778 110.345 81.5078 109.923L81.5418 110.69Z" fill="#22746D"/>
<path d="M22.7302 50.4063C22.6738 57.648 22.5998 64.8898 22.5611 72.1316C22.5408 75.9396 22.5427 79.7336 22.9781 83.5226C23.2234 85.6566 23.3834 89.0446 25.1053 90.6616C29.2534 94.5546 34.4339 85.8276 36.3664 83.3236C40.7022 77.7076 45.0022 72.0614 49.3676 66.4677C48.877 65.6239 48.3865 64.7801 47.8959 63.9363C48.5873 68.408 49.2484 72.9216 50.1352 77.3606C50.6006 79.6906 51.0682 82.5486 52.7582 84.3596C57.3144 89.2426 64.05 83.0286 67.2802 79.4996C76.912 68.9771 78.313 52.8994 75.993 39.4002C75.01 33.6755 74.057 41.3445 74.02 43.0491C73.855 50.8031 68.5936 58.9419 62.5716 63.5282C59.5364 65.8398 54.2383 68.2549 52.0374 63.62C50.1892 59.7277 50.3877 54.0109 49.597 49.7757C49.5413 49.4774 49.1174 45.9629 48.1254 47.2443C44.9849 51.3008 41.7943 55.3186 38.6322 59.3583C35.8849 62.868 33.0002 68.1822 29.2357 70.6213C28.6876 71.063 28.0669 71.3687 27.3736 71.5385C26.289 71.8243 25.3874 71.4936 24.6686 70.5465C25.1961 77.9706 25.4286 79.5546 25.3663 75.2986C25.3685 73.9676 25.3706 72.6356 25.3728 71.304C25.3814 65.9776 25.3901 60.6513 25.3987 55.3249C25.402 53.3183 26.1483 44.9951 24.1936 43.8233C22.7237 42.942 22.7351 49.7835 22.7302 50.4063Z" fill="#04685C"/>
<path d="M9.28694 89.0007C8.53954 96.5557 7.34954 104.209 7.21694 111.804C7.14924 115.679 6.20664 126.295 11.2143 127.947C15.8761 129.485 22.6118 123.535 25.8158 120.824C30.4809 116.877 34.3911 112.238 37.6224 107.059C37.2664 106.762 36.9103 106.464 36.5543 106.167C39.3764 114.902 45.2915 126.643 56.3286 120.382C64.7496 115.604 66.5001 106.311 66.7234 97.4107C66.3253 99.7287 65.9271 102.046 65.529 104.363C72.9388 108.266 83.3108 111.56 89.2648 103.487C91.6578 100.243 91.9608 95.9957 92.1128 92.1077C92.3228 86.6937 92.2128 80.6147 89.9288 75.6057C89.9548 81.9227 89.9808 88.2397 90.0068 94.5567C91.3848 94.4687 92.7628 94.3807 94.1398 94.2927C94.8458 94.2477 95.0898 91.5427 95.0998 91.4447C95.5418 86.9667 95.9948 82.4917 96.3518 78.0047C96.6458 74.3017 96.8368 69.621 95.6958 66.0368C94.8758 63.4603 94.2098 64.0108 93.8698 66.808C93.4228 70.489 93.0738 74.1797 92.7078 77.8697C93.0278 76.9197 93.3468 75.9707 93.6668 75.0217C92.2888 75.1047 90.9118 75.1877 89.5338 75.2707C86.7318 75.4397 88.7508 92.3277 89.6118 94.2227C89.5098 90.3757 89.4068 86.5287 89.3048 82.6827C89.0598 83.2717 88.7528 83.8247 88.3848 84.3437C87.6718 84.9607 87.1648 85.9297 86.4278 86.5837C84.5108 88.2867 82.3298 89.1147 79.7888 89.3767C74.5838 89.9147 69.6072 87.8147 65.0665 85.5157C64.2601 85.1067 63.8724 92.4527 63.8721 92.4677C63.9494 88.9277 63.3663 93.0047 62.902 94.0147C62.3191 95.2837 61.5649 96.4987 60.7073 97.6017C58.5942 100.319 55.6166 102.554 52.2574 103.442C43.7501 105.69 39.6149 97.0667 37.5384 90.4167C37.4208 90.0397 37.0356 88.6547 36.4703 89.5247C32.9673 94.9167 28.6909 99.6297 23.472 103.415C21.4202 104.904 10.505 113.059 9.16264 107.362C9.45904 110.061 9.75544 112.76 10.0517 115.459C10.1224 117.573 9.91464 118.17 10.2248 115.715C10.4307 114.086 10.5358 112.439 10.6909 110.805C10.9705 107.858 11.2502 104.912 11.5299 101.966C11.9334 97.7147 12.0809 93.1607 11.2105 88.9537C10.6421 86.2077 9.63854 85.4457 9.28694 89.0007Z" fill="#04685C"/>
<path d="M27.2005 127.189C23.4196 134.499 18.5909 141.237 18.4114 149.666C18.352 152.456 17.8673 158.979 20.4675 161.027C22.5859 162.695 26.9134 161.056 29.1978 160.373C36.0241 158.335 42.1868 154.217 46.9481 148.943C47.9533 147.83 48.8963 146.657 49.7641 145.434C51.1646 143.459 51.1793 141.972 53.0667 143.82C55.3151 146.021 55.8408 149.642 58.3251 151.849C64.2001 157.07 71.2699 152.06 74.4919 146.514C74.9139 145.788 76.2849 141.582 77.1339 141.546C77.1799 141.544 79.3869 144.274 79.7079 144.538C81.8739 146.309 84.6639 147.312 87.4749 147.163C100.791 146.46 99.9299 122.757 94.0149 115.267C93.4739 114.582 93.1679 115.677 93.0649 116.059C92.1869 119.311 90.6669 136.936 98.4369 134.013C105.358 131.41 102.174 117.62 102.152 112.561C102.15 112.124 101.926 106.376 101.169 106.48C100.093 106.629 100.252 110.159 100.224 110.956C100.163 112.724 100.165 114.441 100.244 116.207C100.285 116.861 100.326 117.514 100.367 118.167C100.578 116.672 100.456 116.386 100.001 117.307C99.2079 117.915 94.9029 120.668 94.3669 118.162C94.3799 122.166 94.3929 126.169 94.4069 130.173C94.4899 129.843 94.5729 129.514 94.6569 129.184C94.3399 129.448 94.0229 129.712 93.7069 129.976C94.1279 130.393 94.4839 130.857 94.7749 131.368C95.9749 133.466 96.0999 131.766 95.1489 126.268C94.5869 126.843 94.3929 128.043 93.8759 128.734C92.3609 130.764 90.1919 131.919 87.6999 132.211C83.0899 132.751 78.8199 130.255 76.9069 126.1C76.6889 125.751 76.4809 125.756 76.2809 126.115C73.9359 131.892 70.4634 139.549 63.0295 139.227C56.7735 138.957 54.9015 131.409 51.7913 127.201C51.5732 126.851 51.3639 126.856 51.1633 127.217C47.8376 132.891 43.3281 137.583 37.6309 140.92C35.6914 142.056 21.1651 149.039 20.0905 145.011C20.3228 148.526 20.5551 152.042 20.7874 155.558C20.8801 154.202 23.4729 150.407 24.1345 149.021C25.4565 146.252 26.7922 143.489 28.1237 140.725C29.294 138.295 28.8747 134.667 28.6875 132.063C28.6415 131.421 27.7121 126.2 27.2005 127.189Z" fill="#04685C"/>
</svg>
