<svg width="832" height="964" viewBox="0 0 832 964" fill="none" xmlns="http://www.w3.org/2000/svg">
<rect width="832" height="964" fill="#9CCECB"/>
<mask id="mask0_39_287" style="mask-type:alpha" maskUnits="userSpaceOnUse" x="0" y="0" width="832" height="964">
<rect width="832" height="964" fill="white"/>
</mask>
<g mask="url(#mask0_39_287)">
<g clip-path="url(#clip0_39_287)">
<path d="M697.99 561.52H191.53V667.93C191.59 672.48 191.81 677.14 192.1 681.86C191.93 688.34 191.72 694.81 191.43 701.27C191.14 707.73 190.8 714.19 190.34 720.66C187.57 743.22 185.69 768.25 171.19 786.21C168.56 789.03 165.87 791.62 162.68 794.12C143.16 810.45 118.16 799.45 109.9 776.37C107.98 773.8 105.96 771.23 103.89 768.7C101.72 766.22 99.4901 763.77 97.1601 761.44C89.1601 755.44 79.1601 760.44 76.1601 768.44C74.5401 772.56 73.2501 776.74 72.2801 780.94C70.8001 814.19 80.6401 850.62 98.6301 880.09C101.2 884.3 103.94 888.36 106.83 892.24C131.17 928.44 180.17 924.44 218.61 924.06C223.36 923.99 228.11 923.93 232.86 923.9C261.35 923.7 289.82 924.39 317.79 924.31H697.98V561.52H697.99Z" fill="#3C3F48" stroke="#060404" stroke-miterlimit="10"/>
<path d="M817.85 780.95C816.88 776.74 815.6 772.57 813.97 768.45C810.97 760.45 800.97 755.45 792.97 761.45C790.64 763.78 788.41 766.23 786.24 768.71C784.17 771.24 782.15 773.8 780.23 776.38C771.97 799.45 746.97 810.45 727.45 794.13C724.27 791.63 721.57 789.04 718.94 786.22C704.45 768.26 702.57 743.23 699.79 720.67C699.34 714.2 698.98 707.74 698.7 701.28C698.42 694.82 698.21 688.36 698.03 681.87C698.31 677.14 698.53 672.49 698.6 667.94V561.53H191.53V667.94C191.59 672.49 191.81 677.15 192.1 681.87C191.93 688.35 191.72 694.82 191.43 701.28C191.15 707.74 190.8 714.2 190.34 720.67C187.57 743.23 185.69 768.26 171.19 786.22C168.56 789.04 165.86 791.63 162.68 794.13C143.16 810.46 118.16 799.46 109.9 776.38C107.98 773.81 105.96 771.24 103.89 768.71C101.72 766.23 99.4901 763.78 97.1601 761.45C89.1601 755.45 79.1601 760.45 76.1601 768.45C74.5401 772.57 73.2501 776.75 72.2801 780.95C71.5401 797.57 73.6301 815 78.1501 831.94C79.2801 836.18 80.5601 840.38 82.0301 844.53C103.16 891.45 153.16 928.45 206.34 924.22C210.49 924.18 214.61 924.1 218.61 924.06C223.36 923.99 228.11 923.93 232.86 923.9C261.35 923.7 289.82 924.39 317.79 924.31H669.03C679.81 924.34 691.15 924 702.09 922.81C739.17 918.44 780.17 902.44 797.85 868.74C802.49 859.68 806.4 850.14 809.51 840.37C815.72 820.82 818.71 800.34 817.84 780.95H817.85Z" fill="#3C3F48" stroke="#060404" stroke-miterlimit="10"/>
<path d="M233.2 562.18C240.17 594.45 230.17 635.45 198.17 647.45C168.17 659.45 140.17 633.45 130.17 606.45C117.17 568.45 126.17 510.45 172.17 502.45C194.17 498.45 214.17 515.45 223.6 534.59C227.93 542.68 231.25 551.99 233.2 562.18Z" fill="#F3BA8F"/>
<path d="M233.2 564.68C233.87 567.81 234.38 570.98 234.73 574.17C234.92 575.87 235.06 577.57 235.15 579.27C235.19 580.03 235.23 580.79 235.25 581.56C235.26 581.97 235.26 582.38 235.28 582.78C235.31 583.45 235.32 581.53 235.28 581.58C235.21 581.68 235.27 582.29 235.26 582.44C235.09 589.03 234.24 595.62 232.66 602.03C229.68 614.13 223.98 625.84 214.86 634.5C205.16 643.7 191.39 649.35 177.94 647.66C163.61 645.86 151.25 636.61 142.44 625.59C137.88 619.89 134.1 613.54 131.28 606.8C129.07 601.5 127.63 595.86 126.58 590.22C125.53 584.58 124.9 578.63 124.77 572.79C124.77 572.68 124.74 572.07 124.76 572.07C124.79 572.07 124.74 573.87 124.76 573.13C124.76 572.98 124.76 572.84 124.76 572.69C124.78 571.89 124.8 571.09 124.84 570.29C124.91 568.8 125 567.31 125.13 565.82C125.38 562.9 125.76 559.99 126.27 557.1C128.21 546.09 132.07 535.22 138.61 526.07C145.15 516.92 154.13 510.17 164.75 506.78C171.25 504.7 178.1 503.76 184.87 504.91C192.06 506.13 198.76 509.41 204.55 513.78C217.01 523.18 225.12 537.35 229.91 551.99C231.27 556.15 232.35 560.4 233.18 564.7C232.87 563.1 233.49 561.31 233.18 559.7C231.46 550.78 228.63 542.06 224.53 533.94C220.98 526.92 216.82 520.39 211.3 514.74C205.78 509.09 199.66 504.76 192.55 502.03C185.44 499.3 177.92 498.77 170.47 500.29C158.95 502.65 148.63 508.77 141.12 517.83C133.68 526.8 129.18 537.91 126.83 549.24C125.62 555.06 124.96 561 124.78 566.94C124.58 573.56 124.66 580.21 125.35 586.8C125.97 592.61 127.04 598.37 128.61 604C130.49 610.72 133.37 617.08 137.06 623.01C144.9 635.59 156.61 646.88 171.08 651.22C185 655.39 199.93 651.49 211.22 642.64C221.47 634.61 228.11 622.85 231.72 610.49C233.59 604.07 234.68 597.44 235.1 590.77C235.55 583.62 235.49 576.32 234.71 569.19C234.36 566 233.85 562.84 233.18 559.7C233.52 561.29 232.84 563.1 233.18 564.7L233.2 564.68Z" fill="#0C0C0C"/>
<path d="M172.62 539.65C161.18 538.45 146.18 539.45 145.18 552.45C142.18 573.45 153.18 593.45 168.18 607.45C170.18 599.45 181.18 598.45 187.18 602.45C192.18 606.45 193.18 612.45 190.95 617.16" fill="#D78864"/>
<path d="M172.62 537.15C165.32 536.4 156.17 536.06 149.99 540.74C146.81 543.15 145.59 546.52 145.13 550.36C144.49 555.7 144.41 561.24 144.91 566.6C145.89 577.21 150.16 587.29 156.15 596.03C159.18 600.44 162.65 604.54 166.46 608.3C166.87 608.7 167.38 609.42 167.89 609.68C168.4 609.94 168.16 609.95 168.34 609.38C168.4 609.2 168.46 609.01 168.53 608.83C168.88 607.93 169.38 607.09 170 606.35C171.17 604.98 172.74 604.01 174.43 603.42C178.33 602.06 183.04 602.5 186.61 604.6C188.87 605.93 190.61 608.44 191.44 610.89C191.66 611.53 191.82 612.2 191.93 612.87C191.96 613.09 191.99 613.31 192.01 613.54C192.28 616.34 192.27 608.2 192.01 610.86C191.88 612.18 191.5 613.46 190.95 614.66C190.68 615.24 190.93 616.52 190.93 617.16C190.93 617.75 190.93 618.34 190.93 618.93C190.93 619.11 191.02 619.51 190.95 619.66C191.93 617.51 192.09 615.36 192.1 613.03C192.1 610.5 192.23 607.98 191.34 605.57C189.77 601.33 186.2 598.65 181.83 597.9C178.28 597.29 174.27 597.82 171.37 600.07C170.7 600.59 170.1 601.2 169.6 601.89C169.33 602.26 169.09 602.65 168.89 603.06C168.66 603.51 168.57 604.12 168.31 604.53C168.05 604.94 168.5 605.04 167.9 604.69C167.71 604.58 167.49 604.3 167.32 604.14C166.84 603.68 166.37 603.21 165.9 602.74C164.96 601.8 164.04 600.83 163.14 599.84C155.99 591.97 150.16 582.69 147.06 572.47C146.29 569.94 145.7 567.37 145.3 564.76C145.12 563.58 144.98 562.4 144.88 561.21C144.82 560.44 144.78 559.68 144.74 558.91C144.66 557.13 144.66 561.92 144.73 560.4C144.75 559.9 144.77 559.41 144.79 558.91C145.04 554.76 145.42 550.39 148.38 547.2C151.15 544.21 155.26 542.86 159.19 542.24C163.63 541.54 168.18 541.69 172.64 542.15C172.51 542.14 172.85 537.17 172.64 537.15H172.62Z" fill="#060404"/>
<path d="M656.86 562.18C649.89 594.45 659.89 635.45 691.89 647.45C721.89 659.45 749.89 633.45 759.89 606.45C772.89 568.45 763.89 510.45 717.89 502.45C695.89 498.45 675.89 515.45 666.46 534.59C662.13 542.68 658.81 551.99 656.86 562.18Z" fill="#F3BA8F"/>
<path d="M656.86 559.68C655.47 566.15 654.81 572.73 654.74 579.34C654.66 586.59 654.89 593.79 656.12 600.95C658.34 613.78 663.35 626.47 672.08 636.28C681.15 646.46 694.77 653.45 708.59 652.94C723.67 652.38 736.98 643.26 746.42 632.02C751.28 626.23 755.32 619.72 758.33 612.78C760.75 607.22 762.31 601.3 763.42 595.35C764.53 589.4 765.11 583.68 765.26 577.79C765.43 571.16 765.35 564.49 764.59 557.89C763.24 546.21 759.89 534.55 753.68 524.5C747.67 514.76 738.9 506.95 728.17 502.8C721.82 500.35 714.85 498.91 708.03 499.53C700.54 500.21 693.42 503.2 687.28 507.47C673.93 516.72 665.29 531.39 660.24 546.57C658.81 550.87 657.69 555.26 656.83 559.7C656.52 561.31 657.14 563.1 656.83 564.7C658.49 556.12 661.16 547.73 665.01 539.87C668.34 533.08 672.25 526.69 677.4 521.11C687.29 510.4 701.39 502.65 716.34 504.73C727.74 506.32 738.4 511.66 746.35 519.98C754.3 528.3 759 538.25 761.9 548.89C763.42 554.47 764.39 560.2 764.88 565.97C765.01 567.51 765.11 569.04 765.17 570.58C765.2 571.28 765.22 571.98 765.23 572.69C765.26 574.22 765.32 572.11 765.23 572.07C765.27 572.09 765.22 572.82 765.21 572.94C765.14 575.95 764.94 578.96 764.62 581.95C763.3 594.21 760.04 606.11 753.69 616.75C746.36 629.03 735.47 640.08 721.89 645.21C715.3 647.7 708.17 648.6 701.19 647.55C694.21 646.5 687.86 643.81 682.17 640.1C671.71 633.25 664.41 622.6 660.08 611.01C657.82 604.97 656.33 598.65 655.5 592.25C655.07 588.94 654.81 585.6 654.73 582.27C654.73 582.24 654.76 581.68 654.72 581.61C654.72 581.61 654.69 583.76 654.72 582.65C654.73 582.24 654.74 581.84 654.75 581.43C654.78 580.61 654.81 579.8 654.86 578.98C654.96 577.28 655.11 575.58 655.3 573.89C655.65 570.81 656.15 567.75 656.8 564.73C657.14 563.13 656.46 561.31 656.8 559.73L656.86 559.68Z" fill="#0C0C0C"/>
<path d="M717.44 539.65C728.88 538.45 743.88 539.45 744.88 552.45C747.88 573.45 736.88 593.45 721.88 607.45C719.88 599.45 708.88 598.45 702.88 602.45C697.88 606.45 696.88 612.45 699.11 617.16" fill="#D78864"/>
<path d="M717.44 542.15C724.69 541.4 733.67 541.08 739.87 545.58C742.95 547.82 744.44 551.07 744.87 554.78C745.03 556.15 745.2 557.52 745.29 558.9C745.31 559.24 745.33 559.57 745.34 559.91C745.38 560.92 745.15 562.25 745.36 558.5C745.32 559.28 745.29 560.06 745.23 560.84C745.03 563.46 744.62 566.06 744.03 568.63C741.65 579.03 736.33 588.61 729.56 596.8C727.86 598.86 726.06 600.84 724.17 602.73C723.75 603.15 723.32 603.57 722.89 603.99C722.67 604.21 722.43 604.51 722.17 604.68C721.57 605.06 722.04 604.98 721.8 604.66C721.56 604.34 721.48 603.7 721.3 603.31C721.07 602.81 720.79 602.33 720.47 601.89C718.31 598.9 714.49 597.67 710.93 597.67C706.18 597.67 701.79 599.7 699.46 603.97C698.18 606.32 697.97 608.75 697.97 611.37C697.97 614.26 697.9 616.98 699.12 619.66C699.07 619.55 699.14 618.97 699.14 618.93C699.14 618.34 699.14 617.75 699.14 617.16C699.14 616.49 699.4 615.28 699.12 614.66C698.66 613.65 698.32 612.61 698.14 611.51C698.11 611.29 698.08 611.07 698.05 610.85C697.76 608.03 697.77 616.36 698.05 613.53C698.1 612.97 698.2 612.42 698.33 611.87C698.92 609.45 700.29 607.28 702.12 605.6C704.92 603.03 709.39 602.29 713.05 602.8C716.71 603.31 720.15 605.28 721.53 608.82C721.6 609 721.66 609.18 721.72 609.37C721.84 609.75 721.72 609.89 722.03 609.81C722.48 609.68 723.13 608.77 723.47 608.43C724.47 607.45 725.44 606.45 726.4 605.42C728.22 603.46 729.95 601.41 731.57 599.28C738 590.85 742.88 581.04 744.66 570.53C745.57 565.14 745.63 559.53 745.31 554.09C745.07 549.98 744.73 545.61 741.88 542.39C739.03 539.17 735.01 537.91 731.05 537.27C726.56 536.54 721.96 536.69 717.46 537.15C717.25 537.17 717.59 542.14 717.46 542.15H717.44Z" fill="#060404"/>
<path d="M402.98 843.51C413.18 846.45 423.18 848.45 434.32 848.28C435.92 848.25 437.57 848.19 439.25 848.11C457.81 847.19 481.5 843.02 505.67 830.77C558.42 804.04 528.48 864.67 528.48 864.67L422.37 901.43L360.35 888.2L360.93 884.8L362.38 876.3C364.17 864.43 363.17 850.43 370.17 842.43C373.17 838.43 385.17 841.43 394.12 842.39C399.2 842.92 402.97 843.49 402.97 843.49L402.98 843.51Z" fill="#FDFDFE"/>
<path d="M689.29 482.98C681.73 454.71 668.95 428.08 652.54 403.65C647.07 395.51 641.19 387.61 634.97 379.98C626.37 367.66 616.57 356.37 605.79 346.17C595.01 335.97 583.28 326.87 570.81 318.93C485.17 265.44 365.17 272.44 287.98 340.3C278.03 348.75 268.75 357.99 260.33 367.93C194.17 453.45 178.17 582.45 231.27 678.65C237.65 689.57 244.84 700.03 252.74 709.94C260.64 719.85 269.25 729.19 278.47 737.87C315.34 772.59 361.88 796.67 411.44 803.27C410.06 812.46 409.31 822.28 409.31 832.47C409.31 884.37 428.65 926.45 452.51 926.45C476.37 926.45 495.71 884.37 495.71 832.47C495.71 820.35 494.65 808.76 492.73 798.12C503.24 795.86 513.62 792.97 523.8 789.48C572.16 772.86 616.24 742.46 647.3 702.47C654.04 693.46 660 683.9 665.09 673.74C690.16 622.46 686.16 565.46 691.98 510.12C691.8 500.96 690.98 491.88 689.27 482.99L689.29 482.98Z" fill="#F3BA8F"/>
<path d="M689.29 480.48C683.97 460.77 676.19 441.81 666.39 423.91C661.49 414.96 656.1 406.27 650.3 397.88C644.5 389.49 637.7 381.04 631.44 372.58C608.44 341.52 577.22 316.65 541.82 301.16C511.35 287.83 478.1 281.12 444.87 280.99C411.58 280.86 378.21 287.34 347.57 300.43C314.41 314.6 284.92 336.84 261.43 364.15C250.4 376.97 241.46 392.27 233.68 407.23C225.68 422.61 219.06 438.7 213.83 455.23C203.74 487.16 199.24 520.34 199.49 553.78C199.74 587.45 205.51 621.08 217.83 652.48C232.22 689.14 256.38 721.32 285.98 747.16C314.33 771.91 348.09 790.75 384.54 800.41C393.39 802.76 402.38 804.53 411.45 805.76V800.76C408.13 823.35 408.25 847.15 412.36 869.63C415.61 887.44 421.49 907.68 434.84 920.73C439.35 925.14 445.08 928.6 451.52 928.92C457.96 929.24 463.93 926.32 468.68 922.15C482.38 910.14 488.54 890.19 492.05 872.97C497.16 847.86 497.22 820.83 492.75 795.62V800.62C544.98 789.26 593.96 762.61 630.97 723.9C650.22 703.76 665.36 680.45 674.19 653.92C683.02 627.36 685.93 599.35 687.8 571.56C688.89 555.33 689.64 539.07 691.03 522.86C691.52 517.16 692.13 511.62 691.97 505.9C691.72 497.37 690.87 488.87 689.3 480.47C689.6 482.07 689 483.85 689.3 485.47C690.96 494.31 691.79 503.26 692 512.26V507.6C686.67 558.93 689.71 612.55 669.65 661.16C651.17 705.94 612.99 741.44 571.59 765.25C547.05 779.36 520.42 789.6 492.77 795.61C492.6 795.65 492.69 800.17 492.77 800.61C496.94 824.14 496.59 848.36 491.27 871.68C487.74 887.14 481.99 904.08 470.45 915.51C462.15 923.72 450.74 926.71 440.45 920.19C427.95 912.28 421.2 896.65 416.93 883.12C409.07 858.27 407.7 831.43 411.48 805.74C411.55 805.27 411.6 800.76 411.48 800.74C374.99 795.79 340.23 781.53 309.94 760.71C294.23 749.91 279.71 737.38 266.67 723.46C252.88 708.74 240.05 692.27 230.42 674.49C214.29 644.73 204.68 611.68 201.13 578.07C197.35 542.28 201.04 505.94 210.58 471.29C219.51 438.86 233.73 407.79 253.1 380.25C264.12 364.58 277.78 351.18 292.48 338.95C305.09 328.46 318.9 319.43 333.51 311.99C362.68 297.13 394.96 288.61 427.6 286.49C460.04 284.38 492.94 288.55 523.71 299.07C558.1 310.83 589.24 330.7 614.28 357.08C621.17 364.34 627.58 372.07 633.41 380.2C639.24 388.33 646.11 396.57 651.93 405.17C663.1 421.65 672.67 439.25 680.08 457.74C683.7 466.78 686.78 476.03 689.32 485.44C688.9 483.9 689.74 482 689.32 480.44L689.29 480.48Z" fill="#040000"/>
<path d="M691.38 339.52C687.98 331.26 684.05 323.3 679.65 315.65C675.24 307.98 670.36 300.62 665.06 293.51C643.79 264.39 616.4 240.5 585.47 222.61C575.12 216.65 564.38 211.35 553.27 206.74C545.24 203.27 537.06 200.23 528.77 197.6C520.46 194.98 512.03 192.78 503.51 190.99C383.17 162.45 248.17 223.45 195.8 335.35C190.61 345.68 186.1 356.38 182.35 367.4C178.6 378.41 175.6 389.74 173.42 401.33C171.91 408.4 170.69 415.56 169.78 422.81C167.36 436.29 165.74 449.94 164.88 463.68C160.57 532.38 175.21 603.2 204.23 664.44C209.45 674.05 215.81 683.27 222.55 692.12C225.78 696.37 242.26 710.86 242.26 715.45C242.26 707.45 244.26 699.45 241.26 692.45C235.93 679.12 231.04 665.56 227.39 651.95C206.17 591.45 234.17 516.45 291.34 485.44C302.75 479.11 315.47 474.3 329.12 471.27C340.79 465.47 352.3 459.24 363.56 452.58C382.43 441.87 400.23 429.62 416.84 415.97C425.14 409.15 433.15 401.97 440.84 394.47C448.53 386.97 455.91 379.13 462.96 370.97C469.06 361.71 476.11 353.08 482.87 344.27C489.63 335.46 496.1 326.46 501.05 316.46C502.63 325.46 504.17 334.46 506.12 343.32C508.08 352.18 510.49 360.9 513.81 369.35C516.73 377.73 520.04 385.9 523.7 393.9C541.96 433.78 568.91 469.93 600.16 500.71C608.57 508.96 617.32 516.9 626.34 524.52C635.36 532.14 644.66 539.46 654.16 546.46C655.78 548.4 657.25 550.4 658.55 552.47C659.86 554.53 661.03 556.66 662.1 558.85C669.48 573.35 671.33 588.78 670.27 604.19C669.92 609.32 669.24 614.46 668.34 619.55C666.66 631.92 663.9 644.14 660.16 656.08C659.23 659.06 658.23 662.03 657.18 664.97C656.3 667.53 655.41 670.09 654.49 672.63C653.57 675.17 652.63 677.71 651.66 680.23C645.37 694.93 638.8 710.28 629.26 723.22C629.49 722.72 629.81 722.16 630.06 721.65C629.37 722.8 628.91 724.05 628.34 725.28C631.23 719.11 641.86 712.37 646.67 707.26C652.7 700.85 658.46 694.19 663.86 687.24C703.98 635.66 723.63 569.26 726.74 504.56C727.23 494.36 727.27 484.14 726.85 473.91C724.15 432.48 717.15 390.48 698.45 353.49C696.23 348.83 693.84 344.19 691.35 339.54L691.38 339.52Z" fill="#3C3F48" stroke="#060404" stroke-miterlimit="10"/>
<path d="M266.45 540.63C267.17 562.45 273.17 585.45 289.33 602.03C296.64 609.97 305.37 616.43 315.06 620.89C324.76 625.36 335.42 627.84 346.62 627.84C391.41 627.84 427.71 588.14 427.71 539.17C427.71 514.68 418.63 492.52 403.96 476.47C396.62 468.45 387.88 461.95 378.13 457.45C363.15 449.95 346.16 448.71 330.34 452.46C314.53 456.21 299.89 464.98 289.71 477.53C282.59 485.85 276.84 495.61 272.85 506.31C268.86 517.01 266.59 528.62 266.44 540.63H266.45Z" fill="url(#paint0_radial_39_287)"/>
<path d="M266.45 543.04C267.05 560.49 270.89 578.25 280.35 593.13C285.23 600.82 291.68 607.67 298.79 613.34C305.9 619.01 314.64 623.85 323.66 626.74C339.66 631.88 357.19 631.47 372.92 625.57C386.39 620.52 398.24 611.66 407.28 600.52C416.86 588.73 423.26 574.5 426.06 559.58C427.62 551.27 427.9 542.85 427.69 534.41C427.47 525.32 426 516.27 423.26 507.6C417.9 490.7 407.66 475.34 393.64 464.41C386.17 458.59 377.51 453.87 368.47 451.03C359.16 448.1 349.25 447.27 339.57 448.35C321.71 450.33 304.47 458.71 292.32 472.01C279.15 486.42 270.61 504.61 267.64 523.89C266.9 528.72 266.52 533.59 266.45 538.47C266.43 539.61 266.43 540.75 266.45 541.89C266.45 542.12 266.47 543.68 266.48 542.79C266.77 523.01 272.92 503.28 284.29 487.05C289.33 479.86 295.27 473.24 302.34 467.98C309.41 462.72 317.22 458.82 325.55 456.27C334.49 453.53 343.94 452.4 353.27 453.12C362.87 453.86 371.87 456.74 380.44 461.05C396.36 469.05 409.18 482.41 417.32 498.18C421.29 505.87 424.14 514.11 425.84 522.59C426.76 527.17 427.34 531.82 427.58 536.49C427.61 537.05 427.63 537.62 427.65 538.18C427.67 538.84 427.5 540.88 427.69 538.48C427.61 539.48 427.64 540.51 427.59 541.51C427.49 543.58 427.32 545.66 427.09 547.72C425.39 562.64 420.17 577.13 411.71 589.56C403.75 601.25 392.96 611.03 380.28 617.36C366.57 624.21 350.93 626.76 335.76 624.55C326.38 623.18 317.3 620 309.07 615.31C301.02 610.72 294.02 604.72 287.78 597.89C276.01 584.99 269.82 568.1 267.51 550.99C266.94 546.75 266.6 542.49 266.45 538.22C266.44 537.89 266.42 538.63 266.43 538.47C266.41 538.97 266.42 539.47 266.42 539.96C266.42 540.98 266.4 542.01 266.44 543.04H266.45Z" fill="#060404"/>
<path d="M319.36 539.98C319.18 560.45 337.18 577.45 357.22 578.11C359.68 578.11 362.08 577.84 364.4 577.32C378.6 574.14 389.73 561.72 392.29 546.06C392.66 543.82 392.85 541.52 392.85 539.16C392.19 523.45 383.19 507.45 367.19 501.45C347.19 494.45 328.19 509.45 321.54 527.83C320.8 530.02 320.22 532.3 319.83 534.67C319.55 536.42 319.4 538.19 319.37 539.98H319.36Z" fill="#040000"/>
<path d="M319.33 539.31C319.32 543.43 319.42 547.46 320.46 551.47C321.4 555.12 322.93 558.6 324.93 561.79C328.94 568.18 334.8 573.37 341.57 576.66C348.95 580.25 357.37 581.64 365.39 579.57C372.71 577.68 379.2 573.27 383.93 567.41C389.08 561.03 392.08 553.07 392.71 544.91C393.34 536.75 392.48 528.35 389.21 520.68C383 506.12 368.14 494.75 351.76 497.65C335.83 500.47 323.15 515.3 320.06 530.74C319.59 533.07 319.38 535.43 319.33 537.81C319.31 538.95 319.31 540.09 319.33 541.23C319.33 541.46 319.35 543.02 319.36 542.13C319.68 526.19 330.83 510.13 345.73 504.35C352.71 501.64 360.68 501.39 367.7 504.14C374.72 506.89 380.78 511.89 385.07 518.12C389.22 524.15 391.78 531.26 392.59 538.52C392.64 538.98 392.69 539.44 392.72 539.91C392.75 540.23 392.76 540.54 392.79 540.86C392.88 542.03 392.47 543 392.8 538.14C392.71 539.49 392.65 540.84 392.47 542.19C392.2 544.23 391.79 546.26 391.22 548.24C390.2 551.81 388.7 555.24 386.75 558.4C382.95 564.55 377.44 569.64 370.84 572.63C363.58 575.93 355.6 576.31 347.98 574.12C334.19 570.14 322.69 558.51 319.96 544.27C319.8 543.42 319.66 542.55 319.57 541.69C319.51 541.14 319.46 540.59 319.42 540.03C319.41 539.85 319.4 539.68 319.39 539.5C319.36 538.8 319.38 537.62 319.37 540.62C319.37 539.64 319.54 538.5 319.35 537.54C319.3 537.29 319.33 537.8 319.33 537.79C319.3 538.29 319.33 538.79 319.32 539.28L319.33 539.31Z" fill="#060404"/>
<path d="M271.73 510.14C266.59 511.57 261.44 510.55 257.16 507.38C252.88 504.21 249.79 499.51 247.56 494.71C246.32 492.03 245.33 489.24 244.6 486.39C244.78 487.1 244.58 488.15 244.58 488.89C244.58 489.66 244.41 490.63 244.6 491.39C245.91 496.48 248.01 501.44 250.99 505.78C253.97 510.12 257.82 513.82 262.84 515.25C265.77 516.08 268.81 515.96 271.73 515.15C271.86 515.11 271.75 512.86 271.75 512.65C271.75 512.45 271.63 510.18 271.73 510.15V510.14Z" fill="#060404"/>
<path d="M278.36 492.57C275.2 494.06 271.9 493.75 269.33 491.32C266.76 488.89 265.31 485.39 264.38 482.05C263.84 480.13 263.48 478.15 263.31 476.16C263.45 477.81 263.17 479.5 263.31 481.16C263.61 484.7 264.49 488.25 266.01 491.47C267.36 494.33 269.46 497.39 272.67 498.29C274.6 498.83 276.58 498.41 278.36 497.57C278.54 497.48 278.39 495.32 278.38 495.07C278.38 494.48 278.38 493.89 278.38 493.3C278.38 493.22 278.33 492.58 278.36 492.57V492.57Z" fill="#060404"/>
<path d="M632.21 540.63C631.49 562.45 625.49 585.45 609.33 602.03C602.02 609.97 593.29 616.43 583.6 620.89C573.9 625.36 563.24 627.84 552.04 627.84C507.25 627.84 470.95 588.14 470.95 539.17C470.95 514.68 480.03 492.52 494.7 476.47C502.04 468.45 510.78 461.95 520.53 457.45C535.51 449.95 552.5 448.71 568.32 452.46C584.14 456.21 598.77 464.98 608.95 477.53C616.07 485.85 621.82 495.61 625.81 506.31C629.8 517.01 632.07 528.62 632.22 540.63H632.21Z" fill="white"/>
<path d="M632.2 538.21C631.6 555.46 627.79 573.02 618.53 587.79C613.8 595.33 607.58 602.05 600.69 607.67C593.8 613.29 585.27 618.22 576.46 621.25C560.8 626.64 543.53 626.67 527.86 621.33C514.47 616.76 502.54 608.43 493.27 597.78C483.61 586.68 476.87 573.18 473.5 558.88C472.62 555.14 471.96 551.36 471.54 547.54C471.31 545.48 471.15 543.4 471.05 541.33C471.03 540.84 471.01 540.36 470.99 539.87C470.99 539.58 470.95 537.64 470.96 539.05C470.96 540.55 471 538.24 471.01 537.97C471.03 537.34 471.06 536.7 471.1 536.07C471.61 527.05 473.39 518.09 476.41 509.58C482.22 493.22 492.69 478.48 506.7 468.14C514.22 462.59 522.87 458.11 531.87 455.54C541.04 452.92 550.72 452.31 560.17 453.49C577.57 455.67 594.31 463.93 606.21 476.88C619.09 490.9 627.57 508.55 630.77 527.3C631.64 532.42 632.12 537.6 632.2 542.8C632.21 543.75 632.23 541.99 632.23 541.9C632.23 540.76 632.23 539.62 632.23 538.48C631.94 518.57 626.03 498.81 614.64 482.41C609.51 475.02 603.43 468.24 596.19 462.87C588.95 457.5 581.04 453.63 572.57 451.1C563.38 448.36 553.67 447.32 544.12 448.24C534.57 449.16 525.05 452.38 516.37 457.03C500.5 465.55 487.89 479.45 480.15 495.64C472.41 511.83 469.92 530.4 471.2 548.51C472.28 563.79 476.99 578.79 485.14 591.78C492.85 604.06 503.59 614.46 516.39 621.33C529.97 628.61 545.6 631.64 560.9 629.82C570.57 628.67 579.97 625.61 588.5 620.93C596.84 616.35 604.02 610.29 610.47 603.34C622.64 590.25 628.96 572.91 631.23 555.41C631.76 551.31 632.08 547.18 632.22 543.04C632.26 542.02 632.24 540.99 632.24 539.96C632.24 539.46 632.25 538.96 632.23 538.47C632.23 538.43 632.22 537.98 632.21 538.22L632.2 538.21Z" fill="#060404"/>
<path d="M579.31 539.98C579.49 560.45 561.49 577.45 541.45 578.11C538.99 578.11 536.59 577.84 534.27 577.32C520.07 574.14 508.94 561.72 506.38 546.06C506.01 543.82 505.82 541.52 505.82 539.16C506.48 523.45 515.48 507.45 531.48 501.45C551.48 494.45 570.48 509.45 577.13 527.83C577.87 530.02 578.45 532.3 578.84 534.67C579.12 536.42 579.27 538.19 579.3 539.98H579.31Z" fill="#040000"/>
<path d="M579.28 540.64C579.27 537.06 579.21 540.57 579.1 541.53C578.99 542.49 578.84 543.49 578.65 544.45C578.31 546.2 577.83 547.91 577.23 549.59C576.02 552.97 574.3 556.16 572.19 559.05C567.95 564.87 562.12 569.51 555.52 572.38C548.34 575.51 540.38 576.52 532.76 574.44C525.81 572.54 519.63 568.34 515.04 562.81C510.19 556.96 507.15 549.72 506.17 542.19C505.99 540.84 505.96 539.49 505.84 538.14C505.8 537.68 505.71 542.58 505.85 540.86C505.87 540.64 505.88 540.43 505.89 540.21C505.93 539.65 505.98 539.08 506.05 538.52C506.26 536.67 506.58 534.82 507.01 533.01C507.85 529.47 509.11 526.04 510.77 522.8C517.72 509.3 532.38 499.54 547.91 502.84C562.78 506 574.75 519.64 578.22 534.12C578.85 536.75 579.23 539.42 579.28 542.12C579.3 543.07 579.31 541.31 579.31 541.22C579.31 540.08 579.32 538.94 579.31 537.8C578.98 521.35 567.91 504.79 552.26 499.09C544.72 496.34 536.37 496.58 529.06 499.93C521.75 503.28 515.97 508.84 511.97 515.64C507.97 522.44 505.88 529.81 505.8 537.37C505.74 542.24 505.87 547.06 507.05 551.82C508 555.67 509.51 559.39 511.53 562.8C515.39 569.32 521.17 574.7 528.12 577.78C535.75 581.15 544.11 581.29 551.99 578.72C566.39 574.02 577.9 560.95 579.19 545.65C579.37 543.54 579.34 541.42 579.33 539.3C579.33 538.8 579.34 538.3 579.32 537.81C579.32 537.91 579.33 537.26 579.3 537.56C579.19 538.56 579.28 539.64 579.28 540.64V540.64Z" fill="#060404"/>
<path d="M626.93 515.14C632.07 516.57 637.22 515.55 641.5 512.38C645.78 509.21 648.87 504.51 651.1 499.71C652.34 497.03 653.33 494.24 654.06 491.39C654.25 490.65 654.08 489.65 654.08 488.89C654.08 488.13 653.87 487.12 654.06 486.39C652.75 491.48 650.65 496.44 647.67 500.78C644.69 505.12 640.84 508.82 635.82 510.25C632.89 511.08 629.85 510.96 626.93 510.15C627 510.17 626.91 512.45 626.91 512.65C626.91 512.87 626.78 515.11 626.93 515.15V515.14Z" fill="#060404"/>
<path d="M620.31 497.57C623.47 499.06 626.77 498.75 629.34 496.32C631.91 493.89 633.36 490.39 634.29 487.05C634.83 485.13 635.19 483.15 635.36 481.16C635.5 479.5 635.22 477.81 635.36 476.16C635.06 479.7 634.18 483.25 632.66 486.47C631.31 489.33 629.21 492.39 626 493.29C624.07 493.83 622.09 493.41 620.31 492.57C620.44 492.63 620.28 494.84 620.29 495.07C620.29 495.66 620.29 496.25 620.29 496.84C620.29 496.93 620.25 497.55 620.31 497.57Z" fill="#060404"/>
<path d="M414.9 649.99C419.58 660.63 428.04 670.29 438.67 675.27C443.89 677.72 449.67 678.61 455.27 676.99C460.23 675.56 464.54 672.47 468.21 668.91C472.65 664.61 476.31 659.58 479.76 654.48C480.05 654.05 479.78 652.5 479.78 651.98C479.78 651.39 479.78 650.8 479.78 650.21C479.78 650.07 479.69 649.58 479.76 649.48C473.95 658.06 467.02 667.7 456.92 671.45C445.47 675.7 433.99 669.11 425.96 661.15C421.29 656.52 417.53 651.02 414.89 644.99C414.94 645.1 414.87 645.67 414.87 645.72C414.87 646.31 414.87 646.9 414.87 647.49C414.87 648.17 414.62 649.36 414.89 649.99H414.9Z" fill="#060404"/>
<path d="M508.18 402.6C518.14 401.01 527.93 398.45 537.96 397.21C547.99 395.97 558.03 395.84 566.91 400.31C572.08 402.91 576.19 407.02 579.18 411.95C579.14 411.88 579.2 411.21 579.2 411.22C579.2 410.63 579.2 410.04 579.2 409.45C579.2 408.78 579.46 407.57 579.18 406.95C576.57 401.29 572.12 396.93 566.55 394.17C560.82 391.33 554.39 390.13 548.06 389.62C541.33 389.08 534.56 389.32 527.83 389.81C524.65 390.04 521.47 390.34 518.3 390.65C514.53 391.01 510.82 391.39 507.18 392.49C497.73 395.32 489.34 401.31 483.18 408.95C482.89 409.31 483.16 410.99 483.16 411.45C483.16 412.04 483.16 412.63 483.16 413.22C483.16 413.33 483.23 413.9 483.18 413.95C493.48 404.91 505.98 398.71 519.14 395.05C525.55 393.27 532.13 392.07 538.76 391.41C541.79 391.11 544.89 390.77 547.93 391.1C550.56 391.38 553.16 392.05 555.59 393.09C561.04 395.43 565.5 399.85 566.18 405.95V400.95C548.56 390.62 525.63 391.04 507.26 399.23C502.2 401.49 497.43 404.39 493.18 407.95C492.93 408.16 493.16 410.1 493.16 410.45C493.16 410.78 493.43 412.76 493.18 412.95C501.47 406.44 511.55 402.16 521.79 399.85C532.31 397.47 543.74 397.08 554.04 400.67C559.61 402.61 564.66 405.79 568.67 410.13C568.43 409.87 568.69 408.02 568.69 407.63C568.69 407.04 568.69 406.45 568.69 405.86C568.69 405.72 568.76 405.22 568.67 405.13C561.38 397.25 550.95 393.66 540.42 393.12C529.39 392.56 518.19 394.97 508.07 399.29C502.78 401.55 497.71 404.39 493.18 407.95V412.95C508.65 400.01 531.02 395.32 550.56 399.81C556.04 401.07 561.33 403.11 566.18 405.95C566.02 405.86 566.2 403.71 566.2 403.45C566.2 402.63 566.27 401.77 566.18 400.95C565.58 395.56 562 391.39 557.31 388.91C552.22 386.22 546.81 385.75 541.17 386.2C527.76 387.25 514.42 390.5 502.29 396.37C495.4 399.7 488.94 403.9 483.18 408.96V413.96C488.7 407.12 495.96 401.64 504.19 398.51C510.92 395.95 518.15 395.61 525.26 395.02C538.14 393.95 552.3 393.16 564.49 398.24C570.94 400.93 576.22 405.56 579.17 411.95V406.95C576.49 402.54 572.92 398.75 568.44 396.14C564.36 393.77 559.76 392.47 555.1 391.89C544.91 390.63 534.55 392.48 524.57 394.44C519.11 395.52 513.67 396.71 508.17 397.59C507.87 397.64 508.39 402.55 508.17 402.59L508.18 402.6Z" fill="#060404"/>
<path d="M371.18 396.97C361.41 396.09 351.84 393.71 342.11 392.51C332.85 391.37 322.81 391.07 314.26 395.39C309.15 397.97 305.13 402.08 302.18 406.95V411.95C304.3 405.95 308.47 401.2 314.13 398.3C319.79 395.4 326.4 394.3 332.76 393.88C339.47 393.43 346.2 393.74 352.9 394.08C355.87 394.23 358.91 394.18 361.86 394.49C366.08 394.94 370.36 396.07 374.36 397.43C383.73 400.61 391.99 406.21 398.17 413.96V408.96C386.93 399.99 374.35 392.54 360.56 388.27C350.11 385.03 337.85 382.99 327.39 387.26C321.46 389.68 316.94 394.23 314.16 399.96C313.89 400.52 314.14 401.84 314.14 402.46C314.14 402.71 314.34 404.87 314.16 404.96C323.6 400.26 333.92 396.59 344.61 396.85C347.36 396.92 350 397.37 352.7 397.8C355.1 398.18 357.48 398.58 359.84 399.16C364.68 400.34 369.41 402.01 373.92 404.13C378.99 406.52 383.77 409.48 388.16 412.96V407.96C378.25 401.68 367.37 396.59 355.92 393.89C345.93 391.53 335.09 391.16 325.39 394.95C319.96 397.07 315.19 400.5 311.31 404.85C311.03 405.17 311.29 406.92 311.29 407.35C311.29 407.94 311.29 408.53 311.29 409.12C311.29 409.24 311.37 409.78 311.31 409.85C318.24 402.07 327.81 397.88 338.13 397.22C349.39 396.5 360.61 399.52 370.9 403.87C376.89 406.41 382.65 409.48 388.15 412.96C387.98 412.85 388.17 410.73 388.17 410.46C388.17 410.1 388.44 408.19 388.15 407.96C380.42 401.82 371.42 397.3 361.9 394.69C359.42 394.01 356.91 393.46 354.38 393.05C351.85 392.64 349.38 392.16 346.85 391.96C341.61 391.56 336.34 392.15 331.25 393.41C325.31 394.88 319.62 397.23 314.15 399.95V404.95C316.63 399.83 320.5 395.58 325.63 393.04C330.49 390.63 335.98 389.82 341.36 389.9C352.57 390.07 363.75 393.66 373.79 398.46C382.51 402.63 390.6 407.93 398.15 413.95C397.95 413.79 398.17 411.76 398.17 411.45C398.17 410.86 398.17 410.27 398.17 409.68C398.17 409.53 398.24 409.06 398.15 408.95C392.65 402.06 385.5 396.81 377.32 393.53C373.36 391.94 369.22 390.8 365.03 390.02C361.73 389.4 358.44 389.36 355.1 389.19C348.45 388.85 341.78 388.48 335.12 388.75C328.46 389.02 322.13 389.82 316.17 392.34C309.56 395.13 304.56 400.16 302.15 406.95C301.91 407.61 302.13 408.75 302.13 409.45C302.13 410.04 302.13 410.63 302.13 411.22C302.13 411.37 302.22 411.84 302.15 411.95C304.79 407.6 308.27 403.82 312.67 401.24C316.59 398.94 321.02 397.68 325.51 397.14C335.33 395.97 345.29 397.84 354.93 399.54C360.31 400.49 365.7 401.48 371.15 401.97C371.04 401.97 371.34 396.99 371.15 396.97H371.18Z" fill="#060404"/>
<path d="M665.86 752.37C664.78 759.66 664.71 767.22 665.25 774.57C665.79 781.92 667.34 789.65 669.54 796.92C673.54 810.19 679.53 822.99 686.76 834.8C699.6 855.76 717.91 874.91 741.78 882.76C757.96 888.08 775.42 887.41 791.73 883.01C791.85 882.98 791.75 880.72 791.75 880.51C791.75 880.31 791.63 878.03 791.73 878.01C777.37 881.89 762.06 882.93 747.52 879.4C736.11 876.63 725.54 871.12 716.3 863.91C696.84 848.72 682.99 826.75 673.84 804.06C670.81 796.54 668.33 788.78 666.78 780.81C665.97 776.68 665.42 772.49 665.18 768.29C665.15 767.84 665.13 767.39 665.11 766.93C665.09 766.54 665.07 764.18 665.06 766.17C665.06 768.04 665.07 766.27 665.09 765.86C665.11 765.26 665.14 764.65 665.17 764.05C665.3 761.81 665.54 759.58 665.87 757.35C666.11 755.71 665.63 753.97 665.87 752.35L665.86 752.37Z" fill="#060404"/>
<path d="M407.68 842.61C395.89 826.24 381.52 811.77 365.24 799.87C361.18 796.91 357.01 794.1 352.73 791.47C348.45 788.84 343.79 786.08 339.03 784C334.27 781.92 329.26 780.55 324.08 780.78C319.61 780.98 315.25 782.32 311.32 784.42C292.59 794.41 287.82 816.54 285.7 835.89C283.48 856.2 282.99 876.96 285.16 897.29C287.33 917.62 292.45 937.45 301.81 955.53C302.98 957.79 304.22 960.02 305.51 962.21C305.46 962.13 305.53 961.47 305.53 961.48C305.53 960.89 305.53 960.3 305.53 959.71C305.53 959.12 305.53 958.53 305.53 957.94C305.53 957.76 305.6 957.35 305.51 957.21C295.45 940.17 289.37 921.1 286.37 901.59C283.37 882.08 283.47 862.05 285.57 842.16C287.67 822.27 291.62 801.89 308.89 790.84C312.5 788.53 316.53 786.85 320.77 786.13C325.53 785.33 330.33 785.9 334.9 787.4C339.8 789.01 344.36 791.52 348.8 794.1C352.96 796.52 357.03 799.1 360.99 801.84C377.07 812.93 391.45 826.49 403.44 841.91C404.9 843.78 406.31 845.68 407.7 847.61C407.66 847.55 407.72 846.85 407.72 846.88C407.72 846.29 407.72 845.7 407.72 845.11C407.72 844.52 407.72 843.93 407.72 843.34C407.72 843.18 407.79 842.73 407.7 842.61H407.68Z" fill="#060404"/>
<path d="M507.25 843.53C506.9 842.15 506.64 840.75 506.51 839.33L506.46 838.66C506.4 837.3 506.39 838.16 506.43 841.22C506.45 840.97 506.45 840.72 506.46 840.47C506.51 839.63 506.61 838.79 506.74 837.96C507.18 835.21 508.04 832.55 509.18 830.02C511.63 824.58 515.32 819.75 519.43 815.45C523.54 811.15 528.34 807.24 533.23 803.67C538.39 799.9 543.71 796.34 549.16 793C570.71 779.79 594.37 770.01 618.97 764.17C625.13 762.71 631.35 761.48 637.6 760.52C644.31 759.49 651.19 758.77 657.95 759.74C669.42 761.39 678.89 768.63 685.12 778.19C692.15 788.98 694.59 801.99 695.21 814.67C695.83 827.35 694.69 841.22 692.79 854.32C689 880.46 681.17 906.02 669.58 929.76C668.13 932.73 666.62 935.67 665.06 938.58C664.78 939.1 665.04 940.49 665.04 941.08C665.04 941.67 665.04 942.26 665.04 942.85C665.04 943.01 665.13 943.45 665.06 943.58C678.19 919.1 687.27 892.5 691.88 865.11C694.14 851.69 695.3 838.11 695.41 824.5C695.52 810.89 695.25 796.28 690.17 783.11C686.05 772.43 678.42 762.56 667.87 757.65C655.26 751.77 640.45 754.72 627.38 757.33C601.46 762.5 576.42 772.03 553.59 785.35C547.88 788.68 542.31 792.25 536.9 796.04C531.49 799.83 526.53 803.54 521.91 807.97C517.29 812.4 513.32 817.09 510.38 822.59C508.99 825.18 507.88 827.92 507.19 830.77C506.5 833.62 506.39 836.59 506.39 839.58C506.39 842.57 506.49 845.57 507.25 848.54C507.07 847.83 507.27 846.78 507.27 846.04C507.27 845.27 507.44 844.3 507.25 843.54V843.53Z" fill="#060404"/>
<path d="M406.7 845.11C384.18 818.45 354.18 777.45 319.18 787.45C300.06 793.07 290.21 807 285.24 824.62C283.58 830.49 282.47 836.78 281.73 843.3C276.17 912.45 280.17 982.45 294.75 1049.03" fill="white"/>
<path d="M406.7 842.61C392.41 825.68 378.72 807.3 360.39 794.46C352.14 788.68 342.66 784.12 332.47 783.49C322.28 782.86 311.2 786.66 302.98 793.17C282.87 809.11 281.62 837.62 280.37 861.1C278.76 891.29 278.86 921.63 280.82 951.8C282.76 981.68 286.59 1011.44 292.49 1040.8C293.21 1044.38 293.96 1047.95 294.74 1051.52C294.39 1049.94 295.09 1048.12 294.74 1046.52C288.47 1017.83 284.18 988.71 281.75 959.45C279.29 929.85 278.75 900.14 280.15 870.47C280.83 855.96 281.26 841.18 285.23 827.12C287.98 817.38 292.51 807.94 299.9 800.86C307.32 793.75 317.57 789.05 327.87 788.48C337.62 787.94 347.05 791.25 355.33 796.19C364.66 801.75 372.78 809.21 380.27 817.02C387.76 824.83 394.88 833.44 401.9 841.89C403.49 843.81 405.09 845.72 406.69 847.62C406.44 847.33 406.71 845.53 406.71 845.12C406.71 844.53 406.71 843.94 406.71 843.35C406.71 843.21 406.78 842.72 406.69 842.62L406.7 842.61Z" fill="#060404"/>
<path d="M507.25 846.03C502.81 829.27 516.78 813.51 530.63 803.09C561.75 779.7 598.67 764.09 637.14 758.09C645.85 756.73 654.92 755.88 663.36 758.42C675.54 762.1 684.82 772.57 689.67 784.34C694.52 796.11 695.47 809.1 695.41 821.83C695.29 846.69 691.45 871.51 684.17 895.27C682.96 899.23 681.65 903.18 680.26 907.12C678.58 912.01 676.82 916.86 674.98 921.71C656.18 967.44 637.18 1012.44 614.73 1056.59" fill="white"/>
<path d="M507.25 843.53C507.02 842.63 506.82 841.72 506.69 840.8C506.62 840.35 506.57 839.9 506.53 839.44L506.47 838.63C506.41 837.32 506.41 838.03 506.47 840.76C506.66 838.85 506.88 836.99 507.37 835.13C508.28 831.72 509.77 828.49 511.6 825.49C515.57 818.97 521.03 813.41 526.88 808.57C539.14 798.42 553.15 790.01 567.36 782.92C581.63 775.8 596.61 770.1 612.01 765.94C619.79 763.84 627.68 762.13 635.63 760.84C644.05 759.47 652.83 758.39 661.25 760.36C675.17 763.62 685.35 775.42 690.28 788.37C696.66 805.13 695.96 823.95 694.33 841.5C692.69 859.07 689.21 876.46 684.01 893.32C678.69 910.56 671.76 927.17 664.82 943.81C650.97 976.98 636.62 1009.95 620.71 1042.19C618.74 1046.18 616.75 1050.15 614.74 1054.11C614.46 1054.65 614.72 1056 614.72 1056.61C614.72 1057.22 615.02 1058.56 614.74 1059.11C631.82 1025.5 647.09 991.01 661.69 956.26C668.91 939.08 676.22 921.95 682.1 904.25C687.98 886.55 692 868.39 693.98 849.9C694.93 841 695.39 832.05 695.43 823.1C695.47 814.15 695.35 805.62 693.89 797C691.36 782.03 684.23 766.93 670.61 759.08C663.25 754.84 654.84 753.87 646.48 754.47C637.91 755.09 629.34 756.79 620.97 758.7C604.59 762.45 588.6 767.93 573.36 775.01C558.12 782.09 543.9 790.58 530.62 800.59C518.93 809.4 506.58 821.86 506.38 837.47C506.33 841.2 506.3 844.88 507.23 848.53C506.83 846.97 507.63 845.1 507.23 843.53H507.25Z" fill="#060404"/>
<path d="M401.15 840.1C398.07 848.23 402.32 857.8 409.28 863.01C416.24 868.23 425.26 869.85 433.95 870.12C462.94 871.04 491.18 858.58 513.83 840.46C526.04 830.7 537.28 818.66 541.76 803.69L654.75 910.53V941.08H317.41L401.15 840.1V840.1Z" fill="white"/>
<path d="M347 933C338.2 935.4 339.333 956 341 966H568C566.667 957 561.2 937.8 550 933C536 927 358 930 347 933Z" fill="white"/>
<path d="M401.15 837.6C400.1 840.48 400.1 843.38 400.11 846.42C400.11 849.25 400.32 851.95 401.26 854.64C403.21 860.18 407.3 864.67 412.38 867.54C417.81 870.6 424.05 871.92 430.21 872.42C436.37 872.92 443.1 872.68 449.47 871.87C474.84 868.64 498.68 856.17 517.89 839.6C528.35 830.58 537.68 819.61 541.76 806.2C541.97 805.5 541.78 804.43 541.78 803.7C541.78 802.97 541.54 801.9 541.76 801.2C538.29 812.63 530.96 822.33 522.42 830.5C513.57 838.96 503.43 846.23 492.73 852.18C481.91 858.19 470.27 862.82 458.14 865.41C452.12 866.69 445.99 867.46 439.84 867.65C433.73 867.83 427.51 867.55 421.56 866.1C415.26 864.56 409.15 861.56 405.03 856.42C403.11 854.02 401.63 851.24 400.81 848.27C400.62 847.57 400.46 846.86 400.35 846.14C400.29 845.78 400.25 845.43 400.21 845.07L400.16 844.44C400.09 842.95 400.09 843.96 400.14 847.47C400.27 845.79 400.56 844.21 401.14 842.63C401.38 841.97 401.16 840.83 401.16 840.13C401.16 839.43 400.9 838.28 401.14 837.63L401.15 837.6Z" fill="#060404"/>
<path d="M430.52 621.23C432.91 617.72 435.29 614.21 437.68 610.69L441.33 605.32C442.35 603.82 443.32 602.1 444.91 601.14C447.52 599.56 450.61 600.76 452.78 602.53C455.28 604.56 456.59 607.32 457.92 610.17C459.39 613.33 461 616.61 464.13 618.42C463.97 618.33 464.15 616.18 464.15 615.92C464.15 615.63 464.37 613.56 464.13 613.42C458.47 610.16 458.14 602.74 453.73 598.39C451.76 596.45 448.8 594.7 445.96 595.65C444.3 596.2 443.21 597.56 442.26 598.95C441.09 600.64 439.95 602.35 438.8 604.04C436.04 608.1 433.28 612.17 430.52 616.23C430.23 616.66 430.5 618.21 430.5 618.73C430.5 619.32 430.5 619.91 430.5 620.5C430.5 620.64 430.59 621.13 430.52 621.23V621.23Z" fill="#060404"/>
<path d="M430.52 618.73C434.36 613.08 438.19 607.43 442.03 601.79C442.8 600.65 443.61 599.48 444.76 598.73C448.77 596.12 453.98 600.01 456.25 604.22C458.52 608.43 459.95 613.61 464.14 615.92" fill="#DF8C66"/>
<path d="M502.09 247.57C513.46 229.92 528.31 214.77 545.35 202.54C561.85 190.7 580.35 181.44 599.48 174.68C619.08 167.76 639.89 162.87 660.7 162.02C672.11 161.56 683.54 162.08 694.9 163.19C706.26 164.3 716.59 166.02 727.19 168.98C737.2 171.78 746.95 175.49 756.25 180.14C760.94 182.49 765.51 185.08 769.92 187.91C774.09 190.58 778.4 193.37 781.91 196.9C783.57 198.57 785.02 200.42 786.25 202.43C787.27 204.1 791.45 201.36 790.4 199.64C787.85 195.46 784.25 192.12 780.33 189.24C776.02 186.08 771.5 183.21 766.86 180.57C757.61 175.31 747.8 171.06 737.7 167.71C716.19 160.59 693.29 158.13 670.7 158.16C664.86 158.16 659.02 158.41 653.2 158.93C647.86 159.4 642.54 160.34 637.27 161.31C626.91 163.21 616.66 165.78 606.63 169C586.66 175.42 567.51 184.38 549.94 195.86C531.85 207.68 515.64 222.71 503.04 240.31C501.5 242.46 500.01 244.66 498.58 246.88C498.08 247.65 497.8 248.72 498.94 249.03C499.98 249.31 501.52 248.4 502.07 247.56L502.09 247.57Z" fill="#060404"/>
<path d="M501.34 218.31C494.21 205.97 485.07 194.83 474.36 185.43C463.65 176.03 451.7 168.68 438.78 163.08C425.96 157.53 412.41 153.81 398.67 151.42C384.93 149.03 370.34 147.85 356.08 147.53C341.82 147.21 327.41 147.67 313.1 148.46C311.31 148.56 309.52 148.66 307.74 148.77C306.59 148.84 305.35 149.1 304.3 149.58C303.57 149.91 303.49 150.22 304.44 150.16C318.6 149.31 332.78 148.71 346.96 148.85C361.14 148.99 375.25 149.84 389.24 151.95C403.23 154.06 416.55 157.37 429.48 162.46C442.41 167.55 454.83 174.53 465.7 183.35C476.65 192.24 486.15 202.91 493.7 214.82C494.66 216.34 495.59 217.88 496.49 219.43C497 220.31 501.45 218.45 501.36 218.29L501.34 218.31Z" fill="#060404"/>
<path d="M509.84 210.38C510.53 190.64 508.76 170.99 503.56 151.9C498.36 132.81 490.31 115 479.54 98.6802C473.49 89.5002 466.59 80.8902 458.95 72.9902C459.19 73.2302 458.93 75.1102 458.93 75.4902C458.93 76.0802 458.93 76.6702 458.93 77.2602C458.93 77.3902 458.86 77.9102 458.95 77.9902C471.74 91.2202 482.4 106.43 490.61 122.89C498.81 139.35 504.56 157.04 507.55 175.18C508.38 180.2 509 185.25 509.4 190.32C509.61 193 509.76 195.68 509.85 198.36C509.87 199.02 509.89 199.68 509.9 200.35C509.9 200.62 509.91 200.89 509.91 201.16C509.91 201.64 509.91 202.19 509.91 201.4C509.89 202.78 509.86 204.16 509.81 205.54C509.77 206.56 509.79 207.59 509.79 208.62C509.79 209.12 509.78 209.62 509.8 210.11C509.8 210.15 509.81 210.6 509.82 210.36L509.84 210.38Z" fill="#060404"/>
<path d="M372.87 236.86C355.39 246.78 338.59 257.88 322.6 270.06C306.61 282.24 291.56 295.4 277.4 309.56C269.4 317.56 261.72 325.86 254.35 334.44C254.07 334.77 254.33 336.5 254.33 336.94C254.33 337.53 254.33 338.12 254.33 338.71C254.33 338.84 254.41 339.37 254.35 339.44C267.44 324.19 281.56 309.83 296.58 296.48C311.6 283.13 327.41 270.88 344.02 259.7C353.4 253.39 363.03 247.44 372.86 241.85C373.07 241.73 372.88 239.63 372.88 239.35C372.88 239.07 372.66 236.96 372.86 236.85L372.87 236.86Z" fill="#060404"/>
<path d="M607.24 304.87C618.73 321.69 630.22 338.52 641.71 355.34L651.52 369.7C651.48 369.64 651.54 368.94 651.54 368.97C651.54 368.38 651.54 367.79 651.54 367.2C651.54 366.61 651.54 366.02 651.54 365.43C651.54 365.27 651.61 364.83 651.52 364.7C640.03 347.88 628.54 331.05 617.05 314.23L607.24 299.87C607.28 299.93 607.22 300.63 607.22 300.6C607.22 301.19 607.22 301.78 607.22 302.37C607.22 302.96 607.22 303.55 607.22 304.14C607.22 304.3 607.15 304.74 607.24 304.87V304.87Z" fill="#060404"/>
<path d="M625.49 380.99C629.28 390.08 633.07 399.18 636.86 408.27C636.62 407.7 636.88 406.4 636.88 405.77C636.88 405.08 637.13 403.92 636.86 403.27C633.07 394.18 629.28 385.08 625.49 375.99C625.73 376.56 625.47 377.86 625.47 378.49C625.47 379.18 625.22 380.34 625.49 380.99Z" fill="#060404"/>
<path d="M689.11 446.84C690.11 466.88 690.64 486.95 690.57 507.01C690.55 512.71 690.48 518.42 690.37 524.12C690.35 525.26 690.35 526.4 690.37 527.54C690.37 527.77 690.39 529.33 690.4 528.44C690.83 506 690.69 483.54 689.93 461.11C689.71 454.75 689.44 448.38 689.13 442.02C689.11 441.7 689.1 442.42 689.11 442.27C689.09 442.77 689.1 443.27 689.1 443.76C689.1 444.78 689.07 445.81 689.12 446.84H689.11Z" fill="#060404"/>
<path d="M230.89 757.37C231.17 759.29 231.39 761.22 231.53 763.16C231.59 764.06 231.64 764.97 231.67 765.88C231.68 766.25 231.68 766.62 231.7 766.99C231.57 763.58 231.68 766.15 231.65 766.95C231.5 770.7 231.09 774.44 230.47 778.14C229.26 785.38 227.25 792.46 224.74 799.35C220.3 811.49 214.43 823.2 207.34 834.01C194.39 853.75 176.27 871.38 153.21 878.34C137.53 883.07 120.73 882.27 105.03 878.03C105.1 878.05 105.01 880.33 105.01 880.53C105.01 880.74 104.89 882.99 105.03 883.03C119.88 887.04 135.73 888 150.7 884.05C162.53 880.92 173.39 874.85 182.78 867.06C192.48 859.01 200.67 849.22 207.55 838.69C214.96 827.34 221.07 814.99 225.51 802.19C228.31 794.13 230.39 785.79 231.26 777.3C232.13 768.81 232.1 760.56 230.89 752.39C231.13 754.01 230.65 755.75 230.89 757.39V757.37Z" fill="#060404"/>
<path d="M274.08 804.57C272.43 821.44 268.58 838.08 262.68 853.97C256.78 869.86 248.88 885.01 239.19 898.91C233.75 906.71 227.74 914.1 221.23 921.03C220.95 921.33 221.21 923.11 221.21 923.53C221.21 924.12 221.21 924.71 221.21 925.3C221.21 925.42 221.29 925.97 221.23 926.03C232.84 913.68 242.82 899.83 250.91 884.92C259 870.01 265.18 854.1 269.26 837.65C271.55 828.42 273.16 819.03 274.08 809.57C274.24 807.92 273.92 806.22 274.08 804.57Z" fill="#060404"/>
<path d="M312.85 638.21C309.89 643.3 307.37 648.63 305.32 654.14C305.26 654.3 305.3 654.74 305.3 654.87C305.3 655.46 305.3 656.05 305.3 656.64C305.3 657.23 305.3 657.82 305.3 658.41C305.3 658.6 305.38 658.97 305.32 659.14C307.37 653.62 309.89 648.29 312.85 643.21C312.91 643.1 312.87 642.53 312.87 642.48C312.87 641.89 312.87 641.3 312.87 640.71C312.87 640.12 312.87 639.53 312.87 638.94C312.87 638.78 312.78 638.33 312.85 638.21Z" fill="#DF8C66"/>
<path d="M330.26 642.76C328.74 647.31 327.23 651.86 325.71 656.4C325.65 656.58 325.69 656.99 325.69 657.13C325.69 657.72 325.69 658.31 325.69 658.9C325.69 659.49 325.69 660.08 325.69 660.67C325.69 660.87 325.77 661.22 325.71 661.4C327.23 656.85 328.74 652.3 330.26 647.76C330.32 647.58 330.28 647.17 330.28 647.03C330.28 646.44 330.28 645.85 330.28 645.26C330.28 644.67 330.28 644.08 330.28 643.49C330.28 643.29 330.2 642.94 330.26 642.76Z" fill="#DF8C66"/>
<path d="M362.1 646.78V658.15C362.1 658.34 362.1 660.65 362.12 660.65C362.14 660.65 362.14 658.17 362.14 658.15V646.78C362.14 646.59 362.14 644.28 362.12 644.28C362.1 644.28 362.1 646.76 362.1 646.78Z" fill="#DF8C66"/>
<path d="M582.57 647.05C584.35 652.1 586.13 657.15 587.91 662.2C587.86 662.06 587.93 661.55 587.93 661.47C587.93 660.88 587.93 660.29 587.93 659.7C587.93 659.11 587.93 658.52 587.93 657.93C587.93 657.72 587.98 657.4 587.91 657.2C586.13 652.15 584.35 647.1 582.57 642.05C582.62 642.19 582.55 642.7 582.55 642.78C582.55 643.37 582.55 643.96 582.55 644.55C582.55 645.14 582.55 645.73 582.55 646.32C582.55 646.53 582.5 646.85 582.57 647.05Z" fill="#DF8C66"/>
<path d="M598.59 637.92C598.59 637.92 598.63 632.92 598.59 632.92C598.55 632.92 598.55 637.92 598.59 637.92Z" fill="#DF8C66"/>
<path d="M597.06 634.13C601.64 640.33 606.72 646.15 612.25 651.53C612.22 651.5 612.27 650.73 612.27 650.8C612.27 650.21 612.27 649.62 612.27 649.03C612.27 648.44 612.27 647.85 612.27 647.26C612.27 647.13 612.33 646.61 612.25 646.53C606.72 641.15 601.64 635.34 597.06 629.13C597.1 629.18 597.04 629.9 597.04 629.86C597.04 630.45 597.04 631.04 597.04 631.63C597.04 632.22 597.04 632.81 597.04 633.4C597.04 633.56 596.97 634.01 597.06 634.13Z" fill="#DF8C66"/>
<path d="M609.14 622.06C612.93 625.6 616.72 629.14 620.51 632.67C620.48 632.64 620.53 631.86 620.53 631.94C620.53 631.35 620.53 630.76 620.53 630.17C620.53 629.58 620.53 628.99 620.53 628.4C620.53 628.27 620.59 627.74 620.51 627.67C616.72 624.13 612.93 620.59 609.14 617.06C609.17 617.09 609.12 617.87 609.12 617.79C609.12 618.38 609.12 618.97 609.12 619.56C609.12 620.15 609.12 620.74 609.12 621.33C609.12 621.46 609.06 621.99 609.14 622.06Z" fill="#DF8C66"/>
<path d="M439.45 695.49C442.36 698.23 446.31 699.68 450.3 699.47V694.47C446.58 695.8 442.6 696.23 438.68 695.74C438.7 695.74 438.65 698.05 438.66 698.24C438.67 698.43 438.6 700.73 438.68 700.74C442.6 701.23 446.58 700.8 450.3 699.47C450.33 699.46 450.32 698.64 450.32 698.74C450.32 698.15 450.32 697.56 450.32 696.97C450.32 696.79 450.3 694.47 450.3 694.47C446.31 694.68 442.36 693.23 439.45 690.49C439.48 690.52 439.43 691.3 439.43 691.22C439.43 691.81 439.43 692.4 439.43 692.99C439.43 693.58 439.43 694.17 439.43 694.76C439.43 694.89 439.37 695.42 439.45 695.49Z" fill="#DF8C66"/>
<path d="M406.06 806.7V807.46C406.06 808.05 406.06 808.64 406.06 809.23C406.06 809.4 406.06 809.57 406.06 809.75C406.06 809.82 406.06 809.89 406.06 809.97V809.88C406.07 809.67 406.08 809.45 406.08 809.24C406.08 808.65 406.08 808.06 406.08 807.47V806.71C406.08 806.12 406.08 805.53 406.08 804.94C406.08 804.77 406.08 804.6 406.08 804.42C406.08 804.35 406.08 804.28 406.08 804.2V804.29C406.07 804.5 406.06 804.72 406.06 804.93C406.06 805.52 406.06 806.11 406.06 806.7Z" fill="#DF8C66"/>
<path d="M288.49 1029L235.12 859.56C248.64 842.28 256.43 821.37 264.15 801.02C265.42 798.11 266.78 795.3 268.22 792.55C275.39 778.82 284.51 766.76 292.38 753.06C293.49 750.38 294.27 747.71 294.65 745.17C295.41 740.1 294.63 735.57 290.91 732.64C276.51 721.31 254.49 746.78 245.34 755.09C230.01 769.02 224.44 721.88 223.22 713.91C220.54 696.39 219.68 678.65 217.14 661.13C215.93 652.77 211.81 602.31 198.41 602.93C188.06 603.41 188.12 635.6 187.59 641.79C185.41 667.52 184.17 693.33 183.11 719.13C183.08 719.82 183.02 720.58 182.52 721.06C182.11 721.45 181.51 721.53 180.95 721.6C176.93 722.06 172.75 722.29 168.93 720.96C161.39 718.34 160.64 710.23 157.56 703.94C153.33 695.29 149.09 686.64 145.53 677.68C122.27 633.63 106.81 595.82 97.3799 599.28C87.9499 602.74 99.0999 641.94 111.38 690.21C113.69 699.27 130.77 739.84 121.06 745.19C120.46 745.52 119.75 745.77 119.1 745.57C118.46 745.38 118.01 744.82 117.61 744.28C109.49 733.58 102.55 721.85 93.8999 711.58C68.4399 681.23 50.3999 654.28 42.8299 658.87C31.1799 665.94 48.1799 694.47 52.1799 702.08C64.2099 724.97 76.1599 747.9 88.0399 770.88C90.9299 776.47 96.2199 785.73 92.8499 791.8C84.5499 790.31 76.6399 785.29 69.4299 781.07C52.8599 771.37 34.1999 753.59 13.4199 761.75C20.9799 776.73 35.6799 784.8 48.4299 795C74.5999 815.95 97.7599 839.48 122.79 861.7C134.08 871.72 146.6 880.88 169.57 882.05L222.1 1048.85L288.48 1028.98L288.49 1029Z" fill="#F3BA8F"/>
<path d="M290.89 1028.28C288.94 1022.09 286.99 1015.9 285.04 1009.72C280.43 995.09 275.82 980.46 271.22 965.83C265.79 948.59 260.36 931.36 254.93 914.12C250.59 900.34 246.25 886.56 241.91 872.78L238.34 861.45C238.16 860.87 237.52 859.71 237.6 859.09C237.68 858.47 238.29 858.15 238.76 857.53C241.09 854.42 243.24 851.19 245.26 847.88C253.56 834.3 259.38 819.41 265.02 804.58C271.1 788.58 281.15 774.73 290.15 760.31C292.49 756.55 294.94 752.91 296.18 748.63C297.12 745.36 297.71 741.73 297.07 738.34C296.06 732.97 291.34 729.5 286.12 728.82C275.62 727.46 265.44 734.99 257.96 741.41C254.09 744.73 250.44 748.29 246.79 751.84C245.41 753.18 244.06 754.66 242.52 755.82C242.19 756.07 241.32 756.57 241.42 756.53C241.24 756.6 241.41 756.64 240.79 756.5C238.1 755.88 236.29 753.18 235.03 750.92C233.06 747.39 231.78 743.48 230.68 739.6C228.55 732.05 227.24 724.29 226.11 716.54C224.05 702.27 222.76 687.95 221.2 673.63C220.22 664.69 219.06 655.75 217.88 646.83C216.7 637.91 215.19 628.22 212.61 619.21C211.51 615.36 210.22 611.47 208.22 607.98C206.86 605.61 205.05 603.12 202.36 602.21C199.22 601.14 195.37 602.35 193 604.54C190.25 607.09 189.03 611.05 188.15 614.58C186.07 622.98 185.78 631.74 185.35 640.34C185 647.36 184.26 654.37 183.78 661.38C183.18 670.2 182.66 679.03 182.2 687.86C181.74 696.69 181.31 706.24 180.92 715.44C180.88 716.48 180.84 717.52 180.79 718.55C180.78 718.82 180.53 721.38 181.14 720.59C180.87 720.95 178.83 720.79 178.3 720.81C176.99 720.87 175.68 720.86 174.38 720.71C170.8 720.3 167.63 718.75 165.52 715.79C163.81 713.39 162.86 710.52 161.84 707.78C160.57 704.37 158.95 701.16 157.37 697.9C155.52 694.08 153.69 690.24 151.94 686.37C150.19 682.5 148.69 678.42 146.7 674.62C139.08 660.09 131.89 645.35 124.38 630.76C119.55 621.38 114.8 611.36 108.04 603.18C106.35 601.14 104.3 598.89 101.65 598.17C98.9999 597.45 95.6199 598.44 93.7899 600.43C91.9599 602.42 91.6799 605.15 91.5399 607.64C91.2999 611.93 91.8299 616.26 92.4499 620.5C94.4199 633.87 97.8299 647.04 101.13 660.13C104.43 673.22 106.92 685.31 111.08 697.46C114.21 706.61 117.49 715.74 119.74 725.15C120.75 729.38 121.66 733.76 121.65 738.13C121.65 739.73 121.51 741.39 120.93 742.89C120.73 743.42 120.44 743.83 120.16 744.31C120.09 744.43 119.7 744.68 119.67 744.8C119.55 745.38 120.8 744.03 120.77 744.36C120.77 744.36 119.5 742.89 119.44 742.82C114.31 736.06 109.73 728.9 104.81 721.99C99.8899 715.08 94.4899 708.75 89.1699 702.23C79.8499 690.81 70.9999 678.92 61.0699 668.02C56.6899 663.21 50.1099 655.03 42.6599 657.91C33.8599 661.32 36.3299 672.47 38.6599 679.33C41.6499 688.15 46.3199 696.2 50.6299 704.41C59.0599 720.46 67.4599 736.53 75.8099 752.63C79.5299 759.8 83.2699 766.97 86.9699 774.16C89.6499 779.37 93.4399 786.47 90.4799 792.29L94.7899 790.76C88.0099 789.46 81.9199 786.17 76.0199 782.72C71.0599 779.82 66.2099 776.79 61.4299 773.61C52.1699 767.46 42.3999 760.81 31.1999 759.02C24.8399 758 18.5399 758.85 12.5499 761.13C12.2499 761.24 10.7499 761.94 11.0499 762.51C16.7399 773.57 26.4799 781.23 36.2899 788.48C47.7099 796.91 58.5599 806.02 69.1499 815.48C80.4899 825.61 91.5399 836.07 102.7 846.41C111.87 854.91 120.91 864.08 131.23 871.21C142.21 878.8 154.82 882.5 168.09 883.23L167.2 882.82L172.42 899.41C176.6 912.69 180.78 925.97 184.97 939.24C190.03 955.3 195.09 971.37 200.15 987.43C204.52 1001.32 208.9 1015.2 213.27 1029.09C214.71 1033.67 216.15 1038.24 217.59 1042.82L218.94 1047.09C219.15 1047.77 219.28 1048.72 219.65 1049.33C219.7 1049.41 219.71 1049.53 219.74 1049.61C220 1050.43 221.96 1049.9 222.4 1049.77C241.79 1043.97 261.18 1038.16 280.57 1032.36C283.31 1031.54 286.05 1030.72 288.78 1029.9C289.3 1029.74 291.16 1029.12 290.91 1028.3C290.66 1027.48 288.69 1028.01 288.25 1028.14C268.86 1033.94 249.47 1039.75 230.08 1045.55C227.34 1046.37 224.6 1047.19 221.87 1048.01L224.53 1048.17C222.79 1042.64 221.05 1037.11 219.31 1031.58C215.13 1018.3 210.95 1005.02 206.76 991.75C201.7 975.69 196.64 959.62 191.58 943.56C187.21 929.67 182.83 915.79 178.46 901.9L174.14 888.17L172.79 883.9C172.58 883.22 172.45 882.27 172.08 881.66C172.03 881.58 172.02 881.46 171.99 881.38C171.89 881.06 171.36 880.98 171.1 880.97C159.23 880.31 147.86 877.2 137.81 870.75C127.72 864.28 119.06 855.51 110.29 847.42C88.9799 827.76 68.2499 807.05 44.9499 789.7C33.9599 781.52 22.2899 773.58 15.8499 761.07L14.3499 762.45C27.8199 757.33 41.6699 765.49 52.6799 772.65C58.3899 776.36 64.0099 780.15 69.8799 783.61C76.4999 787.51 83.3099 791.45 90.9499 792.92C92.2399 793.17 94.5999 792.69 95.2599 791.39C98.1299 785.75 94.9199 778.97 92.3399 773.84C88.5899 766.38 84.6699 759.01 80.8199 751.6C72.5299 735.64 64.2099 719.7 55.8499 703.78C51.5599 695.61 46.8999 687.6 43.7999 678.88C42.2699 674.57 40.7699 669.68 41.3399 665.06C41.5599 663.32 42.0999 661.52 43.2999 660.21C43.6599 659.82 45.2299 658.49 43.5699 659.54C43.3599 659.67 43.6499 659.53 44.2299 659.69C47.5499 660.66 50.3799 663.53 52.7699 665.89C56.8299 669.89 60.5099 674.27 64.1299 678.65C68.8699 684.38 73.4899 690.21 78.1399 696C83.4699 702.63 89.0199 709.09 94.2899 715.75C99.5599 722.41 104.31 729.67 109.21 736.7C110.31 738.28 111.42 739.85 112.55 741.41C113.61 742.87 114.68 744.83 116.06 746.01C118.07 747.73 121.57 746.44 123.43 745.04C125.82 743.24 126.34 740.22 126.42 737.4C126.54 733.2 125.72 728.97 124.79 724.89C122.64 715.43 119.38 706.27 116.23 697.11C112.22 685.46 109.61 673.33 106.59 661.4C103.24 648.17 99.7999 634.88 97.5899 621.4C96.8599 616.96 96.2299 612.44 96.2599 607.93C96.2799 605.29 96.4799 602.42 98.0499 600.22C98.3499 599.8 98.6299 599.96 97.9699 600.1C97.1699 600.27 97.1999 600.15 97.6799 600.3C98.7599 600.64 99.6399 601.2 100.52 601.92C103.4 604.31 105.57 607.57 107.58 610.68C114.32 621.12 119.75 632.44 125.33 643.52C129.04 650.89 132.73 658.26 136.49 665.61C138.48 669.51 140.49 673.39 142.53 677.26C144.57 681.13 145.91 685.12 147.67 688.99C150.87 696.02 154.66 702.82 157.35 710.06C159.36 715.47 161.82 720.57 167.79 722.32C171.46 723.39 175.43 723.27 179.19 722.86C181.93 722.56 185.25 721.98 185.51 718.72C186.21 710.07 186.25 701.33 186.67 692.66C187.52 675.32 188.86 658.04 190.03 640.73C190.58 632.56 190.71 624.39 192.31 616.33C193.05 612.6 193.97 608.25 196.42 605.22C196.76 604.8 197.41 604.43 197.69 604.01C197.47 604.34 196.92 603.86 197.82 604.16C198.94 604.53 199.83 605.01 200.71 605.83C203.14 608.09 204.57 611.4 205.75 614.43C207.35 618.54 208.48 622.83 209.46 627.13C211.44 635.88 212.69 644.78 213.77 653.67C215.11 664.77 216.53 675.85 217.63 686.97C218.78 698.66 220.11 710.31 221.92 721.91C223.18 729.97 224.68 738.12 227.4 745.83C229.24 751.05 232.39 759.16 239.15 758.82C242.86 758.63 245.84 756.59 248.46 754.14C251.93 750.89 255.25 747.48 258.77 744.27C262.84 740.56 267.14 736.93 271.93 734.17C275.76 731.95 280.15 730.12 284.6 731.45C291.56 733.53 293.35 740.32 292.1 746.83C290.48 755.23 284.7 762.45 280.14 769.5C275.58 776.55 271.05 783.49 267.06 790.82C263.07 798.15 260.31 805.55 257.34 813.18C251.58 827.96 245.21 842.71 235.98 855.7C235.16 856.85 232.81 858.99 232.77 860.38C232.77 860.56 232.91 860.8 232.96 860.97C233.22 861.97 233.58 862.95 233.89 863.93C237.15 874.28 240.41 884.64 243.67 894.99L258.96 943.54C264.13 959.95 269.3 976.36 274.46 992.76C277.86 1003.55 281.26 1014.34 284.66 1025.13C285.15 1026.67 285.63 1028.21 286.12 1029.75C286.52 1031.01 291.3 1029.55 290.91 1028.3L290.89 1028.28Z" fill="#040000"/>
<path d="M236.5 752C235.73 757.66 235.96 756.89 231.57 758.97C226.01 761.61 220.61 764.58 215.39 767.86C204.85 774.48 195.09 782.35 186.38 791.25C181.5 796.24 176.95 801.55 172.77 807.13C172.48 807.52 172.75 809.14 172.75 809.63C172.75 810.22 172.75 810.81 172.75 811.4C172.75 811.54 172.84 812.04 172.77 812.13C187.7 792.19 207.35 775.85 229.72 764.87C232.59 763.46 235.63 762.3 238.41 760.71C240.94 759.26 242.58 759.56 243 756.5C243.22 754.86 236.28 753.63 236.5 752Z" fill="#040000"/>
</g>
</g>
<defs>
<radialGradient id="paint0_radial_39_287" cx="0" cy="0" r="1" gradientUnits="userSpaceOnUse" gradientTransform="translate(347.08 539.12) scale(84.77 84.77)">
<stop stop-color="white"/>
<stop offset="1" stop-color="white"/>
</radialGradient>
<clipPath id="clip0_39_287">
<rect width="887.42" height="986.1" fill="white" transform="translate(11 73)"/>
</clipPath>
</defs>
</svg>
