<svg width="32" height="32" viewBox="0 0 32 32" fill="none" xmlns="http://www.w3.org/2000/svg">
<rect width="32" height="32" fill="#5470F8"/>
<path d="M26.7273 14.4611L16.8224 20.2123V30.1172L26.7273 23.7269V14.4611Z" fill="#9CCECB"/>
<path d="M6.27846 14.4611L16.1833 20.2123V30.1172L6.27846 23.7269V14.4611Z" fill="#046FBB"/>
<path d="M6.27846 13.9124L16.5937 9.34846L26.7273 13.9124L16.5937 19.7545L6.27846 13.9124Z" fill="white"/>
<path d="M16.7039 5.83444L16.7039 16.0588" stroke="#AAAAAA" stroke-width="0.319512"/>
<path d="M16.7039 2L18.5025 8.31037H14.9053L16.7039 2Z" fill="#6FDBD6"/>
<path d="M4.74694 24.965L13.6015 19.8528" stroke="white" stroke-width="0.319512"/>
<path d="M2.85276 26.166L5.87388 22.4524L7.57942 25.4064L2.85276 26.166Z" fill="#046FBB"/>
<path d="M28.1738 24.965L19.3192 19.8528" stroke="white" stroke-width="0.319512"/>
<path d="M29.9324 26.0005L26.9491 22.2213L25.1679 25.3064L29.9324 26.0005Z" fill="#DE160B"/>
</svg>
