<svg width="32" height="32" viewBox="0 0 32 32" fill="none" xmlns="http://www.w3.org/2000/svg">
<rect width="32" height="32" fill="#5470F8"/>
<path d="M4 23.2H28V24.9C28 25.7284 27.3284 26.4 26.5 26.4H5.5C4.67157 26.4 4 25.7284 4 24.9V23.2Z" fill="#6FDBD6"/>
<path d="M4 22.4H28V24.1C28 24.9284 27.3284 25.6 26.5 25.6H5.5C4.67157 25.6 4 24.9284 4 24.1V22.4Z" fill="#C0C0C0"/>
<rect x="4" y="8" width="24" height="16.5" rx="1.5" fill="#FBFBFB"/>
<circle cx="8.00001" cy="10.4" r="1.6" fill="#49677B"/>
<rect x="7.2" y="5.60001" width="1.6" height="5.6" rx="0.8" fill="#F3F3F3"/>
<mask id="mask0_17_44" style="mask-type:alpha" maskUnits="userSpaceOnUse" x="7" y="5" width="2" height="7">
<rect x="7.2" y="5.60001" width="1.6" height="5.6" rx="0.8" fill="url(#paint0_linear_17_44)"/>
</mask>
<g mask="url(#mask0_17_44)">
<rect x="7.2" y="5.60001" width="1.6" height="5.6" rx="0.8" fill="url(#paint1_linear_17_44)"/>
</g>
<circle cx="13.6" cy="10.4" r="1.6" fill="#49677B"/>
<rect x="12.8" y="5.60001" width="1.6" height="5.6" rx="0.8" fill="#F3F3F3"/>
<mask id="mask1_17_44" style="mask-type:alpha" maskUnits="userSpaceOnUse" x="12" y="5" width="3" height="7">
<rect x="12.8" y="5.60001" width="1.6" height="5.6" rx="0.8" fill="url(#paint2_linear_17_44)"/>
</mask>
<g mask="url(#mask1_17_44)">
<rect x="12.8" y="5.60001" width="1.6" height="5.6" rx="0.8" fill="url(#paint3_linear_17_44)"/>
</g>
<circle cx="19.2" cy="10.4" r="1.6" fill="#49677B"/>
<rect x="18.4" y="5.60001" width="1.6" height="5.6" rx="0.8" fill="#F3F3F3"/>
<mask id="mask2_17_44" style="mask-type:alpha" maskUnits="userSpaceOnUse" x="18" y="5" width="2" height="7">
<rect x="18.4" y="5.60001" width="1.6" height="5.6" rx="0.8" fill="url(#paint4_linear_17_44)"/>
</mask>
<g mask="url(#mask2_17_44)">
<rect x="18.4" y="5.60001" width="1.6" height="5.6" rx="0.8" fill="url(#paint5_linear_17_44)"/>
</g>
<circle cx="24.8" cy="10.4" r="1.6" fill="#49677B"/>
<rect x="24" y="5.60001" width="1.6" height="5.6" rx="0.8" fill="#F3F3F3"/>
<mask id="mask3_17_44" style="mask-type:alpha" maskUnits="userSpaceOnUse" x="24" y="5" width="2" height="7">
<rect x="24" y="5.60001" width="1.6" height="5.6" rx="0.8" fill="url(#paint6_linear_17_44)"/>
</mask>
<g mask="url(#mask3_17_44)">
<rect x="24" y="5.60001" width="1.6" height="5.6" rx="0.8" fill="url(#paint7_linear_17_44)"/>
</g>
<mask id="mask4_17_44" style="mask-type:alpha" maskUnits="userSpaceOnUse" x="4" y="8" width="24" height="17">
<rect x="4" y="8" width="24" height="16.5" rx="1.6" fill="#FBFBFB"/>
</mask>
<g mask="url(#mask4_17_44)">
</g>
<mask id="mask5_17_44" style="mask-type:alpha" maskUnits="userSpaceOnUse" x="4" y="8" width="24" height="17">
<rect x="4" y="8" width="24" height="16.5" rx="1.6" fill="#FBFBFB"/>
</mask>
<g mask="url(#mask5_17_44)">
<path d="M15.685 19.0846L12.6013 17.3802C12.2761 17.2004 11.9574 17.6261 12.2213 17.8875L24.4721 30.0249C24.5977 30.1493 24.8003 30.1483 24.9247 30.0228L30.1047 24.7943C30.2291 24.6688 30.2281 24.4662 30.1026 24.3418L21.2553 15.5764L18.4081 12.7556C18.1326 12.4827 17.6999 12.8433 17.9187 13.1635L19.2522 15.1152C19.4535 15.4098 19.0945 15.763 18.8032 15.557L17.8588 14.889C17.5677 14.6831 17.2088 15.0357 17.4095 15.3304L18.1457 16.4111C18.3438 16.7019 17.9956 17.0529 17.7032 16.8571L14.1455 14.4745C13.8564 14.2809 13.5097 14.6226 13.6989 14.9145L16.1083 18.6305C16.2895 18.9099 15.9765 19.2457 15.685 19.0846Z" fill="#046FBB"/>
</g>
<defs>
<linearGradient id="paint0_linear_17_44" x1="8" y1="5.60001" x2="8" y2="11.2" gradientUnits="userSpaceOnUse">
<stop stop-color="#DFDFDF" stop-opacity="0"/>
<stop offset="1" stop-color="#4F4F4F"/>
</linearGradient>
<linearGradient id="paint1_linear_17_44" x1="8" y1="5.60001" x2="8" y2="11.2" gradientUnits="userSpaceOnUse">
<stop offset="0.536458" stop-color="white"/>
<stop offset="1" stop-color="#004678"/>
</linearGradient>
<linearGradient id="paint2_linear_17_44" x1="13.6" y1="5.60001" x2="13.6" y2="11.2" gradientUnits="userSpaceOnUse">
<stop stop-color="#DFDFDF" stop-opacity="0"/>
<stop offset="1" stop-color="#4F4F4F"/>
</linearGradient>
<linearGradient id="paint3_linear_17_44" x1="13.6" y1="5.60001" x2="13.6" y2="11.2" gradientUnits="userSpaceOnUse">
<stop offset="0.0001" stop-color="#DFDFDF"/>
<stop offset="0.260417" stop-color="white"/>
<stop offset="1" stop-color="#387DAE"/>
</linearGradient>
<linearGradient id="paint4_linear_17_44" x1="19.2" y1="5.60001" x2="19.2" y2="11.2" gradientUnits="userSpaceOnUse">
<stop stop-color="#DFDFDF" stop-opacity="0"/>
<stop offset="1" stop-color="#4F4F4F"/>
</linearGradient>
<linearGradient id="paint5_linear_17_44" x1="19.2" y1="5.60001" x2="19.2" y2="11.2" gradientUnits="userSpaceOnUse">
<stop offset="0.0001" stop-color="#DFDFDF"/>
<stop offset="0.260417" stop-color="white"/>
<stop offset="1" stop-color="#387DAE"/>
</linearGradient>
<linearGradient id="paint6_linear_17_44" x1="24.8" y1="5.60001" x2="24.8" y2="11.2" gradientUnits="userSpaceOnUse">
<stop stop-color="#DFDFDF" stop-opacity="0"/>
<stop offset="1" stop-color="#4F4F4F"/>
</linearGradient>
<linearGradient id="paint7_linear_17_44" x1="24.8" y1="5.60001" x2="24.8" y2="11.2" gradientUnits="userSpaceOnUse">
<stop offset="0.0001" stop-color="#DFDFDF"/>
<stop offset="0.260417" stop-color="white"/>
<stop offset="1" stop-color="#387DAE"/>
</linearGradient>
</defs>
</svg>
