<svg width="662" height="1010" viewBox="0 0 662 1010" fill="none" xmlns="http://www.w3.org/2000/svg">
<path d="M519.739 1H142.261C64.2447 1 1 64.2447 1 142.261V1206.63C1 1284.65 64.2447 1347.89 142.261 1347.89H519.739C597.755 1347.89 661 1284.65 661 1206.63V142.261C661 64.2447 597.755 1 519.739 1Z" fill="url(#paint0_linear_39_384)" stroke="#E6E6E6" stroke-width="2"/>
<path d="M494.875 31.0908H167.292C89.5732 31.0908 26.5693 94.0946 26.5693 171.814V1177.07C26.5693 1254.79 89.5732 1317.79 167.292 1317.79H494.875C572.594 1317.79 635.598 1254.79 635.598 1177.07V171.814C635.598 94.0946 572.594 31.0908 494.875 31.0908Z" fill="#F2F2F2"/>
<path d="M207.48 52.9178C207.48 51.5155 207.544 50.1307 207.669 48.7673H207.48C207.776 42.8876 206.771 31.1281 200.387 31.1281H213.272C219.191 21.0985 229.083 14.5264 240.286 14.5264H422.052C433.256 14.5264 443.147 21.0985 449.066 31.1281H461.952C455.568 31.1281 454.563 42.8876 454.858 48.7673H454.669C454.794 50.1307 454.858 51.5155 454.858 52.9178C454.858 74.121 440.17 91.309 422.052 91.309H240.286C222.168 91.309 207.48 74.121 207.48 52.9178Z" fill="white"/>
<path d="M171.669 230.473C170.09 230.473 169.179 229.765 168.936 228.347C168.045 228.347 167.357 228.105 166.871 227.619C166.426 227.173 166.203 226.505 166.203 225.614V183.769C166.203 182.878 166.426 182.21 166.871 181.765C167.357 181.279 168.045 181.036 168.936 181.036H174.706C175.678 181.036 176.528 181.238 177.257 181.643C177.986 182.048 178.552 182.615 178.957 183.344C180.01 183.668 180.82 184.234 181.387 185.044C181.994 185.854 182.298 186.826 182.298 187.959V196.584H188.31V183.769C188.31 182.878 188.533 182.21 188.978 181.765C189.464 181.279 190.153 181.036 191.043 181.036H196.813C197.785 181.036 198.635 181.238 199.364 181.643C200.133 182.048 200.7 182.615 201.064 183.344C202.117 183.627 202.927 184.174 203.494 184.983C204.101 185.793 204.405 186.785 204.405 187.959V222.942C204.405 225.574 203.757 227.477 202.461 228.651C201.206 229.866 199.161 230.473 196.327 230.473H193.776C192.197 230.473 191.286 229.765 191.043 228.347C190.153 228.347 189.464 228.105 188.978 227.619C188.533 227.173 188.31 226.505 188.31 225.614V212.192H182.298V222.942C182.298 225.533 181.609 227.436 180.233 228.651C178.897 229.866 176.791 230.473 173.916 230.473H171.669ZM171.183 225.614C173.41 225.614 174.908 225.25 175.678 224.521C176.447 223.792 176.832 222.558 176.832 220.816V207.334H191.043V225.614H193.594C195.092 225.614 196.226 225.452 196.995 225.129C197.765 224.764 198.271 224.258 198.514 223.61C198.797 222.922 198.939 221.991 198.939 220.816V185.834C198.939 184.457 198.23 183.769 196.813 183.769H191.043V199.317H176.832V185.834C176.832 184.457 176.123 183.769 174.706 183.769H168.936V225.614H171.183ZM226.174 231.263C219.939 231.263 215.141 229.623 211.78 226.343C209.229 224.805 207.306 222.679 206.01 219.966C204.715 217.213 204.067 213.933 204.067 210.127C204.067 206.24 204.735 202.859 206.071 199.985C207.407 197.11 209.31 194.903 211.78 193.365C214.29 191.826 217.226 191.057 220.587 191.057C222.733 191.057 224.737 191.441 226.599 192.211C228.462 192.94 230.061 193.972 231.397 195.308C233.503 196.523 235.142 198.183 236.317 200.288C237.491 202.394 238.078 204.762 238.078 207.394C238.078 211.646 236.58 214.682 233.584 216.504C233.746 216.788 233.847 217.091 233.887 217.415L233.948 217.658C234.11 217.618 234.333 217.598 234.616 217.598C235.669 217.598 236.337 218.245 236.62 219.541L237.774 224.946C237.855 225.432 237.896 225.797 237.896 226.04C237.896 226.849 237.653 227.578 237.167 228.226C236.722 228.874 236.053 229.38 235.163 229.744C233.786 230.271 232.389 230.655 230.972 230.898C229.595 231.141 227.996 231.263 226.174 231.263ZM223.441 226.404C224.98 226.404 226.356 226.323 227.571 226.161C228.786 225.959 230.061 225.594 231.397 225.068C231.843 224.906 232.126 224.703 232.247 224.461C232.409 224.177 232.45 223.813 232.369 223.367L231.276 218.326C228.887 219.177 226.296 219.602 223.502 219.602C220.91 219.602 218.785 219.055 217.125 217.962C215.465 216.828 214.635 215.391 214.635 213.65L223.866 213.407C226.943 213.326 229.17 212.597 230.547 211.221C231.924 209.803 232.612 207.819 232.612 205.269C232.612 202.961 232.086 200.936 231.033 199.195C229.98 197.454 228.522 196.118 226.66 195.187C224.838 194.255 222.813 193.79 220.587 193.79C217.955 193.79 215.606 194.377 213.541 195.551C211.476 196.725 209.837 198.547 208.622 201.017C207.407 203.447 206.8 206.483 206.8 210.127C206.8 215.917 208.298 220.088 211.294 222.638C214.29 225.149 218.339 226.404 223.441 226.404ZM214.635 207.576C214.635 205.269 215.161 203.487 216.214 202.232C217.307 200.977 218.805 200.349 220.708 200.349C222.206 200.349 223.401 200.795 224.291 201.685C225.182 202.536 225.628 203.588 225.628 204.843C225.628 205.734 225.425 206.402 225.02 206.848C224.615 207.253 224.008 207.455 223.198 207.455L214.635 207.576ZM243.133 230.412C241.675 230.291 240.825 229.582 240.582 228.287H240.4C238.659 228.125 237.788 227.153 237.788 225.372V181.522C237.788 180.631 238.011 179.963 238.456 179.517C238.942 179.032 239.63 178.789 240.521 178.789H246.412C248.356 178.789 249.753 179.558 250.603 181.096C251.615 181.38 252.405 181.927 252.972 182.736C253.579 183.506 253.883 184.457 253.883 185.591V220.391C253.883 220.634 253.883 221.302 253.883 222.396C253.883 223.489 253.781 224.501 253.579 225.432C252.769 228.833 250.056 230.534 245.441 230.534C244.955 230.534 244.185 230.493 243.133 230.412ZM240.521 225.554C241.655 225.635 242.424 225.675 242.829 225.675C244.449 225.675 245.683 225.432 246.534 224.946C247.425 224.461 247.971 223.711 248.174 222.699C248.336 222.051 248.416 220.999 248.416 219.541V216.747V183.465C248.416 182.169 247.748 181.522 246.412 181.522H240.521V225.554ZM260.155 230.412C258.697 230.291 257.847 229.582 257.604 228.287H257.422C255.681 228.125 254.81 227.153 254.81 225.372V181.522C254.81 180.631 255.033 179.963 255.478 179.517C255.964 179.032 256.652 178.789 257.543 178.789H263.434C265.378 178.789 266.775 179.558 267.625 181.096C268.637 181.38 269.427 181.927 269.994 182.736C270.601 183.506 270.905 184.457 270.905 185.591V220.391C270.905 220.634 270.905 221.302 270.905 222.396C270.905 223.489 270.803 224.501 270.601 225.432C269.791 228.833 267.078 230.534 262.463 230.534C261.977 230.534 261.207 230.493 260.155 230.412ZM257.543 225.554C258.677 225.635 259.446 225.675 259.851 225.675C261.471 225.675 262.706 225.432 263.556 224.946C264.447 224.461 264.993 223.711 265.196 222.699C265.358 222.051 265.439 220.999 265.439 219.541V216.747V183.465C265.439 182.169 264.771 181.522 263.434 181.522H257.543V225.554ZM289.87 231.263C285.133 231.263 281.347 229.805 278.513 226.89C275.962 225.392 273.998 223.205 272.622 220.331C271.245 217.415 270.557 213.994 270.557 210.067C270.557 206.18 271.225 202.819 272.561 199.985C273.897 197.11 275.82 194.903 278.331 193.365C280.841 191.826 283.777 191.057 287.137 191.057C289.405 191.057 291.49 191.441 293.393 192.211C295.336 192.94 297.037 194.013 298.494 195.43C301.045 196.968 303.009 199.175 304.386 202.05C305.762 204.924 306.451 208.305 306.451 212.192C306.451 216.039 305.762 219.399 304.386 222.274C303.05 225.149 301.126 227.355 298.616 228.894C296.106 230.473 293.19 231.263 289.87 231.263ZM287.137 226.404C289.769 226.404 292.138 225.797 294.243 224.582C296.349 223.367 297.988 221.545 299.163 219.116C300.377 216.646 300.985 213.63 300.985 210.067C300.985 206.504 300.377 203.507 299.163 201.078C297.988 198.649 296.349 196.827 294.243 195.612C292.178 194.397 289.81 193.79 287.137 193.79C282.967 193.79 279.606 195.187 277.055 197.981C274.545 200.734 273.29 204.762 273.29 210.067C273.29 215.371 274.545 219.42 277.055 222.213C279.606 225.007 282.967 226.404 287.137 226.404ZM287.137 219.48C285.234 219.48 283.756 218.691 282.704 217.112C281.691 215.492 281.185 213.144 281.185 210.067C281.185 206.989 281.691 204.661 282.704 203.082C283.756 201.503 285.234 200.714 287.137 200.714C289 200.714 290.457 201.523 291.51 203.143C292.563 204.722 293.089 207.03 293.089 210.067C293.089 213.103 292.563 215.431 291.51 217.051C290.457 218.671 289 219.48 287.137 219.48ZM287.259 216.747C289.324 216.626 290.356 214.399 290.356 210.067C290.356 208.285 290.154 206.787 289.749 205.572C287.684 205.653 286.651 207.86 286.651 212.192C286.651 214.176 286.854 215.695 287.259 216.747ZM331.408 230.473C329.869 230.473 328.917 229.765 328.553 228.347C326.933 228.267 326.002 227.436 325.759 225.857L319.2 183.951C319.16 183.789 319.139 183.566 319.139 183.283C319.139 182.595 319.362 182.048 319.807 181.643C320.253 181.238 320.88 181.036 321.69 181.036H328.128C329.181 181.036 330.092 181.238 330.861 181.643C331.671 182.048 332.278 182.635 332.683 183.404C333.574 183.647 334.303 184.093 334.869 184.741C335.436 185.388 335.78 186.178 335.902 187.109L336.266 189.903L336.448 187.959C336.651 186.218 337.602 185.348 339.303 185.348H346.591C347.603 185.348 348.494 185.55 349.263 185.955C350.073 186.36 350.68 186.947 351.085 187.716C352.462 188.121 353.413 188.891 353.94 190.024C354.102 186.907 354.203 184.801 354.243 183.708C354.324 181.927 355.256 181.036 357.037 181.036H362.868C363.839 181.036 364.669 181.238 365.358 181.643C366.046 182.007 366.552 182.554 366.876 183.283C367.929 183.526 368.718 184.052 369.245 184.862C369.812 185.631 370.075 186.603 370.034 187.777C369.791 193.486 369.184 199.742 368.212 206.544C367.241 213.306 365.884 219.703 364.143 225.736C363.698 227.396 362.969 228.59 361.957 229.319C360.985 230.089 359.649 230.473 357.948 230.473H351.936C350.357 230.473 349.385 229.765 349.02 228.347C347.441 228.307 346.51 227.477 346.227 225.857L345.437 221.545C344.951 223.327 344.567 224.663 344.283 225.554C343.797 227.254 343.008 228.489 341.915 229.258C340.862 230.068 339.424 230.473 337.602 230.473H331.408ZM334.869 225.614C336.044 225.614 336.914 225.432 337.481 225.068C338.048 224.663 338.493 223.995 338.817 223.064C341.125 215.573 342.886 207.516 344.101 198.892L348.96 225.614H355.215C356.308 225.614 357.098 225.432 357.584 225.068C358.11 224.703 358.515 223.975 358.799 222.881C360.54 216.929 361.876 210.633 362.807 203.993C363.738 197.353 364.325 191.199 364.568 185.53C364.609 184.923 364.487 184.477 364.204 184.194C363.961 183.91 363.516 183.769 362.868 183.769H356.977C356.815 188.789 356.43 194.154 355.823 199.863C355.215 205.572 354.426 210.573 353.454 214.865L348.899 189.66C348.696 188.607 347.927 188.081 346.591 188.081H339.181C338.412 195.976 336.772 204.904 334.262 214.865L330.436 185.348C330.314 184.295 329.545 183.769 328.128 183.769H321.933L328.492 225.614H334.869ZM388.088 231.263C383.351 231.263 379.565 229.805 376.731 226.89C374.18 225.392 372.217 223.205 370.84 220.331C369.463 217.415 368.775 213.994 368.775 210.067C368.775 206.18 369.443 202.819 370.779 199.985C372.115 197.11 374.039 194.903 376.549 193.365C379.059 191.826 381.995 191.057 385.355 191.057C387.623 191.057 389.708 191.441 391.611 192.211C393.554 192.94 395.255 194.013 396.713 195.43C399.263 196.968 401.227 199.175 402.604 202.05C403.98 204.924 404.669 208.305 404.669 212.192C404.669 216.039 403.98 219.399 402.604 222.274C401.268 225.149 399.344 227.355 396.834 228.894C394.324 230.473 391.409 231.263 388.088 231.263ZM385.355 226.404C387.987 226.404 390.356 225.797 392.461 224.582C394.567 223.367 396.207 221.545 397.381 219.116C398.595 216.646 399.203 213.63 399.203 210.067C399.203 206.504 398.595 203.507 397.381 201.078C396.207 198.649 394.567 196.827 392.461 195.612C390.396 194.397 388.028 193.79 385.355 193.79C381.185 193.79 377.824 195.187 375.274 197.981C372.763 200.734 371.508 204.762 371.508 210.067C371.508 215.371 372.763 219.42 375.274 222.213C377.824 225.007 381.185 226.404 385.355 226.404ZM385.355 219.48C383.452 219.48 381.975 218.691 380.922 217.112C379.91 215.492 379.403 213.144 379.403 210.067C379.403 206.989 379.91 204.661 380.922 203.082C381.975 201.503 383.452 200.714 385.355 200.714C387.218 200.714 388.676 201.523 389.728 203.143C390.781 204.722 391.307 207.03 391.307 210.067C391.307 213.103 390.781 215.431 389.728 217.051C388.676 218.671 387.218 219.48 385.355 219.48ZM385.477 216.747C387.542 216.626 388.574 214.399 388.574 210.067C388.574 208.285 388.372 206.787 387.967 205.572C385.902 205.653 384.87 207.86 384.87 212.192C384.87 214.176 385.072 215.695 385.477 216.747ZM409.798 230.716C408.219 230.716 407.308 230.008 407.065 228.59C406.174 228.59 405.486 228.347 405 227.862C404.555 227.416 404.332 226.748 404.332 225.857V194.336C404.332 193.446 404.555 192.778 405 192.332C405.486 191.846 406.174 191.603 407.065 191.603H412.106C413.604 191.603 414.758 192.049 415.568 192.94C417.552 191.644 419.637 190.996 421.823 190.996C423.726 190.996 425.65 191.441 427.593 192.332C428.484 192.737 429.152 193.344 429.597 194.154L430.326 194.458C431.095 194.822 431.703 195.328 432.148 195.976C432.593 196.624 432.816 197.353 432.816 198.163C432.816 198.689 432.735 199.175 432.573 199.62L431.359 203.264C431.156 203.953 430.852 204.52 430.448 204.965C430.083 205.37 429.557 205.714 428.868 205.997L428.747 206.058C427.897 206.382 427.249 206.544 426.803 206.544C426.399 206.544 425.994 206.483 425.589 206.362C425.022 206.281 424.536 206.24 424.131 206.24C422.714 206.24 421.479 206.888 420.426 208.184V223.246C420.426 225.837 419.758 227.72 418.422 228.894C417.127 230.109 415.041 230.716 412.167 230.716H409.798ZM409.434 225.857C411.62 225.857 413.078 225.513 413.806 224.825C414.576 224.096 414.96 222.861 414.96 221.12V205.147C416.701 202.637 418.847 201.382 421.398 201.382C422.856 201.382 424.192 201.665 425.407 202.232L427.229 196.644C427.31 196.401 427.35 196.199 427.35 196.037C427.35 195.511 427.067 195.106 426.5 194.822C425.65 194.458 424.88 194.195 424.192 194.033C423.504 193.83 422.714 193.729 421.823 193.729C420.487 193.729 419.131 194.094 417.754 194.822C416.377 195.511 415.163 196.584 414.11 198.041V196.219C414.11 194.964 413.442 194.336 412.106 194.336H407.065V225.857H409.434ZM435.951 230.412C434.493 230.291 433.643 229.582 433.4 228.287H433.218C431.477 228.125 430.606 227.153 430.606 225.372V181.522C430.606 180.631 430.829 179.963 431.275 179.517C431.76 179.032 432.449 178.789 433.339 178.789H439.231C441.174 178.789 442.571 179.558 443.421 181.096C444.434 181.38 445.223 181.927 445.79 182.736C446.397 183.506 446.701 184.457 446.701 185.591V220.391C446.701 220.634 446.701 221.302 446.701 222.396C446.701 223.489 446.6 224.501 446.397 225.432C445.587 228.833 442.875 230.534 438.259 230.534C437.773 230.534 437.004 230.493 435.951 230.412ZM433.339 225.554C434.473 225.635 435.242 225.675 435.647 225.675C437.267 225.675 438.502 225.432 439.352 224.946C440.243 224.461 440.79 223.711 440.992 222.699C441.154 222.051 441.235 220.999 441.235 219.541V216.747V183.465C441.235 182.169 440.567 181.522 439.231 181.522H433.339V225.554ZM464.452 230.959C460.241 230.959 456.779 229.603 454.066 226.89C451.597 225.432 449.673 223.226 448.297 220.27C446.96 217.314 446.292 213.771 446.292 209.641C446.292 205.835 446.9 202.515 448.114 199.681C449.37 196.806 451.151 194.6 453.459 193.061C455.767 191.522 458.459 190.753 461.537 190.753C462.954 190.753 464.229 190.935 465.363 191.3V181.582C465.363 180.692 465.586 180.024 466.031 179.578C466.517 179.092 467.205 178.849 468.096 178.849H473.987C474.959 178.849 475.809 179.052 476.538 179.457C477.267 179.862 477.813 180.428 478.178 181.157C479.19 181.441 479.98 181.967 480.546 182.736C481.154 183.506 481.457 184.457 481.457 185.591V223.003C481.457 225.594 480.769 227.477 479.392 228.651C478.056 229.825 475.931 230.412 473.015 230.412H471.74C469.918 230.412 469.007 230.331 469.007 230.17C467.509 230.696 465.99 230.959 464.452 230.959ZM461.719 226.1C463.217 226.1 464.573 225.837 465.788 225.311C467.043 224.744 468.116 223.975 469.007 223.003V225.554H470.282C472.55 225.554 474.068 225.21 474.837 224.521C475.607 223.833 475.991 222.618 475.991 220.877V183.465C475.991 182.21 475.323 181.582 473.987 181.582H468.096V196.219C467.367 195.288 466.416 194.6 465.241 194.154C464.108 193.709 462.873 193.486 461.537 193.486C459.229 193.486 457.123 194.053 455.22 195.187C453.358 196.32 451.86 198.102 450.726 200.531C449.592 202.961 449.025 205.997 449.025 209.641C449.025 215.148 450.2 219.278 452.548 222.031C454.896 224.744 457.953 226.1 461.719 226.1ZM463.116 218.812C459.026 218.812 456.982 215.836 456.982 209.884C456.982 206.848 457.508 204.54 458.561 202.961C459.613 201.341 461.132 200.531 463.116 200.531C464.371 200.531 465.464 200.896 466.395 201.625C467.327 202.313 467.974 203.244 468.339 204.418V214.925C467.974 216.14 467.327 217.091 466.395 217.78C465.464 218.468 464.371 218.812 463.116 218.812ZM463.116 216.079C464.33 216.079 465.16 215.553 465.606 214.5V205.39C463.5 205.512 462.448 207.718 462.448 212.01C462.448 213.67 462.61 215.027 462.934 216.079H463.116ZM491.917 231.02C490.621 231.02 489.467 230.777 488.455 230.291C487.443 229.846 486.653 229.198 486.086 228.347C484.872 227.862 483.92 227.113 483.232 226.1C482.584 225.088 482.26 223.873 482.26 222.456C482.26 221.444 482.442 220.513 482.807 219.663C483.171 218.772 483.698 218.002 484.386 217.355C483.374 216.99 482.868 216.16 482.868 214.865L482.564 184.315C482.564 182.493 483.475 181.582 485.297 181.582H491.127C492.099 181.582 492.949 181.785 493.678 182.19C494.407 182.595 494.974 183.161 495.379 183.89C496.391 184.174 497.181 184.72 497.747 185.53C498.355 186.34 498.658 187.312 498.658 188.445L498.476 212.192C498.476 215.391 497.565 217.557 495.743 218.691C496.715 219.339 497.464 220.189 497.99 221.242C498.557 222.254 498.841 223.367 498.841 224.582C498.841 226.566 498.213 228.125 496.958 229.258C495.703 230.433 494.022 231.02 491.917 231.02ZM488.212 214.925C490.075 214.966 491.33 214.622 491.978 213.893C492.666 213.164 493.01 211.889 493.01 210.067L493.192 186.32C493.192 184.983 492.504 184.315 491.127 184.315H485.297L485.601 214.865L488.212 214.925ZM489.184 226.161C490.561 226.161 491.593 225.837 492.281 225.189C493.01 224.541 493.375 223.63 493.375 222.456C493.375 221.282 492.99 220.29 492.221 219.48C491.451 218.63 490.439 218.205 489.184 218.205C487.929 218.205 486.916 218.63 486.147 219.48C485.378 220.29 484.993 221.282 484.993 222.456C484.993 223.63 485.337 224.541 486.026 225.189C486.755 225.837 487.807 226.161 489.184 226.161Z" fill="#0468BF"/>
<path d="M587 299H76V745H587V299Z" fill="#9CCECB"/>
<mask id="mask0_39_384" style="mask-type:alpha" maskUnits="userSpaceOnUse" x="77" y="299" width="511" height="446">
<path d="M588 299H77V745H588V299Z" fill="#9CCECB"/>
</mask>
<g mask="url(#mask0_39_384)">
<rect x="106" y="224.765" width="449" height="520.236" fill="#9CCECB"/>
<mask id="mask1_39_384" style="mask-type:alpha" maskUnits="userSpaceOnUse" x="106" y="224" width="449" height="521">
<rect x="106" y="224.765" width="449" height="520.236" fill="white"/>
</mask>
<g mask="url(#mask1_39_384)">
<g clip-path="url(#clip0_39_384)">
<path d="M482.68 527.796H209.362V585.222C209.394 587.677 209.513 590.192 209.67 592.739C209.578 596.237 209.464 599.728 209.308 603.214C209.151 606.701 208.968 610.187 208.72 613.678C207.225 625.853 206.21 639.361 198.385 649.053C196.966 650.575 195.514 651.973 193.793 653.322C183.258 662.135 169.767 656.199 165.309 643.743C164.273 642.356 163.183 640.969 162.066 639.604C160.895 638.266 159.691 636.943 158.434 635.686C154.117 632.448 148.72 635.146 147.101 639.464C146.227 641.687 145.53 643.943 145.007 646.209C144.208 664.153 149.519 683.813 159.227 699.717C160.614 701.989 162.093 704.18 163.652 706.274C176.788 725.81 203.231 723.651 223.976 723.446C226.539 723.408 229.103 723.376 231.666 723.36C247.041 723.252 262.405 723.624 277.5 723.581H482.674V527.796H482.68Z" fill="#3C3F48" stroke="#060404" stroke-width="0.539663" stroke-miterlimit="10"/>
<path d="M547.364 646.215C546.84 643.943 546.15 641.692 545.27 639.469C543.651 635.152 538.254 632.453 533.937 635.691C532.68 636.949 531.476 638.271 530.305 639.609C529.188 640.975 528.098 642.356 527.062 643.748C522.604 656.198 509.113 662.135 498.578 653.327C496.862 651.978 495.405 650.581 493.986 649.059C486.166 639.366 485.151 625.859 483.651 613.684C483.408 610.192 483.214 606.706 483.063 603.22C482.912 599.734 482.799 596.247 482.701 592.745C482.853 590.192 482.971 587.683 483.009 585.227V527.802H209.362V585.227C209.394 587.683 209.513 590.198 209.67 592.745C209.578 596.242 209.464 599.734 209.308 603.22C209.157 606.706 208.968 610.192 208.72 613.684C207.225 625.859 206.21 639.366 198.385 649.059C196.966 650.581 195.509 651.978 193.793 653.327C183.258 662.14 169.767 656.204 165.309 643.748C164.273 642.362 163.183 640.975 162.066 639.609C160.895 638.271 159.691 636.949 158.434 635.691C154.117 632.453 148.72 635.152 147.101 639.469C146.227 641.692 145.531 643.948 145.007 646.215C144.608 655.184 145.736 664.59 148.175 673.732C148.785 676.02 149.475 678.287 150.269 680.527C161.672 705.848 188.655 725.815 217.354 723.532C219.594 723.511 221.817 723.468 223.976 723.446C226.539 723.408 229.103 723.376 231.666 723.36C247.041 723.252 262.405 723.624 277.5 723.581H467.051C472.869 723.597 478.989 723.414 484.892 722.771C504.903 720.413 527.029 711.778 536.571 693.592C539.075 688.702 541.185 683.554 542.863 678.282C546.214 667.731 547.828 656.679 547.359 646.215H547.364Z" fill="#3C3F48" stroke="#060404" stroke-width="0.539663" stroke-miterlimit="10"/>
<path d="M231.85 528.152C235.611 545.567 230.214 567.694 212.945 574.17C196.755 580.646 181.645 566.614 176.248 552.043C169.232 531.536 174.089 500.236 198.914 495.918C210.787 493.76 221.58 502.934 226.669 513.263C229.006 517.629 230.797 522.653 231.85 528.152Z" fill="#F3BA8F"/>
<path d="M231.849 529.502C232.211 531.191 232.486 532.902 232.675 534.623C232.778 535.541 232.853 536.458 232.902 537.376C232.923 537.786 232.945 538.196 232.956 538.611C232.961 538.833 232.961 539.054 232.972 539.27C232.988 539.631 232.994 538.595 232.972 538.622C232.934 538.676 232.967 539.005 232.961 539.086C232.869 542.643 232.411 546.199 231.558 549.658C229.95 556.188 226.874 562.508 221.952 567.181C216.717 572.146 209.286 575.195 202.028 574.283C194.294 573.312 187.624 568.32 182.87 562.373C180.409 559.297 178.369 555.87 176.847 552.232C175.654 549.372 174.877 546.329 174.311 543.285C173.744 540.241 173.404 537.03 173.334 533.878C173.334 533.819 173.318 533.49 173.328 533.49C173.345 533.49 173.318 534.461 173.328 534.062C173.328 533.981 173.328 533.905 173.328 533.825C173.339 533.393 173.35 532.961 173.372 532.529C173.409 531.725 173.458 530.921 173.528 530.117C173.663 528.541 173.868 526.971 174.143 525.411C175.19 519.469 177.273 513.603 180.803 508.665C184.332 503.728 189.178 500.085 194.909 498.255C198.417 497.133 202.114 496.626 205.768 497.246C209.648 497.905 213.263 499.675 216.388 502.033C223.112 507.106 227.489 514.753 230.074 522.653C230.808 524.898 231.391 527.192 231.839 529.513C231.671 528.649 232.006 527.683 231.839 526.814C230.91 522.001 229.383 517.295 227.171 512.913C225.255 509.124 223.01 505.6 220.031 502.551C217.052 499.502 213.749 497.165 209.912 495.692C206.075 494.219 202.017 493.933 197.996 494.753C191.779 496.027 186.21 499.329 182.157 504.219C178.142 509.059 175.714 515.055 174.445 521.169C173.792 524.31 173.436 527.516 173.339 530.721C173.231 534.294 173.274 537.883 173.647 541.439C173.981 544.575 174.559 547.683 175.406 550.721C176.421 554.348 177.975 557.78 179.966 560.98C184.197 567.769 190.517 573.862 198.326 576.204C205.838 578.455 213.895 576.35 219.988 571.574C225.519 567.24 229.103 560.894 231.051 554.224C232.06 550.759 232.648 547.181 232.875 543.582C233.118 539.723 233.085 535.784 232.664 531.936C232.475 530.214 232.2 528.509 231.839 526.814C232.022 527.672 231.655 528.649 231.839 529.513L231.849 529.502Z" fill="#0C0C0C"/>
<path d="M199.157 515.994C192.983 515.346 184.888 515.886 184.348 522.902C182.729 534.234 188.666 545.028 196.761 552.583C197.84 548.266 203.776 547.726 207.014 549.885C209.712 552.043 210.252 555.281 209.049 557.823" fill="#D78864"/>
<path d="M199.157 514.645C195.217 514.24 190.279 514.057 186.944 516.582C185.228 517.883 184.57 519.702 184.321 521.774C183.976 524.656 183.933 527.645 184.203 530.538C184.732 536.264 187.036 541.704 190.268 546.42C191.904 548.8 193.776 551.013 195.832 553.042C196.054 553.258 196.329 553.646 196.604 553.787C196.879 553.927 196.75 553.932 196.847 553.625C196.879 553.528 196.912 553.425 196.95 553.328C197.138 552.842 197.408 552.389 197.743 551.99C198.374 551.25 199.222 550.727 200.134 550.408C202.238 549.674 204.78 549.912 206.707 551.045C207.926 551.763 208.865 553.117 209.313 554.44C209.432 554.785 209.518 555.147 209.578 555.508C209.594 555.627 209.61 555.746 209.621 555.87C209.767 557.381 209.761 552.988 209.621 554.423C209.551 555.136 209.346 555.827 209.049 556.474C208.903 556.787 209.038 557.478 209.038 557.823C209.038 558.142 209.038 558.46 209.038 558.779C209.038 558.876 209.087 559.092 209.049 559.173C209.578 558.012 209.664 556.852 209.669 555.595C209.669 554.229 209.74 552.869 209.259 551.569C208.412 549.28 206.485 547.834 204.127 547.429C202.211 547.1 200.047 547.386 198.482 548.601C198.121 548.881 197.797 549.21 197.527 549.583C197.381 549.782 197.252 549.993 197.144 550.214C197.02 550.457 196.971 550.786 196.831 551.007C196.69 551.229 196.933 551.283 196.61 551.094C196.507 551.034 196.388 550.883 196.297 550.797C196.037 550.549 195.784 550.295 195.53 550.041C195.023 549.534 194.526 549.011 194.041 548.476C190.182 544.229 187.036 539.221 185.363 533.706C184.947 532.34 184.629 530.954 184.413 529.545C184.316 528.908 184.24 528.271 184.186 527.629C184.154 527.214 184.133 526.804 184.111 526.388C184.068 525.427 184.068 528.012 184.106 527.192C184.116 526.922 184.127 526.658 184.138 526.388C184.273 524.148 184.478 521.79 186.075 520.069C187.57 518.455 189.788 517.726 191.909 517.392C194.305 517.014 196.761 517.095 199.168 517.343C199.097 517.338 199.281 514.656 199.168 514.645H199.157Z" fill="#060404"/>
<path d="M460.483 528.152C456.722 545.567 462.119 567.694 479.388 574.17C495.578 580.646 510.688 566.614 516.085 552.043C523.101 531.536 518.244 500.236 493.419 495.918C481.546 493.76 470.753 502.934 465.664 513.263C463.327 517.629 461.536 522.653 460.483 528.152Z" fill="#F3BA8F"/>
<path d="M460.483 526.803C459.733 530.295 459.377 533.846 459.339 537.413C459.296 541.325 459.42 545.211 460.084 549.075C461.282 555.999 463.986 562.847 468.697 568.141C473.592 573.635 480.942 577.407 488.4 577.132C496.538 576.83 503.721 571.908 508.816 565.842C511.438 562.718 513.619 559.204 515.243 555.459C516.549 552.459 517.391 549.264 517.99 546.053C518.589 542.842 518.902 539.755 518.983 536.576C519.075 532.998 519.031 529.399 518.621 525.837C517.893 519.534 516.085 513.241 512.734 507.818C509.49 502.561 504.757 498.347 498.967 496.107C495.54 494.785 491.778 494.008 488.098 494.342C484.056 494.709 480.213 496.323 476.9 498.627C469.695 503.619 465.033 511.536 462.307 519.728C461.536 522.049 460.931 524.418 460.467 526.814C460.3 527.683 460.634 528.649 460.467 529.512C461.363 524.882 462.804 520.354 464.882 516.112C466.679 512.448 468.789 508.999 471.568 505.988C476.905 500.208 484.515 496.026 492.583 497.148C498.735 498.007 504.488 500.888 508.778 505.378C513.068 509.868 515.605 515.238 517.17 520.98C517.99 523.991 518.513 527.084 518.778 530.197C518.848 531.029 518.902 531.854 518.934 532.685C518.951 533.063 518.961 533.441 518.967 533.824C518.983 534.65 519.015 533.511 518.967 533.489C518.988 533.5 518.961 533.894 518.956 533.959C518.918 535.583 518.81 537.208 518.638 538.821C517.925 545.438 516.166 551.86 512.739 557.602C508.783 564.229 502.906 570.192 495.578 572.96C492.021 574.304 488.174 574.79 484.407 574.223C480.64 573.657 477.213 572.205 474.142 570.203C468.497 566.506 464.558 560.759 462.221 554.504C461.001 551.244 460.197 547.834 459.749 544.38C459.517 542.594 459.377 540.791 459.334 538.994C459.334 538.978 459.35 538.676 459.328 538.638C459.328 538.638 459.312 539.798 459.328 539.199C459.334 538.978 459.339 538.762 459.345 538.541C459.361 538.098 459.377 537.661 459.404 537.218C459.458 536.301 459.539 535.384 459.641 534.472C459.83 532.809 460.1 531.158 460.451 529.528C460.634 528.665 460.268 527.683 460.451 526.83L460.483 526.803Z" fill="#0C0C0C"/>
<path d="M493.176 515.994C499.35 515.346 507.445 515.886 507.984 522.902C509.603 534.234 503.667 545.028 495.572 552.583C494.493 548.266 488.556 547.726 485.318 549.885C482.62 552.043 482.08 555.281 483.284 557.823" fill="#D78864"/>
<path d="M493.176 517.343C497.089 516.938 501.935 516.765 505.281 519.194C506.943 520.403 507.747 522.157 507.979 524.159C508.065 524.898 508.157 525.637 508.206 526.382C508.217 526.566 508.227 526.744 508.233 526.927C508.254 527.472 508.13 528.19 508.244 526.166C508.222 526.587 508.206 527.008 508.173 527.429C508.065 528.843 507.844 530.246 507.526 531.633C506.241 537.246 503.37 542.416 499.717 546.835C498.799 547.947 497.828 549.016 496.808 550.036C496.581 550.262 496.349 550.489 496.117 550.716C495.999 550.834 495.869 550.996 495.729 551.088C495.405 551.293 495.659 551.25 495.529 551.077C495.4 550.904 495.356 550.559 495.259 550.349C495.135 550.079 494.984 549.82 494.811 549.582C493.646 547.969 491.584 547.305 489.663 547.305C487.1 547.305 484.73 548.4 483.473 550.705C482.782 551.973 482.669 553.284 482.669 554.698C482.669 556.258 482.631 557.726 483.289 559.172C483.263 559.113 483.3 558.8 483.3 558.778C483.3 558.46 483.3 558.141 483.3 557.823C483.3 557.461 483.441 556.808 483.289 556.474C483.041 555.929 482.858 555.368 482.761 554.774C482.744 554.655 482.728 554.536 482.712 554.418C482.556 552.896 482.561 557.391 482.712 555.864C482.739 555.562 482.793 555.265 482.863 554.968C483.182 553.662 483.921 552.491 484.908 551.584C486.42 550.198 488.832 549.798 490.807 550.073C492.782 550.349 494.639 551.412 495.383 553.322C495.421 553.419 495.453 553.516 495.486 553.619C495.551 553.824 495.486 553.9 495.653 553.856C495.896 553.786 496.247 553.295 496.43 553.112C496.97 552.583 497.493 552.043 498.012 551.487C498.994 550.43 499.927 549.323 500.802 548.174C504.272 543.624 506.905 538.33 507.866 532.658C508.357 529.75 508.389 526.722 508.217 523.786C508.087 521.568 507.904 519.21 506.365 517.472C504.827 515.735 502.658 515.055 500.521 514.709C498.098 514.315 495.615 514.396 493.187 514.645C493.074 514.655 493.257 517.337 493.187 517.343H493.176Z" fill="#060404"/>
<path d="M323.474 679.976C328.978 681.563 334.375 682.642 340.387 682.55C341.25 682.534 342.141 682.502 343.047 682.458C353.063 681.962 365.848 679.712 378.892 673.101C407.359 658.675 391.201 691.395 391.201 691.395L333.938 711.233L300.468 704.094L300.781 702.259L301.563 697.672C302.529 691.266 301.99 683.71 305.767 679.393C307.386 677.234 313.862 678.853 318.692 679.372C321.434 679.658 323.468 679.965 323.468 679.965L323.474 679.976Z" fill="#FDFDFE"/>
<path d="M477.985 485.411C473.905 470.155 467.008 455.784 458.152 442.6C455.2 438.207 452.027 433.943 448.67 429.826C444.029 423.177 438.741 417.084 432.923 411.58C427.106 406.075 420.775 401.164 414.046 396.879C367.829 368.013 303.069 371.79 261.413 408.412C256.043 412.972 251.035 417.959 246.491 423.323C210.787 469.475 202.152 539.091 230.808 591.007C234.251 596.9 238.132 602.545 242.395 607.893C246.658 613.241 251.305 618.282 256.28 622.966C276.178 641.703 301.294 654.698 328.039 658.26C327.295 663.219 326.89 668.519 326.89 674.018C326.89 702.027 337.327 724.736 350.203 724.736C363.08 724.736 373.517 702.027 373.517 674.018C373.517 667.477 372.945 661.223 371.909 655.481C377.581 654.261 383.182 652.701 388.676 650.818C414.774 641.849 438.563 625.443 455.325 603.862C458.962 598.999 462.178 593.84 464.925 588.357C478.455 560.683 476.296 529.923 479.437 500.058C479.34 495.114 478.897 490.214 477.974 485.416L477.985 485.411Z" fill="#F3BA8F"/>
<path d="M477.985 484.062C475.114 473.425 470.915 463.193 465.627 453.533C462.982 448.703 460.073 444.013 456.943 439.486C453.813 434.958 450.144 430.398 446.765 425.832C434.353 409.07 417.505 395.649 398.401 387.289C381.957 380.096 364.013 376.475 346.08 376.404C328.115 376.334 310.106 379.831 293.571 386.895C275.676 394.542 259.761 406.545 247.084 421.283C241.132 428.201 236.307 436.458 232.109 444.531C227.791 452.831 224.219 461.515 221.396 470.435C215.951 487.667 213.523 505.573 213.658 523.619C213.793 541.79 216.906 559.938 223.555 576.884C231.321 596.668 244.359 614.034 260.333 627.979C275.633 641.336 293.852 651.503 313.522 656.716C318.298 657.985 323.15 658.94 328.045 659.604V656.905C326.253 669.096 326.318 681.94 328.536 694.072C330.29 703.683 333.463 714.606 340.667 721.649C343.101 724.029 346.194 725.896 349.669 726.068C353.144 726.241 356.366 724.665 358.93 722.415C366.323 715.934 369.647 705.167 371.542 695.874C374.299 682.323 374.332 667.736 371.919 654.131V656.83C400.106 650.699 426.539 636.317 446.512 615.427C456.9 604.558 465.071 591.978 469.836 577.661C474.601 563.328 476.172 548.212 477.181 533.214C477.769 524.456 478.174 515.681 478.924 506.933C479.188 503.857 479.517 500.867 479.431 497.78C479.296 493.177 478.837 488.59 477.99 484.056C478.152 484.92 477.828 485.88 477.99 486.755C478.886 491.525 479.334 496.355 479.447 501.212V498.697C476.571 526.398 478.211 555.335 467.386 581.568C457.413 605.734 436.808 624.892 414.466 637.742C401.223 645.356 386.852 650.883 371.93 654.126C371.838 654.148 371.887 656.587 371.93 656.824C374.181 669.523 373.992 682.593 371.121 695.178C369.216 703.521 366.113 712.663 359.885 718.832C355.406 723.262 349.248 724.876 343.695 721.357C336.949 717.088 333.306 708.654 331.002 701.352C326.76 687.941 326.021 673.457 328.061 659.593C328.099 659.339 328.126 656.905 328.061 656.894C308.369 654.223 289.61 646.527 273.263 635.292C264.785 629.463 256.949 622.701 249.912 615.189C242.47 607.245 235.546 598.357 230.349 588.762C221.645 572.702 216.459 554.866 214.543 536.728C212.503 517.413 214.494 497.802 219.643 479.102C224.462 461.601 232.136 444.834 242.589 429.971C248.536 421.515 255.908 414.283 263.841 407.683C270.646 402.022 278.099 397.149 285.983 393.134C301.725 385.115 319.146 380.517 336.76 379.373C354.267 378.234 372.022 380.484 388.627 386.161C407.186 392.508 423.991 403.231 437.505 417.467C441.223 421.385 444.682 425.557 447.828 429.944C450.975 434.332 454.682 438.779 457.823 443.42C463.851 452.313 469.016 461.811 473.015 471.79C474.968 476.668 476.63 481.66 478.001 486.739C477.774 485.907 478.228 484.882 478.001 484.04L477.985 484.062Z" fill="#040000"/>
<path d="M479.112 407.991C477.278 403.534 475.157 399.238 472.782 395.109C470.402 390.97 467.769 386.998 464.908 383.161C453.43 367.446 438.648 354.554 421.957 344.899C416.371 341.683 410.575 338.823 404.579 336.335C400.246 334.462 395.832 332.821 391.358 331.402C386.873 329.988 382.324 328.801 377.726 327.835C312.783 312.433 239.928 345.352 211.666 405.741C208.865 411.316 206.431 417.09 204.407 423.037C202.384 428.979 200.765 435.093 199.588 441.348C198.773 445.163 198.115 449.027 197.624 452.94C196.318 460.214 195.444 467.581 194.98 474.996C192.654 512.071 200.554 550.29 216.215 583.339C219.032 588.525 222.465 593.5 226.102 598.277C227.845 600.57 236.739 608.39 236.739 610.867C236.739 606.55 237.818 602.232 236.199 598.455C233.323 591.261 230.684 583.943 228.714 576.598C217.262 543.949 232.373 503.474 263.225 486.739C269.383 483.323 276.247 480.727 283.614 479.092C289.912 475.962 296.123 472.6 302.2 469.006C312.383 463.226 321.989 456.615 330.953 449.248C335.432 445.568 339.755 441.693 343.905 437.646C348.055 433.598 352.038 429.367 355.842 424.964C359.134 419.966 362.939 415.309 366.587 410.555C370.235 405.8 373.727 400.943 376.398 395.547C377.251 400.404 378.082 405.26 379.134 410.042C380.192 414.823 381.493 419.529 383.284 424.089C384.86 428.612 386.646 433.021 388.622 437.338C398.476 458.86 413.02 478.369 429.884 494.98C434.423 499.432 439.145 503.717 444.013 507.829C448.88 511.941 453.899 515.891 459.026 519.669C459.9 520.716 460.694 521.795 461.395 522.913C462.102 524.024 462.734 525.174 463.311 526.356C467.294 534.181 468.292 542.508 467.72 550.824C467.531 553.592 467.164 556.366 466.679 559.113C465.772 565.789 464.282 572.383 462.264 578.827C461.762 580.435 461.223 582.038 460.656 583.625C460.181 585.006 459.701 586.388 459.204 587.758C458.708 589.129 458.2 590.5 457.677 591.86C454.282 599.793 450.737 608.077 445.588 615.06C445.713 614.79 445.885 614.488 446.02 614.213C445.648 614.833 445.4 615.508 445.092 616.172C446.652 612.842 452.388 609.205 454.984 606.447C458.238 602.988 461.347 599.394 464.261 595.643C485.912 567.807 496.517 531.973 498.195 497.057C498.459 491.553 498.481 486.037 498.254 480.517C496.797 458.158 493.019 435.492 482.928 415.53C481.73 413.015 480.44 410.511 479.096 408.002L479.112 407.991Z" fill="#3C3F48" stroke="#060404" stroke-width="0.539663" stroke-miterlimit="10"/>
<path d="M249.793 516.523C250.182 528.298 253.42 540.71 262.14 549.658C266.085 553.943 270.797 557.429 276.026 559.836C281.261 562.248 287.014 563.587 293.058 563.587C317.229 563.587 336.819 542.162 336.819 515.735C336.819 502.519 331.919 490.56 324.002 481.898C320.041 477.57 315.324 474.062 310.063 471.634C301.978 467.586 292.81 466.917 284.272 468.941C275.74 470.964 267.839 475.697 262.346 482.47C258.503 486.96 255.4 492.227 253.247 498.002C251.094 503.776 249.869 510.041 249.788 516.523H249.793Z" fill="url(#paint1_radial_39_384)"/>
<path d="M249.793 517.823C250.117 527.24 252.189 536.825 257.295 544.855C259.928 549.005 263.409 552.702 267.246 555.762C271.083 558.821 275.8 561.433 280.667 562.993C289.302 565.767 298.762 565.546 307.251 562.362C314.521 559.636 320.916 554.855 325.794 548.843C330.964 542.48 334.418 534.801 335.929 526.749C336.771 522.265 336.922 517.721 336.809 513.166C336.69 508.26 335.897 503.376 334.418 498.698C331.525 489.577 325.999 481.288 318.433 475.389C314.402 472.249 309.728 469.701 304.85 468.169C299.825 466.588 294.477 466.14 289.253 466.722C279.615 467.791 270.311 472.313 263.754 479.491C256.647 487.267 252.038 497.084 250.436 507.489C250.036 510.095 249.831 512.723 249.793 515.357C249.783 515.972 249.783 516.587 249.793 517.203C249.793 517.327 249.804 518.169 249.809 517.688C249.966 507.014 253.285 496.366 259.421 487.607C262.141 483.727 265.346 480.155 269.162 477.316C272.977 474.477 277.192 472.373 281.687 470.997C286.512 469.518 291.612 468.908 296.647 469.297C301.828 469.696 306.685 471.25 311.31 473.576C319.901 477.893 326.819 485.103 331.212 493.614C333.355 497.764 334.893 502.211 335.81 506.787C336.307 509.259 336.62 511.768 336.749 514.288C336.765 514.591 336.776 514.898 336.787 515.2C336.798 515.557 336.706 516.658 336.809 515.362C336.765 515.902 336.782 516.458 336.755 516.997C336.701 518.115 336.609 519.237 336.485 520.349C335.567 528.401 332.75 536.22 328.185 542.928C323.889 549.237 318.066 554.515 311.223 557.931C303.824 561.628 295.384 563.004 287.197 561.811C282.135 561.072 277.235 559.356 272.794 556.825C268.449 554.348 264.672 551.11 261.304 547.424C254.952 540.462 251.612 531.347 250.365 522.113C250.058 519.825 249.874 517.526 249.793 515.222C249.788 515.044 249.777 515.443 249.783 515.357C249.772 515.627 249.777 515.897 249.777 516.161C249.777 516.711 249.766 517.267 249.788 517.823H249.793Z" fill="#060404"/>
<path d="M278.347 516.172C278.25 527.219 287.964 536.393 298.779 536.749C300.106 536.749 301.401 536.604 302.653 536.323C310.317 534.607 316.323 527.904 317.705 519.453C317.904 518.244 318.007 517.003 318.007 515.73C317.651 507.251 312.794 498.617 304.159 495.379C293.366 491.601 283.112 499.696 279.523 509.615C279.124 510.797 278.811 512.027 278.601 513.306C278.449 514.251 278.369 515.206 278.352 516.172H278.347Z" fill="#040000"/>
<path d="M278.331 515.81C278.325 518.034 278.379 520.208 278.941 522.372C279.448 524.342 280.274 526.22 281.353 527.942C283.517 531.39 286.679 534.191 290.333 535.967C294.316 537.904 298.86 538.654 303.188 537.537C307.138 536.517 310.641 534.137 313.193 530.975C315.972 527.532 317.591 523.236 317.931 518.832C318.271 514.429 317.807 509.895 316.043 505.756C312.691 497.899 304.672 491.763 295.832 493.328C287.235 494.85 280.392 502.853 278.725 511.185C278.471 512.443 278.358 513.716 278.331 515.001C278.32 515.616 278.32 516.231 278.331 516.846C278.331 516.97 278.342 517.812 278.347 517.332C278.52 508.73 284.537 500.063 292.578 496.943C296.345 495.481 300.646 495.346 304.434 496.83C308.223 498.314 311.493 501.013 313.808 504.375C316.048 507.629 317.429 511.466 317.867 515.384C317.894 515.632 317.921 515.88 317.937 516.134C317.953 516.307 317.958 516.474 317.975 516.647C318.023 517.278 317.802 517.801 317.98 515.179C317.931 515.907 317.899 516.636 317.802 517.364C317.656 518.465 317.435 519.561 317.127 520.629C316.577 522.556 315.767 524.407 314.715 526.112C312.664 529.431 309.691 532.178 306.129 533.792C302.211 535.573 297.904 535.778 293.792 534.596C286.35 532.448 280.144 526.172 278.671 518.487C278.584 518.028 278.509 517.559 278.46 517.095C278.428 516.798 278.401 516.501 278.379 516.199C278.374 516.102 278.369 516.01 278.363 515.913C278.347 515.535 278.358 514.898 278.352 516.517C278.352 515.988 278.444 515.373 278.342 514.855C278.315 514.72 278.331 514.995 278.331 514.99C278.315 515.26 278.331 515.529 278.325 515.794L278.331 515.81Z" fill="#060404"/>
<path d="M252.643 500.068C249.869 500.84 247.09 500.289 244.78 498.579C242.47 496.868 240.803 494.331 239.599 491.741C238.93 490.295 238.396 488.789 238.002 487.251C238.099 487.634 237.991 488.201 237.991 488.6C237.991 489.016 237.899 489.539 238.002 489.949C238.709 492.696 239.842 495.373 241.45 497.715C243.058 500.057 245.136 502.054 247.845 502.826C249.426 503.274 251.067 503.209 252.643 502.772C252.713 502.75 252.654 501.536 252.654 501.423C252.654 501.315 252.589 500.09 252.643 500.073V500.068Z" fill="#060404"/>
<path d="M256.221 490.586C254.516 491.39 252.735 491.223 251.348 489.912C249.961 488.6 249.179 486.712 248.677 484.909C248.385 483.873 248.191 482.804 248.099 481.73C248.175 482.621 248.024 483.533 248.099 484.429C248.261 486.339 248.736 488.255 249.557 489.993C250.285 491.536 251.418 493.188 253.151 493.673C254.192 493.965 255.261 493.738 256.221 493.285C256.319 493.236 256.238 492.07 256.232 491.936C256.232 491.617 256.232 491.299 256.232 490.98C256.232 490.937 256.205 490.592 256.221 490.586V490.586Z" fill="#060404"/>
<path d="M447.181 516.523C446.792 528.298 443.554 540.71 434.833 549.658C430.888 553.943 426.177 557.429 420.948 559.836C415.713 562.248 409.96 563.587 403.916 563.587C379.745 563.587 360.155 542.162 360.155 515.735C360.155 502.519 365.055 490.56 372.972 481.898C376.933 477.57 381.65 474.062 386.911 471.634C394.995 467.586 404.164 466.917 412.702 468.941C421.239 470.964 429.135 475.697 434.628 482.47C438.471 486.96 441.574 492.227 443.727 498.002C445.88 503.776 447.105 510.041 447.186 516.523H447.181Z" fill="white"/>
<path d="M447.176 515.217C446.852 524.526 444.796 534.003 439.798 541.973C437.246 546.043 433.889 549.669 430.171 552.702C426.453 555.735 421.849 558.395 417.095 560.031C408.644 562.939 399.324 562.956 390.867 560.074C383.641 557.608 377.203 553.112 372.2 547.365C366.987 541.374 363.35 534.089 361.531 526.372C361.056 524.353 360.7 522.314 360.473 520.252C360.349 519.14 360.263 518.018 360.209 516.901C360.198 516.636 360.187 516.377 360.177 516.113C360.177 515.956 360.155 514.909 360.16 515.67C360.16 516.48 360.182 515.233 360.187 515.087C360.198 514.747 360.214 514.402 360.236 514.062C360.511 509.194 361.472 504.359 363.101 499.766C366.237 490.938 371.887 482.983 379.448 477.403C383.506 474.408 388.174 471.99 393.031 470.603C397.98 469.189 403.204 468.86 408.304 469.497C417.694 470.673 426.728 475.131 433.15 482.119C440.101 489.686 444.677 499.211 446.404 509.329C446.873 512.092 447.132 514.888 447.176 517.694C447.181 518.207 447.192 517.257 447.192 517.208C447.192 516.593 447.192 515.978 447.192 515.363C447.035 504.618 443.846 493.954 437.699 485.104C434.931 481.116 431.65 477.457 427.742 474.559C423.835 471.661 419.566 469.572 414.996 468.207C410.036 466.728 404.796 466.167 399.642 466.663C394.488 467.16 389.351 468.898 384.666 471.407C376.102 476.005 369.297 483.506 365.12 492.244C360.943 500.981 359.599 511.002 360.29 520.776C360.873 529.022 363.415 537.117 367.813 544.127C371.974 550.754 377.77 556.366 384.677 560.074C392.006 564.003 400.441 565.638 408.698 564.656C413.916 564.035 418.989 562.384 423.592 559.858C428.093 557.386 431.968 554.116 435.449 550.365C442.016 543.301 445.427 533.943 446.652 524.499C446.938 522.287 447.111 520.058 447.186 517.824C447.208 517.273 447.197 516.717 447.197 516.161C447.197 515.892 447.203 515.622 447.192 515.357C447.192 515.336 447.186 515.093 447.181 515.222L447.176 515.217Z" fill="#060404"/>
<path d="M418.633 516.172C418.73 527.219 409.016 536.393 398.201 536.749C396.873 536.749 395.578 536.604 394.326 536.323C386.663 534.607 380.656 527.904 379.275 519.453C379.075 518.244 378.973 517.003 378.973 515.73C379.329 507.251 384.186 498.617 392.82 495.379C403.614 491.601 413.867 499.696 417.456 509.615C417.855 510.797 418.168 512.027 418.379 513.306C418.53 514.251 418.611 515.206 418.627 516.172H418.633Z" fill="#040000"/>
<path d="M418.617 516.528C418.611 514.596 418.579 516.49 418.519 517.008C418.46 517.526 418.379 518.066 418.277 518.584C418.093 519.528 417.834 520.451 417.51 521.358C416.857 523.182 415.929 524.903 414.79 526.463C412.502 529.604 409.356 532.108 405.794 533.657C401.919 535.346 397.624 535.891 393.511 534.769C389.761 533.743 386.426 531.477 383.949 528.492C381.331 525.335 379.691 521.428 379.162 517.364C379.065 516.636 379.048 515.907 378.984 515.179C378.962 514.931 378.913 517.575 378.989 516.647C379 516.528 379.005 516.415 379.011 516.296C379.032 515.994 379.059 515.686 379.097 515.384C379.21 514.385 379.383 513.387 379.615 512.41C380.068 510.5 380.748 508.649 381.644 506.9C385.395 499.615 393.306 494.348 401.687 496.129C409.712 497.834 416.172 505.195 418.044 513.009C418.384 514.429 418.59 515.87 418.617 517.327C418.627 517.839 418.633 516.889 418.633 516.841C418.633 516.226 418.638 515.61 418.633 514.995C418.455 506.118 412.481 497.181 404.035 494.105C399.966 492.621 395.46 492.75 391.515 494.558C387.57 496.366 384.45 499.367 382.292 503.036C380.133 506.706 379.005 510.683 378.962 514.763C378.93 517.391 379 519.993 379.637 522.561C380.149 524.639 380.964 526.647 382.054 528.487C384.137 532.005 387.257 534.909 391.007 536.571C395.125 538.39 399.637 538.465 403.889 537.078C411.66 534.542 417.872 527.488 418.568 519.232C418.665 518.093 418.649 516.949 418.643 515.805C418.643 515.535 418.649 515.265 418.638 515.001C418.638 515.055 418.643 514.704 418.627 514.866C418.568 515.405 418.617 515.988 418.617 516.528V516.528Z" fill="#060404"/>
<path d="M444.331 502.767C447.105 503.539 449.885 502.988 452.194 501.277C454.504 499.567 456.172 497.03 457.375 494.44C458.044 492.993 458.579 491.488 458.973 489.95C459.075 489.55 458.983 489.011 458.983 488.601C458.983 488.19 458.87 487.645 458.973 487.251C458.266 489.998 457.132 492.675 455.524 495.017C453.916 497.359 451.838 499.356 449.129 500.128C447.548 500.576 445.907 500.511 444.331 500.074C444.369 500.085 444.321 501.315 444.321 501.423C444.321 501.542 444.251 502.751 444.331 502.772V502.767Z" fill="#060404"/>
<path d="M440.759 493.285C442.464 494.089 444.245 493.922 445.632 492.611C447.019 491.299 447.801 489.41 448.303 487.608C448.594 486.572 448.789 485.503 448.88 484.429C448.956 483.533 448.805 482.621 448.88 481.731C448.719 483.641 448.244 485.557 447.423 487.295C446.695 488.838 445.562 490.49 443.829 490.975C442.788 491.267 441.719 491.04 440.759 490.587C440.829 490.619 440.742 491.812 440.748 491.936C440.748 492.254 440.748 492.573 440.748 492.891C440.748 492.94 440.726 493.274 440.759 493.285Z" fill="#060404"/>
<path d="M329.907 575.54C332.432 581.282 336.998 586.495 342.734 589.183C345.551 590.505 348.671 590.985 351.693 590.111C354.37 589.339 356.695 587.672 358.676 585.751C361.072 583.43 363.047 580.715 364.909 577.963C365.066 577.731 364.92 576.895 364.92 576.614C364.92 576.296 364.92 575.977 364.92 575.659C364.92 575.583 364.871 575.319 364.909 575.265C361.774 579.895 358.034 585.098 352.583 587.121C346.404 589.415 340.209 585.858 335.875 581.563C333.355 579.064 331.326 576.096 329.901 572.842C329.928 572.901 329.89 573.209 329.89 573.236C329.89 573.554 329.89 573.873 329.89 574.191C329.89 574.558 329.755 575.2 329.901 575.54H329.907Z" fill="#060404"/>
<path d="M380.247 442.033C385.622 441.175 390.905 439.793 396.318 439.124C401.731 438.455 407.149 438.385 411.941 440.797C414.731 442.2 416.949 444.418 418.563 447.079C418.541 447.041 418.574 446.679 418.574 446.685C418.574 446.366 418.574 446.048 418.574 445.73C418.574 445.368 418.714 444.715 418.563 444.38C417.154 441.326 414.753 438.973 411.747 437.484C408.655 435.951 405.185 435.303 401.768 435.028C398.137 434.737 394.483 434.866 390.851 435.131C389.135 435.255 387.419 435.417 385.708 435.584C383.674 435.778 381.671 435.983 379.707 436.577C374.607 438.104 370.079 441.337 366.755 445.46C366.599 445.654 366.744 446.561 366.744 446.809C366.744 447.127 366.744 447.446 366.744 447.764C366.744 447.823 366.782 448.131 366.755 448.158C372.314 443.279 379.059 439.934 386.161 437.958C389.621 436.998 393.172 436.35 396.75 435.994C398.385 435.832 400.058 435.649 401.698 435.827C403.118 435.978 404.521 436.339 405.832 436.901C408.773 438.163 411.18 440.549 411.547 443.841V441.142C402.038 435.568 389.664 435.794 379.75 440.214C377.019 441.434 374.445 442.999 372.152 444.92C372.017 445.033 372.141 446.08 372.141 446.269C372.141 446.447 372.287 447.516 372.152 447.618C376.626 444.105 382.065 441.795 387.591 440.549C393.269 439.264 399.437 439.054 404.996 440.991C408.002 442.038 410.727 443.754 412.891 446.097C412.761 445.956 412.902 444.958 412.902 444.747C412.902 444.429 412.902 444.111 412.902 443.792C412.902 443.717 412.939 443.447 412.891 443.398C408.957 439.146 403.328 437.208 397.645 436.917C391.693 436.615 385.649 437.915 380.187 440.247C377.332 441.466 374.596 442.999 372.152 444.92V447.618C380.5 440.635 392.573 438.104 403.118 440.527C406.075 441.207 408.93 442.308 411.547 443.841C411.461 443.792 411.558 442.632 411.558 442.492C411.558 442.049 411.596 441.585 411.547 441.142C411.223 438.234 409.291 435.983 406.76 434.645C404.013 433.193 401.094 432.94 398.05 433.182C390.813 433.749 383.614 435.503 377.068 438.671C373.35 440.468 369.864 442.734 366.755 445.465V448.163C369.734 444.472 373.652 441.515 378.093 439.826C381.725 438.444 385.627 438.261 389.464 437.942C396.415 437.365 404.057 436.938 410.635 439.68C414.116 441.132 416.965 443.63 418.557 447.079V444.38C417.111 442 415.184 439.955 412.767 438.547C410.565 437.268 408.083 436.566 405.568 436.253C400.069 435.573 394.478 436.571 389.092 437.629C386.145 438.212 383.209 438.854 380.241 439.329C380.079 439.356 380.36 442.006 380.241 442.027L380.247 442.033Z" fill="#060404"/>
<path d="M306.312 438.995C301.04 438.52 295.875 437.235 290.624 436.588C285.627 435.973 280.209 435.811 275.595 438.142C272.837 439.534 270.668 441.752 269.076 444.381V447.079C270.22 443.841 272.47 441.278 275.525 439.712C278.579 438.147 282.146 437.554 285.579 437.327C289.2 437.084 292.832 437.252 296.447 437.435C298.05 437.516 299.691 437.489 301.283 437.656C303.56 437.899 305.87 438.509 308.029 439.243C313.085 440.959 317.543 443.981 320.878 448.164V445.465C314.812 440.625 308.023 436.604 300.581 434.3C294.942 432.551 288.326 431.45 282.681 433.755C279.48 435.061 277.041 437.516 275.541 440.608C275.395 440.911 275.53 441.623 275.53 441.957C275.53 442.092 275.638 443.258 275.541 443.307C280.635 440.77 286.205 438.79 291.974 438.93C293.458 438.968 294.882 439.211 296.34 439.443C297.635 439.648 298.919 439.864 300.193 440.177C302.805 440.813 305.357 441.715 307.791 442.859C310.527 444.149 313.107 445.746 315.476 447.624V444.926C310.128 441.537 304.256 438.79 298.077 437.333C292.686 436.059 286.836 435.859 281.601 437.905C278.671 439.049 276.097 440.9 274.003 443.247C273.852 443.42 273.992 444.364 273.992 444.596C273.992 444.915 273.992 445.233 273.992 445.552C273.992 445.616 274.035 445.908 274.003 445.946C277.743 441.747 282.907 439.486 288.477 439.13C294.553 438.741 300.608 440.371 306.161 442.718C309.394 444.089 312.502 445.746 315.471 447.624C315.379 447.565 315.481 446.421 315.481 446.275C315.481 446.081 315.627 445.05 315.471 444.926C311.299 441.612 306.442 439.173 301.304 437.764C299.966 437.397 298.611 437.101 297.246 436.879C295.881 436.658 294.548 436.399 293.182 436.291C290.355 436.075 287.511 436.394 284.764 437.074C281.558 437.867 278.487 439.135 275.535 440.603V443.301C276.874 440.538 278.962 438.245 281.731 436.874C284.354 435.573 287.316 435.136 290.22 435.179C296.269 435.271 302.303 437.208 307.721 439.799C312.427 442.049 316.793 444.909 320.867 448.158C320.759 448.072 320.878 446.976 320.878 446.809C320.878 446.491 320.878 446.172 320.878 445.854C320.878 445.773 320.916 445.519 320.867 445.46C317.899 441.742 314.04 438.908 309.626 437.138C307.489 436.28 305.255 435.665 302.994 435.244C301.213 434.909 299.437 434.888 297.635 434.796C294.046 434.613 290.446 434.413 286.852 434.559C283.258 434.704 279.842 435.136 276.626 436.496C273.058 438.002 270.36 440.716 269.06 444.381C268.93 444.737 269.049 445.352 269.049 445.73C269.049 446.048 269.049 446.367 269.049 446.685C269.049 446.766 269.097 447.02 269.06 447.079C270.484 444.731 272.362 442.691 274.737 441.299C276.852 440.058 279.243 439.378 281.666 439.086C286.966 438.455 292.341 439.464 297.543 440.382C300.446 440.894 303.355 441.429 306.296 441.693C306.237 441.693 306.399 439.006 306.296 438.995H306.312Z" fill="#060404"/>
<path d="M465.341 630.791C464.758 634.725 464.72 638.805 465.011 642.772C465.303 646.738 466.139 650.91 467.327 654.833C469.485 661.994 472.718 668.902 476.62 675.276C483.549 686.587 493.43 696.921 506.312 701.158C515.044 704.029 524.466 703.667 533.268 701.293C533.333 701.277 533.279 700.057 533.279 699.944C533.279 699.836 533.214 698.605 533.268 698.594C525.518 700.688 517.256 701.25 509.41 699.345C503.252 697.85 497.548 694.876 492.561 690.985C482.059 682.788 474.585 670.931 469.647 658.686C468.012 654.628 466.674 650.44 465.837 646.139C465.4 643.91 465.103 641.649 464.974 639.383C464.957 639.14 464.947 638.897 464.936 638.649C464.925 638.438 464.914 637.164 464.909 638.238C464.909 639.248 464.914 638.292 464.925 638.071C464.936 637.747 464.952 637.418 464.968 637.094C465.038 635.885 465.168 634.682 465.346 633.479C465.476 632.594 465.217 631.655 465.346 630.78L465.341 630.791Z" fill="#060404"/>
<path d="M326.01 679.49C319.648 670.656 311.893 662.847 303.107 656.425C300.916 654.828 298.665 653.311 296.356 651.892C294.046 650.473 291.531 648.983 288.962 647.861C286.393 646.738 283.69 645.999 280.894 646.123C278.482 646.231 276.129 646.954 274.008 648.087C263.9 653.479 261.326 665.421 260.182 675.864C258.984 686.824 258.72 698.028 259.891 708.999C261.062 719.97 263.825 730.672 268.876 740.429C269.507 741.649 270.177 742.852 270.873 744.034C270.846 743.991 270.884 743.635 270.884 743.64C270.884 743.322 270.884 743.003 270.884 742.685C270.884 742.367 270.884 742.048 270.884 741.73C270.884 741.633 270.921 741.411 270.873 741.336C265.444 732.14 262.163 721.849 260.544 711.32C258.925 700.791 258.979 689.981 260.112 679.247C261.245 668.514 263.377 657.515 272.697 651.552C274.645 650.305 276.82 649.399 279.108 649.01C281.677 648.578 284.267 648.886 286.733 649.696C289.378 650.564 291.839 651.919 294.235 653.311C296.48 654.617 298.676 656.01 300.813 657.488C309.491 663.473 317.251 670.791 323.722 679.113C324.51 680.122 325.271 681.147 326.021 682.189C325.999 682.156 326.032 681.778 326.032 681.795C326.032 681.476 326.032 681.158 326.032 680.839C326.032 680.521 326.032 680.203 326.032 679.884C326.032 679.798 326.07 679.555 326.021 679.49H326.01Z" fill="#060404"/>
<path d="M379.744 679.987C379.555 679.242 379.415 678.487 379.345 677.72L379.318 677.359C379.286 676.625 379.28 677.089 379.302 678.74C379.313 678.605 379.313 678.47 379.318 678.335C379.345 677.882 379.399 677.429 379.469 676.981C379.707 675.497 380.171 674.061 380.786 672.696C382.108 669.76 384.099 667.154 386.317 664.833C388.535 662.513 391.126 660.402 393.765 658.476C396.549 656.441 399.42 654.52 402.362 652.718C413.991 645.589 426.76 640.311 440.036 637.159C443.36 636.371 446.717 635.707 450.089 635.189C453.711 634.634 457.424 634.245 461.072 634.768C467.262 635.659 472.372 639.566 475.734 644.725C479.528 650.548 480.845 657.569 481.18 664.412C481.514 671.255 480.899 678.74 479.874 685.81C477.828 699.917 473.603 713.71 467.348 726.522C466.565 728.125 465.751 729.711 464.909 731.282C464.758 731.562 464.898 732.313 464.898 732.631C464.898 732.949 464.898 733.268 464.898 733.586C464.898 733.673 464.946 733.91 464.909 733.98C471.994 720.769 476.895 706.414 479.382 691.633C480.602 684.39 481.228 677.062 481.287 669.717C481.347 662.372 481.201 654.488 478.46 647.38C476.236 641.617 472.119 636.29 466.425 633.641C459.62 630.467 451.628 632.059 444.574 633.468C430.586 636.258 417.073 641.401 404.752 648.589C401.671 650.386 398.665 652.313 395.745 654.358C392.826 656.404 390.149 658.406 387.656 660.796C385.163 663.187 383.02 665.718 381.434 668.686C380.683 670.084 380.084 671.563 379.712 673.101C379.34 674.639 379.28 676.242 379.28 677.855C379.28 679.469 379.334 681.088 379.744 682.691C379.647 682.307 379.755 681.741 379.755 681.341C379.755 680.926 379.847 680.402 379.744 679.992V679.987Z" fill="#060404"/>
<path d="M325.481 680.84C313.328 666.452 297.138 644.326 278.25 649.723C267.932 652.755 262.616 660.273 259.934 669.782C259.038 672.95 258.439 676.344 258.04 679.863C255.039 717.18 257.198 754.957 265.066 790.888" fill="white"/>
<path d="M325.481 679.49C317.769 670.354 310.381 660.435 300.489 653.506C296.037 650.386 290.921 647.925 285.422 647.585C279.923 647.245 273.943 649.296 269.507 652.809C258.655 661.412 257.98 676.797 257.306 689.469C256.437 705.761 256.491 722.135 257.548 738.416C258.595 754.541 260.662 770.602 263.846 786.446C264.235 788.378 264.64 790.305 265.06 792.231C264.872 791.379 265.249 790.397 265.06 789.533C261.677 774.05 259.362 758.335 258.05 742.545C256.723 726.571 256.431 710.537 257.187 694.525C257.554 686.695 257.786 678.719 259.928 671.131C261.412 665.875 263.857 660.78 267.845 656.959C271.849 653.122 277.381 650.586 282.94 650.278C288.201 649.987 293.29 651.773 297.759 654.439C302.794 657.44 307.176 661.466 311.218 665.68C315.26 669.895 319.102 674.542 322.891 679.102C323.749 680.138 324.612 681.169 325.476 682.194C325.341 682.038 325.487 681.066 325.487 680.845C325.487 680.526 325.487 680.208 325.487 679.89C325.487 679.814 325.524 679.55 325.476 679.496L325.481 679.49Z" fill="#060404"/>
<path d="M379.744 681.336C377.348 672.291 384.887 663.786 392.361 658.163C409.155 645.54 429.08 637.116 449.841 633.878C454.541 633.144 459.436 632.685 463.991 634.056C470.564 636.042 475.572 641.692 478.189 648.044C480.807 654.396 481.319 661.406 481.287 668.276C481.222 681.692 479.15 695.087 475.221 707.909C474.568 710.046 473.861 712.178 473.111 714.304C472.204 716.943 471.255 719.56 470.262 722.178C460.116 746.857 449.862 771.141 437.747 794.968" fill="white"/>
<path d="M379.744 679.987C379.62 679.501 379.512 679.01 379.442 678.514C379.404 678.271 379.377 678.028 379.355 677.78L379.323 677.343C379.291 676.636 379.291 677.019 379.323 678.492C379.426 677.461 379.544 676.458 379.809 675.454C380.3 673.614 381.104 671.871 382.092 670.252C384.234 666.733 387.181 663.732 390.338 661.12C396.954 655.643 404.515 651.104 412.183 647.278C419.884 643.436 427.968 640.36 436.279 638.115C440.478 636.981 444.736 636.058 449.026 635.362C453.57 634.623 458.308 634.04 462.852 635.103C470.364 636.863 475.858 643.231 478.519 650.219C481.962 659.264 481.584 669.42 480.704 678.892C479.819 688.373 477.941 697.758 475.135 706.857C472.264 716.161 468.524 725.125 464.779 734.105C457.304 752.005 449.56 769.798 440.974 787.197C439.911 789.35 438.837 791.492 437.752 793.629C437.601 793.921 437.742 794.649 437.742 794.979C437.742 795.308 437.904 796.031 437.752 796.328C446.97 778.19 455.211 759.577 463.09 740.823C466.986 731.552 470.931 722.307 474.104 712.755C477.277 703.203 479.447 693.403 480.515 683.425C481.028 678.622 481.276 673.792 481.298 668.962C481.319 664.132 481.255 659.528 480.467 654.877C479.101 646.798 475.254 638.649 467.903 634.413C463.932 632.124 459.393 631.601 454.881 631.925C450.256 632.259 445.632 633.177 441.115 634.207C432.275 636.231 423.646 639.189 415.421 643.009C407.197 646.83 399.523 651.412 392.356 656.814C386.047 661.568 379.382 668.293 379.275 676.717C379.248 678.73 379.231 680.716 379.733 682.685C379.517 681.844 379.949 680.834 379.733 679.987H379.744Z" fill="#060404"/>
<path d="M322.486 678.136C320.824 682.523 323.118 687.688 326.874 690.5C330.63 693.317 335.498 694.191 340.187 694.337C355.832 694.833 371.072 688.109 383.296 678.33C389.885 673.063 395.951 666.566 398.368 658.487L459.345 716.144V732.631H277.295L322.486 678.136V678.136Z" fill="white"/>
<path d="M293.264 728.271C288.515 729.566 289.126 740.683 290.026 746.08H412.529C411.81 741.223 408.859 730.861 402.815 728.271C395.26 725.033 299.2 726.652 293.264 728.271Z" fill="white"/>
<path d="M322.486 676.786C321.919 678.341 321.919 679.906 321.925 681.546C321.925 683.073 322.038 684.53 322.545 685.982C323.598 688.972 325.805 691.395 328.546 692.944C331.477 694.595 334.844 695.308 338.169 695.577C341.493 695.847 345.125 695.718 348.563 695.281C362.254 693.537 375.119 686.808 385.486 677.866C391.131 672.998 396.166 667.078 398.368 659.841C398.481 659.463 398.379 658.886 398.379 658.492C398.379 658.098 398.249 657.52 398.368 657.143C396.495 663.311 392.54 668.546 387.931 672.955C383.155 677.52 377.683 681.444 371.908 684.655C366.069 687.898 359.788 690.397 353.241 691.794C349.993 692.485 346.684 692.901 343.366 693.003C340.068 693.1 336.712 692.949 333.501 692.167C330.101 691.336 326.803 689.717 324.58 686.943C323.544 685.648 322.745 684.147 322.303 682.545C322.2 682.167 322.114 681.784 322.054 681.395C322.022 681.201 322 681.012 321.979 680.818L321.952 680.478C321.914 679.674 321.914 680.219 321.941 682.113C322.011 681.206 322.168 680.353 322.481 679.501C322.61 679.145 322.491 678.529 322.491 678.152C322.491 677.774 322.351 677.153 322.481 676.803L322.486 676.786Z" fill="#060404"/>
<path d="M338.336 560.02C339.625 558.125 340.91 556.231 342.2 554.332L344.169 551.434C344.72 550.624 345.243 549.696 346.101 549.178C347.51 548.325 349.177 548.973 350.349 549.928C351.698 551.023 352.405 552.513 353.122 554.051C353.916 555.756 354.785 557.526 356.474 558.503C356.387 558.455 356.485 557.294 356.485 557.154C356.485 556.997 356.603 555.88 356.474 555.805C353.419 554.046 353.241 550.041 350.861 547.694C349.798 546.647 348.201 545.702 346.668 546.215C345.772 546.512 345.184 547.246 344.671 547.996C344.04 548.908 343.425 549.831 342.804 550.743C341.315 552.934 339.825 555.13 338.336 557.321C338.179 557.553 338.325 558.39 338.325 558.67C338.325 558.989 338.325 559.307 338.325 559.626C338.325 559.701 338.373 559.966 338.336 560.02V560.02Z" fill="#060404"/>
<path d="M338.336 558.67C340.408 555.621 342.475 552.572 344.547 549.528C344.963 548.913 345.4 548.282 346.021 547.877C348.185 546.468 350.996 548.568 352.221 550.84C353.447 553.112 354.218 555.907 356.479 557.154" fill="#DF8C66"/>
<path d="M376.96 358.369C383.096 348.844 391.11 340.668 400.306 334.068C409.21 327.678 419.194 322.681 429.518 319.033C440.095 315.299 451.325 312.66 462.556 312.201C468.713 311.953 474.882 312.233 481.012 312.832C487.143 313.431 492.718 314.36 498.438 315.957C503.84 317.468 509.102 319.47 514.121 321.98C516.652 323.248 519.118 324.646 521.498 326.173C523.748 327.614 526.074 329.119 527.968 331.024C528.864 331.926 529.647 332.924 530.311 334.009C530.861 334.91 533.117 333.431 532.55 332.503C531.174 330.247 529.231 328.445 527.116 326.891C524.79 325.185 522.35 323.636 519.846 322.212C514.855 319.373 509.56 317.079 504.11 315.272C492.502 311.429 480.143 310.102 467.952 310.118C464.801 310.118 461.649 310.253 458.508 310.533C455.626 310.787 452.755 311.294 449.911 311.818C444.321 312.843 438.789 314.23 433.376 315.968C422.599 319.432 412.265 324.268 402.783 330.463C393.02 336.842 384.272 344.953 377.472 354.451C376.641 355.611 375.837 356.799 375.066 357.997C374.796 358.412 374.645 358.99 375.26 359.157C375.821 359.308 376.652 358.817 376.949 358.364L376.96 358.369Z" fill="#060404"/>
<path d="M376.555 342.578C372.707 335.919 367.775 329.907 361.995 324.834C356.215 319.761 349.766 315.795 342.794 312.772C335.875 309.777 328.563 307.77 321.148 306.48C313.733 305.19 305.859 304.553 298.164 304.381C290.468 304.208 282.691 304.456 274.969 304.883C274.003 304.936 273.037 304.99 272.076 305.05C271.456 305.088 270.786 305.228 270.22 305.487C269.826 305.665 269.783 305.832 270.295 305.8C277.937 305.341 285.589 305.017 293.242 305.093C300.894 305.169 308.509 305.627 316.059 306.766C323.609 307.905 330.797 309.691 337.775 312.438C344.753 315.185 351.455 318.952 357.321 323.711C363.231 328.509 368.358 334.267 372.432 340.695C372.95 341.515 373.452 342.346 373.938 343.182C374.213 343.657 376.614 342.654 376.566 342.567L376.555 342.578Z" fill="#060404"/>
<path d="M381.143 338.299C381.515 327.646 380.56 317.042 377.753 306.74C374.947 296.437 370.603 286.826 364.791 278.019C361.526 273.065 357.802 268.418 353.679 264.155C353.809 264.284 353.668 265.299 353.668 265.504C353.668 265.822 353.668 266.141 353.668 266.459C353.668 266.529 353.631 266.81 353.679 266.853C360.581 273.993 366.334 282.201 370.765 291.084C375.19 299.967 378.293 309.513 379.907 319.303C380.355 322.012 380.689 324.737 380.905 327.473C381.018 328.92 381.099 330.366 381.148 331.812C381.159 332.169 381.17 332.525 381.175 332.886C381.175 333.032 381.18 333.178 381.18 333.323C381.18 333.582 381.18 333.879 381.18 333.453C381.17 334.198 381.153 334.942 381.126 335.687C381.105 336.238 381.116 336.793 381.116 337.349C381.116 337.619 381.11 337.889 381.121 338.153C381.121 338.175 381.126 338.418 381.132 338.288L381.143 338.299Z" fill="#060404"/>
<path d="M307.224 352.589C297.791 357.942 288.725 363.933 280.095 370.506C271.466 377.079 263.344 384.181 255.703 391.822C251.385 396.14 247.241 400.619 243.263 405.249C243.112 405.427 243.253 406.361 243.253 406.598C243.253 406.917 243.253 407.235 243.253 407.554C243.253 407.624 243.296 407.91 243.263 407.948C250.328 399.718 257.948 391.968 266.053 384.764C274.159 377.559 282.691 370.948 291.655 364.915C296.717 361.51 301.914 358.299 307.219 355.282C307.332 355.217 307.23 354.084 307.23 353.933C307.23 353.782 307.111 352.643 307.219 352.583L307.224 352.589Z" fill="#060404"/>
<path d="M433.705 389.292C439.906 398.369 446.107 407.452 452.308 416.529L457.602 424.278C457.58 424.246 457.613 423.868 457.613 423.884C457.613 423.566 457.613 423.248 457.613 422.929C457.613 422.611 457.613 422.292 457.613 421.974C457.613 421.888 457.65 421.65 457.602 421.58C451.401 412.503 445.2 403.42 439 394.343L433.705 386.594C433.727 386.626 433.695 387.004 433.695 386.988C433.695 387.306 433.695 387.625 433.695 387.943C433.695 388.261 433.695 388.58 433.695 388.898C433.695 388.984 433.657 389.222 433.705 389.292V389.292Z" fill="#060404"/>
<path d="M443.555 430.371C445.6 435.277 447.645 440.188 449.69 445.093C449.561 444.786 449.701 444.084 449.701 443.744C449.701 443.372 449.836 442.746 449.69 442.395C447.645 437.489 445.6 432.578 443.555 427.673C443.684 427.98 443.544 428.682 443.544 429.022C443.544 429.394 443.409 430.02 443.555 430.371Z" fill="#060404"/>
<path d="M477.888 465.908C478.427 476.723 478.713 487.554 478.676 498.379C478.665 501.455 478.627 504.537 478.568 507.613C478.557 508.228 478.557 508.843 478.568 509.458C478.568 509.583 478.578 510.424 478.584 509.944C478.816 497.834 478.74 485.713 478.33 473.609C478.211 470.176 478.066 466.739 477.898 463.306C477.888 463.134 477.882 463.522 477.888 463.441C477.877 463.711 477.882 463.981 477.882 464.245C477.882 464.796 477.866 465.352 477.893 465.908H477.888Z" fill="#060404"/>
<path d="M230.603 633.489C230.754 634.525 230.873 635.567 230.949 636.614C230.981 637.1 231.008 637.591 231.024 638.082C231.03 638.281 231.03 638.481 231.04 638.681C230.97 636.841 231.03 638.228 231.013 638.659C230.932 640.683 230.711 642.701 230.377 644.698C229.724 648.605 228.639 652.426 227.284 656.144C224.888 662.696 221.72 669.015 217.894 674.849C210.905 685.502 201.127 695.016 188.682 698.772C180.22 701.325 171.154 700.893 162.681 698.605C162.719 698.616 162.67 699.846 162.67 699.954C162.67 700.068 162.606 701.282 162.681 701.303C170.695 703.467 179.249 703.986 187.328 701.854C193.712 700.165 199.573 696.889 204.64 692.685C209.875 688.341 214.295 683.057 218.007 677.375C222.006 671.25 225.304 664.585 227.7 657.677C229.211 653.327 230.333 648.827 230.803 644.245C231.272 639.663 231.256 635.211 230.603 630.802C230.733 631.676 230.474 632.615 230.603 633.5V633.489Z" fill="#060404"/>
<path d="M253.911 658.961C253.021 668.066 250.943 677.046 247.759 685.621C244.575 694.196 240.312 702.372 235.082 709.873C232.146 714.083 228.903 718.071 225.39 721.811C225.239 721.973 225.379 722.933 225.379 723.16C225.379 723.478 225.379 723.797 225.379 724.115C225.379 724.18 225.422 724.477 225.39 724.509C231.655 717.844 237.041 710.37 241.407 702.323C245.773 694.277 249.108 685.691 251.31 676.814C252.546 671.832 253.415 666.765 253.911 661.66C253.997 660.769 253.825 659.852 253.911 658.961Z" fill="#060404"/>
<path d="M264.536 565C261.555 570.126 259.017 575.494 256.953 581.044C256.892 581.205 256.933 581.648 256.933 581.779C256.933 582.373 256.933 582.967 256.933 583.561C256.933 584.156 256.933 584.75 256.933 585.344C256.933 585.535 257.013 585.908 256.953 586.079C259.017 580.52 261.555 575.152 264.536 570.036C264.597 569.925 264.557 569.351 264.557 569.3C264.557 568.706 264.557 568.112 264.557 567.518C264.557 566.924 264.557 566.329 264.557 565.735C264.557 565.574 264.466 565.121 264.536 565Z" fill="#DF8C66"/>
<path d="M274.963 567.246C273.267 572.322 271.583 577.398 269.887 582.463C269.82 582.664 269.865 583.121 269.865 583.277C269.865 583.936 269.865 584.594 269.865 585.252C269.865 585.91 269.865 586.569 269.865 587.227C269.865 587.45 269.954 587.84 269.887 588.041C271.583 582.965 273.267 577.889 274.963 572.824C275.03 572.623 274.985 572.166 274.985 572.009C274.985 571.351 274.985 570.693 274.985 570.035C274.985 569.376 274.985 568.718 274.985 568.06C274.985 567.837 274.896 567.446 274.963 567.246Z" fill="#DF8C66"/>
<path d="M301.412 573.808V579.944C301.412 580.047 301.412 581.293 301.423 581.293C301.434 581.293 301.434 579.955 301.434 579.944V573.808C301.434 573.706 301.434 572.459 301.423 572.459C301.412 572.459 301.412 573.797 301.412 573.808Z" fill="#DF8C66"/>
<path d="M429.122 573.304C430.655 577.651 432.187 581.997 433.719 586.344C433.676 586.224 433.736 585.785 433.736 585.716C433.736 585.208 433.736 584.7 433.736 584.192C433.736 583.684 433.736 583.177 433.736 582.669C433.736 582.488 433.779 582.213 433.719 582.04C432.187 577.694 430.655 573.347 429.122 569C429.165 569.121 429.105 569.56 429.105 569.628C429.105 570.136 429.105 570.644 429.105 571.152C429.105 571.66 429.105 572.168 429.105 572.675C429.105 572.856 429.062 573.132 429.122 573.304Z" fill="#DF8C66"/>
<path d="M429.038 569.026C429.038 569.026 429.059 566.328 429.038 566.328C429.016 566.328 429.016 569.026 429.038 569.026Z" fill="#DF8C66"/>
<path d="M436.876 565.04C440.823 570.382 445.2 575.397 449.964 580.032C449.938 580.006 449.982 579.343 449.982 579.403C449.982 578.895 449.982 578.386 449.982 577.878C449.982 577.37 449.982 576.861 449.982 576.353C449.982 576.241 450.033 575.793 449.964 575.724C445.2 571.088 440.823 566.083 436.876 560.732C436.911 560.775 436.859 561.395 436.859 561.361C436.859 561.869 436.859 562.378 436.859 562.886C436.859 563.394 436.859 563.903 436.859 564.411C436.859 564.549 436.799 564.937 436.876 565.04Z" fill="#DF8C66"/>
<path d="M445.442 558.72C448.284 561.375 451.126 564.03 453.969 566.677C453.946 566.654 453.984 566.07 453.984 566.13C453.984 565.687 453.984 565.245 453.984 564.802C453.984 564.36 453.984 563.917 453.984 563.475C453.984 563.377 454.029 562.98 453.969 562.927C451.126 560.272 448.284 557.618 445.442 554.97C445.464 554.993 445.427 555.578 445.427 555.518C445.427 555.96 445.427 556.403 445.427 556.845C445.427 557.288 445.427 557.73 445.427 558.173C445.427 558.27 445.382 558.667 445.442 558.72Z" fill="#DF8C66"/>
<path d="M343.155 600.095C344.726 601.574 346.857 602.356 349.011 602.243V599.545C347.003 600.263 344.855 600.495 342.74 600.23C342.751 600.23 342.724 601.477 342.729 601.579C342.734 601.682 342.697 602.923 342.74 602.929C344.855 603.193 347.003 602.961 349.011 602.243C349.027 602.238 349.021 601.795 349.021 601.849C349.021 601.531 349.021 601.212 349.021 600.894C349.021 600.797 349.011 599.545 349.011 599.545C346.857 599.658 344.726 598.876 343.155 597.397C343.171 597.413 343.144 597.834 343.144 597.791C343.144 598.109 343.144 598.428 343.144 598.746C343.144 599.065 343.144 599.383 343.144 599.701C343.144 599.772 343.112 600.058 343.155 600.095Z" fill="#DF8C66"/>
<path d="M325.136 660.111V660.521C325.136 660.839 325.136 661.158 325.136 661.476C325.136 661.568 325.136 661.66 325.136 661.757C325.136 661.795 325.136 661.832 325.136 661.876V661.827C325.141 661.714 325.147 661.595 325.147 661.482C325.147 661.163 325.147 660.845 325.147 660.526V660.116C325.147 659.798 325.147 659.479 325.147 659.161C325.147 659.069 325.147 658.978 325.147 658.88C325.147 658.843 325.147 658.805 325.147 658.762V658.81C325.141 658.924 325.136 659.042 325.136 659.156C325.136 659.474 325.136 659.792 325.136 660.111Z" fill="#DF8C66"/>
<path d="M261.688 780.078L232.886 688.638C240.182 679.312 244.386 668.028 248.552 657.046C249.238 655.475 249.972 653.959 250.749 652.475C254.618 645.065 259.54 638.557 263.787 631.163C264.386 629.717 264.807 628.276 265.012 626.905C265.422 624.169 265.001 621.725 262.994 620.144C255.223 614.029 243.339 627.774 238.401 632.259C230.128 639.776 227.122 614.337 226.464 610.036C225.018 600.581 224.554 591.007 223.183 581.552C222.53 577.041 220.307 549.809 213.075 550.144C207.49 550.403 207.522 567.775 207.236 571.115C206.059 585.001 205.39 598.929 204.818 612.853C204.802 613.225 204.77 613.635 204.5 613.894C204.279 614.105 203.955 614.148 203.652 614.186C201.483 614.434 199.227 614.558 197.166 613.84C193.097 612.426 192.692 608.05 191.03 604.655C188.747 599.987 186.459 595.319 184.538 590.484C171.985 566.711 163.642 546.307 158.553 548.174C153.464 550.041 159.481 571.196 166.108 597.246C167.355 602.135 176.572 624.029 171.332 626.916C171.008 627.094 170.625 627.229 170.274 627.121C169.929 627.019 169.686 626.717 169.47 626.425C165.088 620.651 161.343 614.321 156.675 608.778C142.935 592.399 133.199 577.855 129.114 580.333C122.827 584.148 132.001 599.545 134.16 603.651C140.652 616.004 147.101 628.379 153.512 640.78C155.072 643.797 157.927 648.794 156.108 652.07C151.629 651.266 147.36 648.557 143.469 646.279C134.527 641.045 124.457 631.449 113.243 635.853C117.323 643.937 125.256 648.292 132.136 653.797C146.259 665.103 158.758 677.801 172.266 689.792C178.358 695.2 185.115 700.143 197.511 700.775L225.86 790.79L261.682 780.067L261.688 780.078Z" fill="#F3BA8F"/>
<path d="M262.983 779.69C261.931 776.349 260.878 773.009 259.826 769.674C257.338 761.778 254.85 753.883 252.368 745.988C249.438 736.684 246.507 727.386 243.577 718.082C241.235 710.645 238.893 703.209 236.55 695.772L234.624 689.658C234.527 689.345 234.181 688.719 234.224 688.384C234.268 688.05 234.597 687.877 234.85 687.542C236.108 685.864 237.268 684.121 238.358 682.335C242.837 675.006 245.978 666.97 249.022 658.967C252.303 650.333 257.727 642.858 262.584 635.076C263.847 633.047 265.169 631.083 265.838 628.773C266.345 627.008 266.664 625.049 266.318 623.22C265.773 620.322 263.226 618.449 260.409 618.082C254.742 617.348 249.249 621.412 245.212 624.877C243.123 626.668 241.154 628.59 239.184 630.505C238.439 631.229 237.711 632.027 236.88 632.653C236.701 632.788 236.232 633.058 236.286 633.036C236.189 633.074 236.281 633.096 235.946 633.02C234.494 632.686 233.517 631.228 232.837 630.009C231.774 628.104 231.084 625.994 230.49 623.9C229.34 619.825 228.634 615.638 228.024 611.455C226.912 603.754 226.216 596.026 225.374 588.298C224.845 583.474 224.219 578.649 223.582 573.835C222.945 569.022 222.131 563.792 220.738 558.93C220.145 556.852 219.448 554.753 218.369 552.869C217.635 551.59 216.658 550.247 215.207 549.756C213.512 549.178 211.434 549.831 210.155 551.013C208.671 552.389 208.013 554.526 207.538 556.431C206.416 560.964 206.259 565.692 206.027 570.333C205.838 574.121 205.439 577.904 205.18 581.687C204.856 586.447 204.575 591.212 204.327 595.978C204.079 600.743 203.847 605.897 203.636 610.862C203.615 611.423 203.593 611.984 203.566 612.54C203.561 612.686 203.426 614.067 203.755 613.641C203.609 613.835 202.508 613.749 202.222 613.76C201.515 613.792 200.808 613.787 200.107 613.706C198.175 613.484 196.464 612.648 195.325 611.05C194.403 609.755 193.89 608.206 193.34 606.728C192.654 604.888 191.78 603.155 190.927 601.396C189.929 599.334 188.941 597.262 187.997 595.174C187.052 593.085 186.243 590.883 185.169 588.833C181.057 580.991 177.177 573.037 173.124 565.163C170.517 560.101 167.954 554.693 164.306 550.279C163.394 549.178 162.287 547.964 160.857 547.575C159.427 547.187 157.603 547.721 156.615 548.795C155.628 549.869 155.477 551.342 155.401 552.686C155.272 555.001 155.558 557.338 155.892 559.626C156.955 566.841 158.796 573.949 160.577 581.013C162.357 588.077 163.701 594.602 165.946 601.158C167.635 606.096 169.405 611.024 170.62 616.102C171.165 618.385 171.656 620.748 171.65 623.107C171.65 623.97 171.575 624.866 171.262 625.675C171.154 625.961 170.997 626.183 170.846 626.442C170.809 626.506 170.598 626.641 170.582 626.706C170.517 627.019 171.192 626.291 171.176 626.469C171.176 626.469 170.49 625.675 170.458 625.638C167.689 621.989 165.218 618.125 162.563 614.396C159.907 610.667 156.993 607.251 154.122 603.733C149.093 597.57 144.316 591.153 138.958 585.271C136.594 582.675 133.043 578.261 129.022 579.815C124.273 581.655 125.606 587.672 126.864 591.374C128.477 596.134 130.998 600.478 133.324 604.909C137.873 613.571 142.406 622.243 146.912 630.932C148.92 634.801 150.938 638.67 152.935 642.551C154.381 645.362 156.427 649.194 154.829 652.335L157.155 651.509C153.496 650.807 150.21 649.032 147.026 647.17C144.349 645.605 141.732 643.97 139.152 642.254C134.155 638.935 128.882 635.346 122.838 634.38C119.406 633.83 116.006 634.288 112.773 635.519C112.611 635.578 111.802 635.956 111.964 636.264C115.034 642.232 120.291 646.366 125.585 650.279C131.748 654.828 137.603 659.744 143.318 664.85C149.438 670.316 155.401 675.961 161.424 681.541C166.373 686.128 171.251 691.077 176.82 694.925C182.746 699.021 189.551 701.018 196.712 701.412L196.232 701.19L199.049 710.143C201.305 717.31 203.561 724.477 205.822 731.638C208.553 740.305 211.283 748.978 214.014 757.645C216.372 765.141 218.736 772.631 221.094 780.127C221.872 782.599 222.649 785.065 223.426 787.537L224.154 789.841C224.268 790.208 224.338 790.721 224.537 791.05C224.564 791.093 224.57 791.158 224.586 791.201C224.726 791.643 225.784 791.357 226.022 791.287C236.486 788.157 246.95 785.022 257.414 781.892C258.892 781.449 260.371 781.007 261.844 780.564C262.125 780.478 263.129 780.143 262.994 779.701C262.859 779.258 261.796 779.544 261.558 779.614C251.094 782.744 240.63 785.88 230.166 789.01C228.687 789.452 227.209 789.895 225.736 790.337L227.171 790.424C226.232 787.439 225.293 784.455 224.354 781.471C222.098 774.304 219.842 767.137 217.581 759.976C214.85 751.309 212.12 742.637 209.389 733.97C207.031 726.474 204.667 718.983 202.309 711.487L199.977 704.078L199.249 701.773C199.135 701.406 199.065 700.894 198.866 700.564C198.839 700.521 198.833 700.457 198.817 700.413C198.763 700.241 198.477 700.197 198.337 700.192C191.931 699.836 185.795 698.158 180.371 694.677C174.926 691.185 170.253 686.452 165.52 682.086C154.02 671.477 142.832 660.3 130.258 650.937C124.327 646.523 118.029 642.238 114.554 635.486L113.745 636.231C121.014 633.468 128.488 637.872 134.43 641.736C137.511 643.738 140.544 645.783 143.712 647.65C147.285 649.755 150.96 651.881 155.083 652.675C155.779 652.81 157.053 652.551 157.409 651.849C158.958 648.805 157.225 645.146 155.833 642.378C153.809 638.352 151.694 634.375 149.616 630.376C145.142 621.763 140.652 613.161 136.141 604.569C133.825 600.16 131.311 595.837 129.638 591.132C128.812 588.806 128.002 586.167 128.31 583.673C128.429 582.734 128.72 581.763 129.368 581.056C129.562 580.846 130.409 580.128 129.514 580.694C129.4 580.765 129.557 580.689 129.87 580.775C131.661 581.299 133.189 582.848 134.478 584.121C136.669 586.28 138.655 588.644 140.609 591.007C143.167 594.1 145.66 597.246 148.17 600.371C151.046 603.949 154.041 607.435 156.885 611.029C159.729 614.623 162.293 618.541 164.937 622.335C165.531 623.188 166.13 624.035 166.74 624.877C167.312 625.665 167.889 626.722 168.634 627.359C169.718 628.287 171.607 627.591 172.611 626.836C173.901 625.864 174.181 624.234 174.225 622.713C174.289 620.446 173.847 618.163 173.345 615.961C172.185 610.856 170.425 605.913 168.725 600.97C166.561 594.682 165.153 588.136 163.523 581.698C161.715 574.558 159.859 567.386 158.666 560.112C158.272 557.716 157.932 555.276 157.948 552.842C157.959 551.418 158.067 549.869 158.914 548.682C159.076 548.455 159.227 548.541 158.871 548.617C158.439 548.709 158.456 548.644 158.715 548.725C159.298 548.908 159.772 549.21 160.247 549.599C161.802 550.889 162.973 552.648 164.057 554.326C167.695 559.961 170.625 566.07 173.636 572.049C175.639 576.026 177.63 580.004 179.659 583.97C180.733 586.075 181.818 588.169 182.919 590.257C184.02 592.346 184.743 594.499 185.692 596.588C187.419 600.381 189.465 604.051 190.916 607.958C192.001 610.878 193.329 613.63 196.551 614.574C198.531 615.152 200.674 615.087 202.703 614.866C204.181 614.704 205.973 614.391 206.113 612.632C206.491 607.964 206.513 603.247 206.739 598.568C207.198 589.21 207.921 579.885 208.553 570.543C208.849 566.134 208.92 561.725 209.783 557.376C210.182 555.363 210.679 553.015 212.001 551.38C212.185 551.153 212.535 550.954 212.686 550.727C212.568 550.905 212.271 550.646 212.757 550.808C213.361 551.008 213.841 551.267 214.316 551.709C215.628 552.929 216.399 554.715 217.036 556.35C217.9 558.568 218.509 560.883 219.038 563.204C220.107 567.926 220.781 572.729 221.364 577.527C222.087 583.517 222.854 589.496 223.447 595.497C224.068 601.806 224.786 608.093 225.762 614.353C226.442 618.703 227.252 623.101 228.72 627.262C229.713 630.079 231.413 634.456 235.061 634.272C237.063 634.17 238.671 633.069 240.085 631.747C241.958 629.993 243.749 628.152 245.649 626.42C247.846 624.418 250.166 622.459 252.751 620.969C254.818 619.771 257.187 618.784 259.589 619.502C263.345 620.624 264.311 624.288 263.636 627.802C262.762 632.335 259.643 636.231 257.182 640.036C254.721 643.84 252.276 647.586 250.123 651.541C247.97 655.497 246.48 659.491 244.877 663.608C241.769 671.585 238.331 679.545 233.35 686.555C232.908 687.175 231.639 688.33 231.618 689.08C231.618 689.178 231.693 689.307 231.72 689.399C231.861 689.938 232.055 690.467 232.222 690.996C233.982 696.582 235.741 702.173 237.5 707.758L245.752 733.959C248.542 742.815 251.332 751.671 254.116 760.521C255.951 766.344 257.786 772.167 259.621 777.99C259.885 778.821 260.144 779.652 260.409 780.483C260.625 781.163 263.204 780.375 262.994 779.701L262.983 779.69Z" fill="#040000"/>
<path d="M233.63 630.591C233.215 633.646 233.339 633.23 230.97 634.353C227.969 635.777 225.055 637.38 222.238 639.15C216.55 642.723 211.283 646.97 206.582 651.773C203.949 654.466 201.493 657.332 199.238 660.343C199.081 660.553 199.227 661.428 199.227 661.692C199.227 662.01 199.227 662.329 199.227 662.647C199.227 662.723 199.275 662.993 199.238 663.041C207.295 652.28 217.899 643.462 229.971 637.537C231.52 636.776 233.161 636.15 234.661 635.292C236.026 634.509 236.911 634.671 237.138 633.02C237.257 632.135 233.512 631.471 233.63 630.591Z" fill="#040000"/>
</g>
</g>
</g>
<defs>
<linearGradient id="paint0_linear_39_384" x1="304.52" y1="1348.89" x2="-235.21" y2="1078.88" gradientUnits="userSpaceOnUse">
<stop stop-color="#FCFCFC"/>
<stop offset="1" stop-color="white"/>
</linearGradient>
<radialGradient id="paint1_radial_39_384" cx="0" cy="0" r="1" gradientUnits="userSpaceOnUse" gradientTransform="translate(293.306 515.708) scale(45.7473 45.7473)">
<stop stop-color="white"/>
<stop offset="1" stop-color="white"/>
</radialGradient>
<clipPath id="clip0_39_384">
<rect width="478.908" height="532.162" fill="white" transform="translate(111.937 264.16)"/>
</clipPath>
</defs>
</svg>
